<?xml version="1.0" encoding="utf-8"?>
<!-- Generator: Adobe Illustrator 23.0.3, SVG Export Plug-In . SVG Version: 6.00 Build 0)  -->
<svg version="1.1" id="OBJECT" xmlns="http://www.w3.org/2000/svg" xmlns:xlink="http://www.w3.org/1999/xlink" x="0px" y="0px"
	 viewBox="0 0 50 50" style="enable-background:new 0 0 50 50;" xml:space="preserve">
<style type="text/css">
	.st0{fill:#02AA7A;}
	.st1{fill:#01C393;}
	.st2{fill:#E29D2D;}
	.st3{fill:#292989;}
	.st4{fill:#43A0FF;}
	.st5{clip-path:url(#SVGID_2_);fill:#376EF7;}
	.st6{clip-path:url(#SVGID_2_);fill:#7AC5FF;}
	.st7{fill:#E7F5FE;}
	.st8{clip-path:url(#SVGID_4_);fill:#D7EBF4;}
	.st9{fill:#C1E0F4;}
	.st10{fill:#376EF7;}
	.st11{fill:#7AC5FF;}
	.st12{fill:#FFBC45;}
	.st13{fill:none;}
	.st14{fill:#363857;}
	.st15{fill:#EFA125;}
	.st16{fill:#B0ECFF;}
	.st17{fill:none;stroke:#292989;stroke-width:4;stroke-miterlimit:10;}
	.st18{clip-path:url(#SVGID_6_);fill:#376EF7;}
	.st19{clip-path:url(#SVGID_6_);fill:#7AC5FF;}
	.st20{clip-path:url(#SVGID_8_);fill:#D7EBF4;}
	.st21{fill:none;stroke:#292989;stroke-width:5;stroke-linecap:round;stroke-linejoin:round;stroke-miterlimit:10;}
	.st22{fill:#FFFFFF;}
	.st23{fill:#1E2358;}
	.st24{fill:#01A990;}
	.st25{fill:#063052;}
</style>
<g>
	<path class="st0" d="M37.36,4.48c1.46,3.11,2.29,6.59,2.29,10.26c0,13.32-10.8,24.12-24.12,24.12c-4.55,0-8.81-1.26-12.44-3.45
		c3.85,8.19,12.18,13.86,21.83,13.86c13.32,0,24.12-10.8,24.12-24.12C49.04,16.37,44.36,8.7,37.36,4.48z"/>
	<path class="st1" d="M39.64,14.73c0-3.67-0.82-7.14-2.29-10.26c-3.63-2.19-7.89-3.45-12.44-3.45C11.6,1.02,0.8,11.82,0.8,25.14
		c0,3.67,0.82,7.14,2.29,10.26c3.63,2.19,7.89,3.45,12.44,3.45C28.85,38.85,39.64,28.05,39.64,14.73z"/>
</g>
<g>
	<g id="XMLID_81_">
		
			<ellipse id="XMLID_82_" transform="matrix(0.2824 -0.9593 0.9593 0.2824 -16.5808 24.1908)" class="st2" cx="7.88" cy="23.18" rx="4.53" ry="3.17"/>
	</g>
	<g id="XMLID_79_">
		<path class="st3" d="M7.25,27.9c-0.25,0-0.49-0.03-0.73-0.1c-1.83-0.54-2.7-3.05-1.95-5.59s2.84-4.18,4.67-3.64
			c1.83,0.54,2.7,3.05,1.95,5.59c-0.36,1.22-1.03,2.26-1.89,2.95C8.64,27.63,7.94,27.9,7.25,27.9z M8.51,19.03
			c-1.37,0-2.82,1.37-3.4,3.34c-0.66,2.24,0.04,4.44,1.57,4.88c0.72,0.21,1.52,0,2.26-0.59c0.77-0.62,1.37-1.56,1.7-2.67
			c0.66-2.24-0.04-4.44-1.57-4.88l0,0C8.89,19.05,8.7,19.03,8.51,19.03z"/>
	</g>
	<g>
		<path class="st4" d="M41.42,26.31c-1.51-5.61-5.38-5.27-6.66-9.03c-4.08,5.65-1.28,11.7,6.4,11.29l0.02,0
			c0.21,1.94-1.86,4.29-4.43,4.29c-2.57,0-4.42-1.79-5.3-5.95c-0.81-3.82-2.17-7.85-5-10.67c-2.81-2.79-7.1-3.81-10.92-2.95
			c-4.44,1.01-6.8,4.37-7.62,8.7c-0.23,1.19-0.33,2.41-0.34,3.62C7.52,35.71,15.7,44.05,25.79,44.19
			C36.11,44.33,44.53,36,44.53,25.71c0-2.63-0.55-5.14-1.54-7.4C42.98,18.31,39.75,20.92,41.42,26.31z"/>
		<g>
			<defs>
				<path id="SVGID_1_" d="M41.42,26.31c-1.51-5.61-5.38-5.27-6.66-9.03c-4.08,5.65-1.28,11.7,6.4,11.29l0.02,0
					c0.21,1.94-1.86,4.29-4.43,4.29c-2.57,0-4.42-1.79-5.3-5.95c-0.81-3.82-2.17-7.85-5-10.67c-2.81-2.79-7.1-3.81-10.92-2.95
					c-4.44,1.01-6.8,4.37-7.62,8.7c-0.23,1.19-0.33,2.41-0.34,3.62C7.52,35.71,15.7,44.05,25.79,44.19
					C36.11,44.33,44.53,36,44.53,25.71c0-2.63-0.55-5.14-1.54-7.4C42.98,18.31,39.75,20.92,41.42,26.31z"/>
			</defs>
			<clipPath id="SVGID_2_">
				<use xlink:href="#SVGID_1_"  style="overflow:visible;"/>
			</clipPath>
			<path class="st5" d="M34.76,17.28c0,0-0.91,3.61-0.2,5.87c1.48,4.69,5.9,3.84,6.56,4.44c1.08,0.98,0.04,2.21,0.04,2.21
				s-3.9,1.96-5.11,0.95c-1.21-1.01-3.25-3.95-3.25-3.95l-1.14-2.86l0.32-3.34l0.42-1.9l0.75-1.43H34.76z"/>
			<path class="st5" d="M41.42,26.31c-0.18-0.62-1.56-7.04-1.56-7.04l0.73-1.22l2.59,0.24c0,0-1.26,2.63-1.01,6.56
				C42.25,26.28,41.6,26.93,41.42,26.31"/>
			<path class="st5" d="M31.19,37.63c-3.67-1.18-6.08-3.91-7.87-8.63c0.57,0.14,2.22-0.14,2.58-0.89c0.4-0.32-0.09-0.85-0.2-1.08
				c-1.23,0.61-2.52,0.29-3.4-0.93c-2.23-3.1-4.76-8.27-10.11-7.31c-5.05,0.91-4.58,8.29-4.5,9.1c1.08,9.17,8.89,16.29,18.35,16.29
				c7.23,0,18.72-4.47,17.48-12.46C41.91,37.04,34.81,38.8,31.19,37.63z"/>
			<path class="st5" d="M25.04,26.86c0.06-0.05,0.13-0.08,0.2-0.11c0.07-0.03,0.15-0.04,0.23-0.05c0.08,0,0.17,0.01,0.25,0.02
				c0.08,0.03,0.17,0.06,0.24,0.11c0.07,0.05,0.15,0.1,0.21,0.17c0.03,0.03,0.06,0.07,0.09,0.1c0.03,0.04,0.05,0.07,0.07,0.11
				c0.09,0.15,0.13,0.32,0.16,0.48c0.04,0.32-0.02,0.63-0.16,0.9c-0.14,0.26-0.34,0.49-0.63,0.61c-0.01-0.31-0.01-0.55-0.01-0.78
				c0-0.23-0.01-0.43-0.04-0.61c-0.03-0.18-0.06-0.33-0.13-0.48C25.47,27.16,25.31,27.02,25.04,26.86z"/>
			<path class="st6" d="M7.77,22.87c0,0,1.8-7.04,6.68-8.15c4.78-1.09,7.18-0.05,8.88,0.93s4,3.23,5.27,6.43
				c1.42,3.58,1.82,10.05,6.4,11.33c3.4,0.94,6.89-1.67,6.16-4.09l-5.11,0.63l-1.82-1.91c0,0-5.58-12.16-5.72-12.2
				s-9.25-3.81-9.53-4.19c-0.28-0.38-0.56-2.39-2.61-1.41c-2.05,0.98-12.09,5.98-12.09,5.98l0.79,6.4L7.77,22.87z"/>
			<path class="st5" d="M34.04,37.2c-0.04,0.23-0.38,0.37-0.75,0.3s-0.64-0.31-0.6-0.54c0.04-0.23,0.38-0.37,0.75-0.3
				S34.08,36.97,34.04,37.2z"/>
			<path class="st5" d="M34.97,37.22c0,0.16-0.13,0.29-0.29,0.29c-0.16,0-0.29-0.13-0.29-0.29c0-0.16,0.13-0.29,0.29-0.29
				C34.84,36.93,34.97,37.06,34.97,37.22z"/>
			<path class="st6" d="M42.71,24.55c0.18,1.28-0.08,3.03-0.08,3.03c1.48-2.28,0.93-6.02,0.29-7.47
				C42.6,21.23,42.5,23.04,42.71,24.55z"/>
			<circle class="st6" cx="26.05" cy="23.95" r="0.38"/>
			<circle class="st6" cx="26.81" cy="24.65" r="0.24"/>
		</g>
		<g>
			<path class="st7" d="M30.15,38.39c-5.61-1.4-6.46-7.54-8.63-11.75c-1.52-2.96-4.51-8.16-9.39-7.26
				c-5.05,0.93-4.53,7.71-4.44,8.52c1.08,9.17,8.89,16.29,18.35,16.29c7.23,0,13.49-4.16,16.53-10.21
				C39.32,38.57,33.3,39.17,30.15,38.39z"/>
			<g>
				<defs>
					<path id="SVGID_3_" d="M30.15,38.39c-5.61-1.4-6.46-7.54-8.63-11.75c-1.52-2.96-4.51-8.16-9.39-7.26
						c-5.05,0.93-4.53,7.71-4.44,8.52c1.08,9.17,8.89,16.29,18.35,16.29c7.23,0,13.49-4.16,16.53-10.21
						C39.32,38.57,33.3,39.17,30.15,38.39z"/>
				</defs>
				<clipPath id="SVGID_4_">
					<use xlink:href="#SVGID_3_"  style="overflow:visible;"/>
				</clipPath>
				<path class="st8" d="M7.71,23.95c0,0,0.79,13.57,10.61,17.22c-9.71-6.18-8.48-16.31-8.48-16.31s1.25,12.9,13.12,16.31
					c-10.51-5.83-8.88-17.36-8.88-17.36s1.57,14.05,12.49,15.91c-8.25-4.29-7.64-13.08-7.64-13.1c0-0.02,1.48,11.4,13.69,11.45
					c2.99,0.01,9.96-4.71,9.96-4.71l0.64,0.68c0,0-0.57,4.43-1.08,5.9c-0.51,1.47-7.09,8.73-7.09,8.73s-11.11,2.04-13.49,1.42
					s-5.67-2.61-7.2-4.03c-1.53-1.42-4.25-8.11-4.25-8.11l-3.17-6.27L7.71,23.95z"/>
			</g>
			<g>
				<path class="st9" d="M9.87,20.43c-0.25,1.97-0.21,3.97,0.09,5.93c0.29,1.95,0.84,3.86,1.64,5.65c0.41,0.89,0.88,1.76,1.41,2.57
					c0.54,0.82,1.15,1.59,1.81,2.3c0.17,0.18,0.33,0.36,0.51,0.53l0.53,0.51c0.37,0.32,0.73,0.65,1.12,0.94
					c0.19,0.15,0.38,0.3,0.59,0.44c0.2,0.14,0.4,0.28,0.6,0.42c0.42,0.26,0.83,0.52,1.26,0.75c0.42,0.25,0.87,0.45,1.31,0.67
					c0.45,0.19,0.89,0.4,1.35,0.55c0.92,0.33,1.86,0.59,2.82,0.74c1.92,0.33,3.9,0.28,5.83-0.09c1.92-0.38,3.79-1.06,5.53-1.99
					c0.87-0.46,1.71-0.99,2.5-1.59c0.39-0.3,0.77-0.62,1.14-0.96c0.36-0.34,0.71-0.7,0.99-1.1c-0.26,0.42-0.58,0.81-0.92,1.18
					c-0.35,0.36-0.72,0.7-1.1,1.02c-0.77,0.64-1.59,1.22-2.45,1.74c-1.73,1.02-3.61,1.79-5.59,2.22c-1.97,0.44-4.03,0.5-6.04,0.2
					c-1-0.15-1.99-0.41-2.94-0.75c-0.48-0.16-0.94-0.37-1.41-0.57c-0.45-0.22-0.91-0.43-1.35-0.68c-0.45-0.24-0.87-0.51-1.3-0.78
					c-0.21-0.14-0.42-0.29-0.62-0.43c-0.21-0.14-0.41-0.3-0.61-0.46c-0.4-0.3-0.78-0.64-1.16-0.98l-0.55-0.53
					c-0.18-0.17-0.35-0.37-0.52-0.55c-1.36-1.5-2.46-3.23-3.24-5.09c-0.79-1.86-1.27-3.83-1.49-5.82c-0.1-1-0.14-2-0.11-3
					C9.56,22.4,9.67,21.4,9.87,20.43z"/>
				<path class="st9" d="M14.47,19.28c-0.26,1.79-0.34,3.59-0.21,5.38c0.12,1.79,0.44,3.56,0.96,5.26c0.54,1.7,1.28,3.33,2.28,4.78
					c1,1.46,2.25,2.74,3.7,3.74c0.72,0.51,1.48,0.95,2.29,1.29c0.81,0.35,1.66,0.6,2.52,0.79c1.73,0.37,3.52,0.43,5.3,0.29
					c1.77-0.16,3.54-0.53,5.21-1.16c0.84-0.31,1.65-0.69,2.41-1.17c0.75-0.48,1.46-1.05,1.98-1.79c-0.23,0.39-0.52,0.74-0.83,1.07
					c-0.33,0.31-0.67,0.61-1.05,0.87c-0.74,0.53-1.55,0.96-2.38,1.32c-1.68,0.71-3.46,1.17-5.28,1.37
					c-1.81,0.21-3.67,0.16-5.48-0.19c-0.9-0.18-1.79-0.45-2.65-0.8c-0.86-0.35-1.67-0.82-2.42-1.34c-1.51-1.06-2.82-2.4-3.84-3.94
					c-1.01-1.54-1.77-3.23-2.26-4.99C13.74,26.54,13.69,22.8,14.47,19.28z"/>
				<path class="st9" d="M18.79,22.87c-0.04,1.46-0.03,2.93,0.15,4.37c0.17,1.44,0.49,2.86,1.05,4.18c0.56,1.32,1.36,2.53,2.35,3.55
					c0.98,1.04,2.14,1.91,3.37,2.65c1.22,0.73,2.58,1.23,3.98,1.51c1.4,0.29,2.85,0.36,4.28,0.24c1.43-0.13,2.85-0.47,4.17-1.05
					c1.32-0.58,2.54-1.43,3.45-2.58c-0.79,1.24-1.99,2.2-3.31,2.88c-1.32,0.68-2.78,1.09-4.25,1.28c-1.48,0.19-2.99,0.14-4.46-0.13
					c-1.47-0.28-2.9-0.8-4.2-1.56c-1.27-0.78-2.47-1.69-3.49-2.79c-1.01-1.1-1.84-2.39-2.37-3.79c-0.54-1.4-0.8-2.88-0.89-4.35
					C18.53,25.79,18.6,24.32,18.79,22.87z"/>
			</g>
		</g>
		<circle class="st3" cx="23.49" cy="21.98" r="1.08"/>
		<circle class="st7" cx="23.31" cy="21.73" r="0.54"/>
		<g>
			<path class="st10" d="M12.48,2.85c1.97,1.41,3.34,4.86,1.88,8.18c-0.56-3.82-4.28-2.35-6.4-4.82c-0.9-1.06-0.99-2.7,0.07-3.6
				C9.09,1.71,10.57,1.49,12.48,2.85z"/>
			<path class="st4" d="M12.31,3.08c2.04,1.48,2.99,4.52,2.03,7.97c0.06-4.42-3.36-3.52-4.88-5.18c-0.93-1.01-1-2.65,0.13-3.29
				C9.95,2.36,11.08,2.18,12.31,3.08z"/>
			<path class="st11" d="M12.12,3.54c1.37,0.85,2.02,2.4,2.16,4.27c-0.69-1.55-2.41-1.63-3.56-2.34c-0.81-0.5-0.86-1.46-0.26-1.96
				C10.65,3.36,11.12,2.92,12.12,3.54z"/>
			<g>
				<path class="st3" d="M14.07,10.78c-0.33-1.62-1.6-2.02-3.11-2.47C9.86,7.98,8.6,7.6,7.64,6.48C6.53,5.18,6.58,3.3,7.76,2.29
					c0.79-0.68,2.49-1.55,4.96,0.21c2.19,1.56,3.31,4.76,2.11,8.22c-0.07,0.21-0.31,0.76-0.48,0.76
					C14.18,11.49,14.11,10.96,14.07,10.78z M9.93,2.3C9.34,2.3,8.8,2.51,8.3,2.93C7.38,3.72,7.57,5.11,8.28,5.94
					c0.8,0.93,1.88,1.26,2.93,1.57c1.24,0.37,2.51,0.76,3.18,2.12c0.61-2.66-0.49-5.26-2.15-6.44l0,0C11.4,2.59,10.63,2.3,9.93,2.3z
					"/>
			</g>
		</g>
		<g>
			<path class="st10" d="M19.01,5.54c-1.63,0.52-3.31,2.54-3.06,5.1c1.21-2.45,3.4-0.64,5.36-1.85c0.84-0.51,1.25-1.6,0.74-2.44
				C21.54,5.52,20.59,5.04,19.01,5.54z"/>
			<path class="st4" d="M19.07,5.74c-1.69,0.55-3,2.39-3.11,4.92c0.92-2.99,3.03-1.64,4.42-2.42c0.85-0.48,1.25-1.56,0.63-2.24
				C20.82,5.77,20.09,5.4,19.07,5.74z"/>
			<path class="st11" d="M19.1,6.09c-1.11,0.28-1.89,1.17-2.39,2.41c0.8-0.89,1.98-0.57,2.91-0.8c0.65-0.16,0.9-0.79,0.6-1.26
				C20.13,6.29,19.91,5.89,19.1,6.09z"/>
			<g>
				<path class="st3" d="M15.85,11.24c-0.1,0-0.31-0.58-0.26-1.55c0.11-1.99,1.32-4,3.29-4.55l0,0c2.13-0.67,3.12,0.33,3.53,0.99
					c0.61,0.99,0.21,2.35-0.88,3.02c-0.92,0.56-1.87,0.54-2.7,0.53c-1.11-0.02-1.93-0.14-2.57,0.9C16.18,10.72,16,11.24,15.85,11.24
					z M19.14,5.94c-1.26,0.4-2.46,1.72-2.73,3.44c0.74-0.58,1.63-0.57,2.44-0.55c0.79,0.02,1.54,0.03,2.25-0.4
					c0.61-0.37,1-1.21,0.6-1.86C21.21,5.77,20.35,5.56,19.14,5.94L19.14,5.94z"/>
			</g>
		</g>
		<g>
			<path class="st3" d="M26.05,44.61c-0.09,0-0.18,0-0.27,0C15.46,44.47,7.1,35.95,7.15,25.62c0.01-1.27,0.12-2.51,0.35-3.7
				c0.94-4.94,3.68-8.07,7.94-9.03c4.07-0.92,8.51,0.28,11.31,3.06c2.43,2.42,4.05,5.87,5.12,10.88c0.8,3.78,2.4,5.61,4.89,5.61
				c1.15,0,2.28-0.52,3.09-1.43c0.55-0.61,0.88-1.34,0.93-2c-3.54,0.08-6.21-1.24-7.56-3.55c-0.82-1.4-0.96-3.23-0.42-5.14
				c0.47-1.66,1.31-2.73,1.84-3.21c0.14-0.13,0.3-0.26,0.39-0.27c0.15-0.02,0.2,0.39,0.28,0.74c0.03,0.12,0.07,0.26,0.13,0.42
				c0.25,0.64,0.73,1.3,2.37,2.4c0.96,0.65,2.29,1.6,2.83,2.81c0.04-3.47,2.21-5.36,2.48-5.32c0.29,0.05,1.83,3.53,1.83,7.81
				c0,5.1-2,9.88-5.63,13.46C35.75,42.68,31.05,44.61,26.05,44.61z M18.21,13.42c-0.87,0-1.74,0.09-2.59,0.29
				c-4.94,1.12-6.7,5.17-7.3,8.37c-0.22,1.14-0.33,2.33-0.33,3.55c-0.05,9.87,7.94,18.01,17.81,18.15c4.88,0.07,9.47-1.78,12.94-5.2
				c3.47-3.42,5.38-7.99,5.38-12.86c0-2.31-0.33-4.72-1.18-6.84c-0.74,0.83-1.91,2.78-1.37,6.07c0.14,0.84,0.1,1.37,0.01,1.47
				c-0.15,0.17-0.18-0.33-0.76-1.53c-0.86-1.8-1.84-2.79-3.29-3.82c-1.06-0.75-2.48-1.57-2.81-3.04c-1.52,2.17-1.82,5.08-0.76,7.02
				c1.17,2.15,3.79,3.28,7.19,3.1c0.01,0,0.01,0,0.02,0l0.02,0c0,0,0,0,0,0c0.21,0,0.39,0.16,0.42,0.37
				c0.11,1.01-0.3,2.12-1.13,3.04c-0.97,1.09-2.33,1.71-3.72,1.71c-2.9,0-4.83-2.11-5.71-6.28c-1.03-4.84-2.58-8.16-4.89-10.46
				C24.14,14.54,21.2,13.42,18.21,13.42z"/>
		</g>
		<g>
			<path class="st10" d="M24.59,31.68c0,0-0.74,9.91,1.54,9.92c1.68,0.01,3.95-3.45,4.61-5.32c0,0-0.62,0.67-0.88,0.84
				c-0.73-0.37-3.04-1.59-4.31-3.64C25.08,32.72,24.59,31.68,24.59,31.68z"/>
			<path class="st4" d="M24.59,31.68c0,0,0.41,7.58,1.84,8.21c1.2,0.53,4.24-3.5,4.24-3.5"/>
			<path class="st3" d="M24.59,31.68c0.21,0,0.24,2.89,0.31,4.35c0.12,2.46,0.3,4.36,0.82,4.93c0.59,0.65,1.87-0.23,2.78-1.19
				c1.57-1.65,2.15-3.77,2.33-3.67c0.18,0.1-0.45,1.99-1.32,3.37c-0.87,1.38-2.06,2.55-3.25,2.55c-0.6,0-0.97-0.32-1.24-0.71
				c-0.6-0.88-0.79-2.58-0.75-5.13C24.31,34.66,24.45,31.68,24.59,31.68z"/>
		</g>
		<path class="st3" d="M24.34,28.47c-0.62,0-1.23-0.18-1.7-0.47c-0.88-0.54-1.52-1.37-2.08-2.18c-0.28-0.4-0.56-0.82-0.82-1.23
			c-1.09-1.66-2.22-3.38-3.96-4.4c-1.5-0.88-3.39-1-4.93-0.32c-1.23,0.54-2.38,1.98-2.8,3.49c-0.05,0.19-0.25,0.3-0.44,0.25
			c-0.19-0.05-0.3-0.25-0.25-0.44c0.47-1.71,1.78-3.33,3.2-3.96c1.75-0.77,3.89-0.63,5.58,0.36c1.88,1.1,3.06,2.9,4.19,4.63
			c0.26,0.4,0.54,0.82,0.81,1.21c0.52,0.75,1.1,1.5,1.87,1.97c0.68,0.42,1.82,0.55,2.59-0.04c0.16-0.12,0.38-0.09,0.5,0.07
			c0.12,0.16,0.09,0.38-0.07,0.5C25.54,28.31,24.93,28.47,24.34,28.47z"/>
		<path class="st3" d="M25.31,26.86c0.05-0.02,0.11-0.04,0.18-0.05c0.06,0,0.13,0,0.19,0.01c0.13,0.03,0.26,0.1,0.36,0.2
			c0.2,0.2,0.29,0.47,0.31,0.72c0.02,0.25-0.03,0.5-0.12,0.72c-0.1,0.22-0.24,0.43-0.45,0.56c0.03-0.24,0.05-0.45,0.06-0.65
			c0.01-0.2,0.02-0.4,0-0.59c-0.01-0.19-0.05-0.36-0.11-0.51C25.66,27.1,25.54,26.96,25.31,26.86z"/>
	</g>
	<g id="XMLID_74_">
		<g id="XMLID_75_">
			<path id="XMLID_78_" class="st12" d="M28.2,25.58c0,0,2.09-5.75-0.77-9.22c-3.46-4.21-9.87-3.24-9.87-3.24s-0.15-0.85,3.71-1.11
				c1.89-0.13,6.27,0.32,8.52,3.54c2.68,3.84,1.04,9.16,1.04,9.16L28.2,25.58z"/>
			<path class="st3" d="M27.84,26.05L28,25.61c0.02-0.06,2.02-5.67-0.73-9.01c-3.33-4.05-9.58-3.17-9.64-3.16l-0.24,0.04l-0.04-0.22
				c-0.01-0.04-0.02-0.2,0.14-0.4c0.43-0.51,1.71-0.84,3.79-0.98c2.2-0.15,6.52,0.45,8.74,3.64c2.71,3.88,1.14,9.13,1.07,9.35
				l-0.04,0.12L27.84,26.05z M18.17,12.92c1.72-0.12,6.61-0.1,9.48,3.39c2.48,3.01,1.38,7.57,0.95,9l2.06-0.68
				c0.21-0.79,1.32-5.46-1.05-8.86c-2.1-3.01-6.21-3.58-8.3-3.44C19.44,12.45,18.57,12.72,18.17,12.92z"/>
			<path id="XMLID_77_" class="st2" d="M27.7,26.72c0.99-2.09,3.04-3.28,4.59-2.64c1.55,0.64,2,2.85,1.02,4.95
				c-0.99,2.09-3.04,3.28-4.59,2.64C27.17,31.03,26.72,28.81,27.7,26.72z"/>
			<path id="XMLID_76_" class="st12" d="M29.71,27.54c0.88-1.87,2.41-3.05,3.41-2.63c1,0.41,1.11,2.26,0.23,4.13
				c-0.88,1.87-2.41,3.05-3.41,2.63C28.93,31.26,28.83,29.41,29.71,27.54z"/>
			<g>
				<path class="st13" d="M33.02,25.12c-0.16-0.06-0.34-0.08-0.53-0.04c-0.3,0.05-0.63,0.21-0.97,0.47
					c-0.61,0.48-1.18,1.22-1.59,2.09c-0.81,1.72-0.76,3.47,0.1,3.83c0.07,0.03,0.15,0.05,0.23,0.05c0.28-0.07,0.56-0.19,0.84-0.35
					c0.82-0.47,1.53-1.27,1.99-2.24c0.46-0.97,0.61-1.99,0.42-2.88c-0.06-0.3-0.16-0.57-0.29-0.81
					C33.16,25.19,33.09,25.15,33.02,25.12z"/>
				<path class="st13" d="M32.19,24.29c-0.38-0.16-0.8-0.19-1.22-0.12c-1.16,0.2-2.36,1.19-3.05,2.64
					c-0.46,0.97-0.61,1.99-0.42,2.88c0.18,0.86,0.64,1.48,1.32,1.76c0.19,0.08,0.38,0.12,0.59,0.14c-0.74-0.74-0.73-2.42,0.08-4.14
					c0.44-0.94,1.05-1.74,1.73-2.26c0.51-0.4,1.02-0.6,1.48-0.6C32.54,24.47,32.38,24.37,32.19,24.29z"/>
				<path class="st3" d="M29.41,31.59c-0.2-0.02-0.4-0.06-0.59-0.14c-0.67-0.28-1.14-0.9-1.32-1.76c-0.18-0.89-0.03-1.91,0.42-2.88
					c0.68-1.45,1.89-2.44,3.05-2.64c0.42-0.07,0.84-0.04,1.22,0.12c0.19,0.08,0.35,0.18,0.51,0.31c0.18,0,0.36,0.03,0.52,0.1
					c0.15,0.06,0.28,0.15,0.4,0.26c-0.29-0.5-0.71-0.87-1.23-1.09c-1.67-0.69-3.87,0.55-4.91,2.76c-0.5,1.06-0.66,2.18-0.46,3.16
					c0.21,1.01,0.78,1.75,1.6,2.09c0.46,0.19,0.97,0.24,1.49,0.15c0.06-0.01,0.12-0.03,0.19-0.04c-0.16-0.01-0.32-0.04-0.47-0.1
					C29.67,31.82,29.53,31.72,29.41,31.59z"/>
				<path class="st3" d="M31.21,25.19c-0.67,0.52-1.29,1.32-1.73,2.26c-0.81,1.73-0.81,3.4-0.08,4.14c0.27,0.03,0.56,0,0.85-0.08
					c-0.08-0.01-0.16-0.02-0.23-0.05c-0.86-0.36-0.91-2.11-0.1-3.83c0.41-0.87,0.97-1.61,1.59-2.09c0.34-0.26,0.67-0.42,0.97-0.47
					c0.2-0.03,0.38-0.02,0.53,0.04c0.07,0.03,0.14,0.07,0.2,0.12c-0.14-0.26-0.31-0.47-0.52-0.64
					C32.24,24.59,31.73,24.8,31.21,25.19z"/>
				<path class="st3" d="M33.53,29.12c0.5-1.06,0.66-2.18,0.46-3.16c-0.08-0.37-0.2-0.71-0.37-1c-0.12-0.11-0.25-0.2-0.4-0.26
					c-0.16-0.07-0.34-0.1-0.52-0.1c0.21,0.17,0.38,0.39,0.52,0.64c0.67,0.53,0.65,2.13-0.09,3.71c-0.74,1.58-1.99,2.67-2.86,2.57
					c-0.29,0.08-0.58,0.1-0.85,0.08c0.12,0.12,0.26,0.22,0.43,0.29c0.15,0.06,0.3,0.09,0.47,0.1c0.35-0.08,0.7-0.22,1.05-0.42
					C32.26,31.04,33.03,30.17,33.53,29.12z"/>
			</g>
		</g>
	</g>
	<path class="st14" d="M11.82,31.49c-0.57,0-1.06,0.2-1.31,0.49C9.9,31.82,9.06,31.5,8.26,30.8c-1.4-1.22-1.57-2.7-1.58-3.26
		c-0.03-0.01-0.05-0.01-0.08-0.02c-0.16-0.05-0.3-0.11-0.44-0.18c-0.03,0.47,0,2.33,1.76,3.86c0.87,0.75,1.77,1.11,2.45,1.28
		c0.08,0.45,0.7,0.8,1.46,0.8c0.81,0,1.47-0.4,1.47-0.89C13.29,31.89,12.63,31.49,11.82,31.49z"/>
	<g>
		<path class="st15" d="M11.97,32.95c-0.8,0-1.46-0.38-1.57-0.88c-0.05,0.1-0.08,0.21-0.08,0.32c0,0.56,0.71,1.02,1.59,1.02
			s1.59-0.45,1.59-1.02c0-0.05-0.01-0.09-0.02-0.14C13.27,32.66,12.67,32.95,11.97,32.95z"/>
		<path class="st12" d="M11.97,32.95c0.7,0,1.3-0.29,1.51-0.7c-0.11-0.5-0.77-0.88-1.57-0.88c-0.7,0-1.3,0.29-1.51,0.7
			C10.51,32.57,11.17,32.95,11.97,32.95z"/>
	</g>
</g>
</svg>
