<svg width="386" height="236" viewBox="0 0 386 236" fill="none" xmlns="http://www.w3.org/2000/svg">
<path d="M193 235C176.872 235 161.448 228.131 150.653 216.099L13.4587 76.856C0.615988 62.8187 -2.45601 44.088 4.90399 27.4053C12.264 10.7227 28.1573 0.333328 46.376 0.333328H339.624C357.843 0.333328 373.757 10.7013 381.096 27.4053C388.435 44.1093 385.363 62.8187 373.075 76.28L234.685 216.845C224.552 228.131 209.128 235.021 193 235.021V235ZM46.376 43C45.8213 43 44.648 43 43.944 44.5787C43.24 46.1787 44.0293 47.0533 44.4133 47.48L181.736 186.872C186.088 191.715 190.632 192.333 193 192.333C195.368 192.333 199.912 191.715 203.603 187.597L342.12 46.8827C342.12 46.8827 343.357 47.5227 342.056 44.5787C341.352 43 340.179 43 339.624 43H46.376Z" fill="#38C087"/>
</svg>
