<svg width="139" height="139" viewBox="0 0 139 139" fill="none" xmlns="http://www.w3.org/2000/svg">
<rect x="10.2758" y="26.3746" width="117.487" height="85.6318" fill="#45C789"/>
<path fill-rule="evenodd" clip-rule="evenodd" d="M29.4005 0.396372C15.4699 2.95231 4.44669 13.2165 0.743968 27.0799C0.000684024 29.8629 0 29.8989 0 69.5985V109.332L0.953594 112.414C2.96697 118.923 5.82193 123.771 10.2487 128.198C15.7271 133.676 22.3715 137.125 29.6286 138.257C31.5087 138.55 42.5316 138.629 70.7318 138.551L109.266 138.444L111.956 137.679C115.255 136.742 120.255 134.406 123.181 132.436C125.982 130.549 130.484 126.048 132.371 123.246C134.408 120.221 136.64 115.365 137.586 111.901L138.381 108.989V69.4272C138.381 29.9037 138.38 29.8626 137.637 27.0799C136.54 22.974 135.001 19.5241 132.719 16.0605C127.793 8.58448 120.26 3.21948 111.321 0.821447C108.604 0.0925497 108.26 0.0856946 70.218 0.0161616C39.7509 -0.0393277 31.3498 0.0387738 29.4005 0.396372ZM51.6627 43.6668C54.8331 49.0749 58.0929 54.7236 58.9064 56.219L60.3861 58.9383L62.6797 54.3351C63.9409 51.8035 67.0007 46.1487 69.4792 41.7692L73.9858 33.8065L94.4518 33.8054L114.918 33.8044V42.0251C114.918 48.3793 114.821 50.2433 114.49 50.2347C114.254 50.2286 108.05 49.4709 100.703 48.5512C93.3557 47.6315 87.2454 46.9814 87.1248 47.1068C87.0039 47.2318 83.504 52.1012 79.3474 57.9276L71.7902 68.5209L72.9261 70.0873C73.5508 70.9487 77.2638 76.1236 81.1769 81.5869C85.0899 87.0502 88.3096 91.538 88.3319 91.5596C88.3538 91.5812 94.1521 90.8543 101.217 89.9442C108.281 89.0341 114.254 88.2844 114.49 88.2778C114.821 88.2689 114.918 90.1323 114.918 96.4868V104.707L94.9656 104.7L75.0134 104.693L68.7911 94.6814C65.3685 89.1749 61.8234 83.402 60.913 81.8524C60.0022 80.3028 59.1763 79.031 59.0777 79.0265C58.9787 79.0217 58.1758 80.4439 57.2928 82.1863C56.4098 83.9288 53.2462 89.6706 50.2621 94.9455L44.8364 104.536L33.6094 104.627L22.3821 104.717L23.1795 103.614C23.6179 103.007 29.3207 94.9575 35.852 85.7257L47.7267 68.9408L47.1197 68.0708C46.7861 67.5923 41.3269 59.7724 34.9881 50.6934C28.6493 41.614 23.4631 34.1 23.4631 33.9952C23.4631 33.8904 28.5113 33.8109 34.6809 33.8191L45.8986 33.8335L51.6627 43.6668ZM113.931 65.2497L116.25 68.4366L114.18 71.3296L112.111 74.2226H99.3853H86.6593L84.673 71.3104C83.3899 69.4286 82.7836 68.24 82.9604 67.9506C83.1111 67.7043 84.1486 66.2386 85.2666 64.6931L87.2992 61.8831L99.4558 61.9731L111.612 62.0629L113.931 65.2497Z" fill="#140047"/>
</svg>
