<svg width="2475" height="615" viewBox="0 0 2475 615" fill="none" xmlns="http://www.w3.org/2000/svg">
<path d="M8 0.948679L59.28 74.9487L164.02 224.949L203.86 281.949L217.71 303.949L202 327.949L159.424 387.949L57.579 531.949L0 613.949H144H182C186.18 613.949 193.77 615.399 197.37 612.919C205.96 606.989 211.98 588.009 217.15 578.949C234.01 549.389 250.21 519.459 267.15 489.949C278.97 469.369 291.14 448.949 302.22 427.949C305.4 421.919 313.59 410.869 313.1 403.949C312.72 398.629 306.93 392.369 304.19 387.949L281.81 351.949C254.3 307.569 226.79 263.179 199.05 218.949C166.31 166.739 134.002 114.259 101.424 61.9487C92.501 47.6187 83.679 33.2287 74.681 18.9487C71.531 13.9487 68.08 4.97871 62.815 1.97871C58.706 -0.371292 51.579 0.948679 47 0.948679H8Z" fill="#2FBC85"/>
<path d="M63 0.94873C82.715 36.4987 106.084 70.4387 127.576 104.949C166.38 167.249 205.15 229.569 243.81 291.949C259.94 317.979 276.57 343.729 292.4 369.949C298.05 379.319 305.34 397.649 315 402.949L319 392.949H320L356.58 454.949L420.95 557.949L446.32 598.949L457.1 613.349L473 613.949H507H626L596.42 564.949L536.05 467.949L352 171.949C343.94 181.669 334.21 201.529 332 213.949L320.69 195.949L299.69 157.949L235.8 49.9487L215.6 15.9487L206.47 1.97876L195 0.94873H167H63Z" fill="#3AC288"/>
<path d="M430 298.949H432L526.71 165.949L551.71 130.949L563.09 117.259L582 118.529L624 123.779L742 138.109L801 144.949V0.948786H544H475C467.74 0.948786 453.57 -1.76118 447.21 1.97882C440.66 5.83882 435.98 19.4488 432.28 25.9488C420.88 45.9888 409.28 65.9188 397.85 85.9488C385.96 106.779 374.11 127.569 363.24 148.949C360.08 155.179 351.27 165.639 352.75 172.949C355.12 184.589 367.65 197.819 373.8 207.949C392.22 238.289 413.32 267.619 430 298.949Z" fill="#44C68A"/>
<path d="M1654 106.949V508.949C1709.55 511.339 1763.3 517.769 1819 511.109C1849.46 507.459 1880.99 500.629 1907 483.609C1954.56 452.479 1974.02 382.799 1941.25 333.949C1926.12 311.389 1902.77 297.259 1877 289.949C1897.76 278.879 1916.82 269.509 1930.14 248.949C1961.13 201.119 1935.51 140.319 1887 117.269C1861.56 105.179 1834.72 101.759 1807 99.8588C1755.44 96.3288 1705.2 102.909 1654 106.949ZM934 101.949L963.58 154.949L1014.85 245.949L1037.42 285.949L1046.54 303.529L1038.72 318.949L1015.85 358.949L958.15 459.949L930 509.949H1005L1035.61 509.349L1041.26 499.949L1054.31 470.949L1102 363.949C1117.12 400.259 1137.17 434.789 1154.75 469.949L1168.75 497.949C1170.45 501.329 1172.06 506.799 1175.39 508.919C1181.72 512.959 1197.59 509.949 1205 509.949H1282C1276.82 492.339 1262.63 474.819 1253.42 458.949C1233.9 425.309 1214.69 391.489 1194.99 357.949C1186.98 344.319 1178.99 330.679 1171.15 316.949C1168.72 312.699 1162.94 306.009 1163.2 300.949C1163.47 295.669 1168.99 289.399 1171.58 284.949C1178.33 273.309 1185.07 261.649 1191.72 249.949C1210.74 216.499 1230.11 183.229 1249.42 149.949C1258.1 135.009 1271.2 118.569 1276 101.949H1202C1193.65 101.949 1178.88 99.0787 1171.27 102.549C1168.08 104.009 1166.7 109.019 1165.25 111.949C1161.18 120.169 1157.73 128.689 1153.74 136.949C1137.3 171.019 1117.99 207.329 1108 243.949C1091.81 209.329 1076.85 174.159 1059.75 139.949C1055.45 131.339 1051.55 122.549 1047.25 113.949C1045.55 110.559 1043.94 105.099 1040.61 102.979C1034.28 98.9388 1018.41 101.949 1011 101.949H934ZM1332 101.949V509.949H1592V433.949H1424V337.949H1574V261.949H1424V178.949H1583V101.949H1332ZM2020 101.949V509.949H2112V101.949H2020ZM2160 101.949V179.949H2270V509.949H2363V179.949H2475V101.949H2160Z" fill="white"/>
<path d="M1746 168.949V262.949C1774.18 262.949 1806.44 266.649 1831 249.729C1858.22 230.979 1854.9 188.259 1825 174.269C1799.92 162.539 1772.35 168.409 1746 168.949Z" fill="black"/>
<path d="M519 298.949V299.949L544.14 334.949L556.09 349.919L581 350.949H642V240.949H584L561.46 241.979L548.15 258.949L519 298.949Z" fill="#2FBC85"/>
<path d="M642 240.949V350.949H744V240.949H642Z" fill="#3AC288"/>
<path d="M744 240.949V350.949C752.81 350.949 766.7 353.609 774.91 350.349C779.08 348.689 781.66 343.419 784.14 339.949L803.42 312.949C805.99 309.359 810.96 304.529 811.34 299.949C811.91 293.199 801.19 283.159 797.42 277.949L778.58 251.949C776.24 248.709 773.47 243.229 769.68 241.549C763.07 238.639 751.18 240.949 744 240.949ZM438 310.949L439 311.949L438 310.949ZM440 313.949L441 314.949L440 313.949ZM442 316.949L443 317.949L442 316.949ZM443.33 318.619L443.67 319.279L443.33 318.619ZM444 319.949L445 320.949L444 319.949ZM445.33 321.619L445.67 322.279L445.33 321.619ZM446 322.949L447 323.949L446 322.949ZM447 323.949L463.32 351.949L491.32 396.949L580.95 540.949L613.2 592.949L627.33 613.349L643 613.949H678H801V467.949L634 489.109L589 494.899L572.3 495.879L561.29 481.949L538.29 449.949L475.88 362.949L447 323.949Z" fill="#44C68A"/>
<path d="M1746 329.949V443.949C1773.32 449.019 1812.23 447.389 1836 431.849C1864.79 413.019 1867.25 369.139 1841 347.279C1815.73 326.229 1776.6 329.949 1746 329.949Z" fill="black"/>
</svg>
