<?xml version="1.0" encoding="utf-8"?>
<!-- Generator: Adobe Illustrator 23.0.3, SVG Export Plug-In . SVG Version: 6.00 Build 0)  -->
<svg version="1.1" id="圖層_1" xmlns="http://www.w3.org/2000/svg" xmlns:xlink="http://www.w3.org/1999/xlink" x="0px" y="0px"
	 viewBox="0 0 50 50" style="enable-background:new 0 0 50 50;" xml:space="preserve">
<style type="text/css">
	.st0{fill:url(#SVGID_1_);}
	.st1{fill:url(#SVGID_2_);}
	.st2{fill:url(#SVGID_3_);}
	.st3{fill:url(#SVGID_4_);}
	.st4{fill:#65E9B9;}
	.st5{fill:#323644;}
	.st6{fill:url(#SVGID_5_);}
	.st7{fill:url(#SVGID_6_);}
	.st8{fill:url(#SVGID_7_);}
	.st9{fill:url(#SVGID_8_);}
	.st10{fill:url(#SVGID_9_);}
	.st11{fill:url(#SVGID_10_);}
	.st12{fill:url(#SVGID_11_);}
	.st13{fill:url(#SVGID_12_);}
	.st14{fill:url(#SVGID_13_);}
	.st15{fill:url(#SVGID_14_);}
	.st16{fill:url(#SVGID_15_);}
	.st17{fill:url(#SVGID_16_);}
	.st18{fill:#E66600;}
	.st19{fill:#FFBA00;}
	.st20{fill:#FDE09C;}
	.st21{fill:#04A586;}
	.st22{fill:url(#SVGID_17_);}
	.st23{fill:#424242;}
	.st24{fill:#707070;}
	.st25{fill:url(#SVGID_18_);}
	.st26{fill:url(#SVGID_19_);}
	.st27{fill:url(#SVGID_20_);}
	.st28{fill:url(#SVGID_21_);}
	.st29{fill:url(#SVGID_22_);}
	.st30{fill:url(#SVGID_23_);}
	.st31{fill:url(#SVGID_24_);}
	.st32{fill:url(#SVGID_25_);}
	.st33{fill:url(#SVGID_28_);}
	.st34{fill:url(#SVGID_29_);}
	.st35{fill:url(#SVGID_30_);}
	.st36{fill:url(#SVGID_31_);}
	.st37{fill:url(#SVGID_32_);}
	.st38{fill:#FFFFFF;}
	.st39{fill:url(#SVGID_33_);}
	.st40{fill:none;stroke:#444444;stroke-width:5;stroke-linecap:round;stroke-linejoin:round;stroke-miterlimit:10;}
	.st41{fill:url(#SVGID_34_);}
	.st42{opacity:0.58;fill:url(#SVGID_35_);}
	.st43{fill:none;stroke:#FFFFFF;stroke-width:1.2361;stroke-linecap:round;stroke-miterlimit:10;}
	.st44{fill:url(#SVGID_36_);}
	.st45{opacity:0.58;fill:url(#SVGID_37_);}
	.st46{fill:none;stroke:#FFFFFF;stroke-miterlimit:10;}
	.st47{fill:url(#SVGID_38_);}
	.st48{opacity:0.58;fill:url(#SVGID_39_);}
	.st49{fill:none;}
</style>
<g>
	<circle class="st38" cx="24.25" cy="24.69" r="23.22"/>
	<g>
		<path class="st21" d="M25.41,25c-0.23-0.3-0.65-0.35-0.95-0.12l-7.33,5.63c-0.3,0.23-0.35,0.65-0.12,0.95
			c0.23,0.3,0.65,0.35,0.95,0.12l7.33-5.63C25.58,25.72,25.64,25.29,25.41,25z"/>
		<path class="st21" d="M24.48,28.2l-4.34,3.33c-0.3,0.23-0.35,0.65-0.12,0.95c0.23,0.3,0.65,0.35,0.95,0.12l4.34-3.33
			c0.3-0.23,0.35-0.65,0.12-0.95C25.2,28.03,24.77,27.98,24.48,28.2z"/>
		<g>
			<polygon class="st49" points="30.66,14.98 34.84,14.98 30.66,10.8 			"/>
			<path d="M36.94,15.17l-6.48-6.48c-0.13-0.13-0.3-0.2-0.48-0.2H13.62c-0.37,0-0.68,0.3-0.68,0.68v7.53l1.35-0.15v-6.7h15.02v5.81
				c0,0.37,0.3,0.68,0.68,0.68h5.81v23.2h-21.5v-5.29l-1.31-1.72l-0.04,0v7.69c0,0.37,0.3,0.68,0.68,0.68h22.85
				c0.37,0,0.68-0.3,0.68-0.68V15.65C37.14,15.47,37.07,15.3,36.94,15.17z M30.66,14.98V10.8l4.18,4.18H30.66z"/>
			<path class="st21" d="M14.29,34.24v-0.08l3.5,4.32c0.23,0.29,0.66,0.33,0.95,0.1l13.25-10.73c0.14-0.11,0.23-0.28,0.25-0.45
				c0.02-0.18-0.03-0.36-0.15-0.5L21.36,13.65c-0.24-0.29-0.66-0.33-0.95-0.1l-4.61,3.74c-0.41-0.4-0.95-0.62-1.5-0.68v-0.07
				l-1.35,0.15v0.09c-0.3,0.12-0.58,0.3-0.82,0.54c-0.85,0.85-1.03,2.19-0.37,3.24l-4.59,3.72c-0.29,0.23-0.33,0.66-0.1,0.95
				l5.88,7.26v0.02l0.04,0L14.29,34.24z M13.08,18.28c0.45-0.45,1.15-0.49,1.65-0.12l-1.91,1.55C12.59,19.2,12.71,18.65,13.08,18.28
				z M8.53,24.91l7.17-5.81l4.48,4.48c0.12,0.12,0.12,0.32,0,0.45c-0.12,0.12-0.32,0.12-0.45,0l-3.8-3.8
				c-0.26-0.26-0.69-0.26-0.95,0c-0.26,0.26-0.26,0.69,0,0.95l3.8,3.8c0.65,0.65,1.71,0.65,2.36,0c0.65-0.65,0.65-1.71,0-2.36
				l-4.38-4.38l3.98-3.22l9.88,12.2l-12.2,9.88L8.53,24.91z"/>
		</g>
	</g>
</g>
</svg>
