<?xml version="1.0" encoding="utf-8"?>
<!-- Generator: Adobe Illustrator 23.0.3, SVG Export Plug-In . SVG Version: 6.00 Build 0)  -->
<svg version="1.1" id="圖層_1" xmlns="http://www.w3.org/2000/svg" xmlns:xlink="http://www.w3.org/1999/xlink" x="0px" y="0px"
	 viewBox="0 0 50 50" style="enable-background:new 0 0 50 50;" xml:space="preserve">
<style type="text/css">
	.st0{fill:url(#SVGID_1_);}
	.st1{fill:url(#SVGID_2_);}
	.st2{fill:url(#SVGID_3_);}
	.st3{fill:url(#SVGID_4_);}
	.st4{fill:#65E9B9;}
	.st5{fill:#323644;}
	.st6{fill:url(#SVGID_5_);}
	.st7{fill:url(#SVGID_6_);}
	.st8{fill:url(#SVGID_7_);}
	.st9{fill:url(#SVGID_8_);}
	.st10{fill:url(#SVGID_9_);}
	.st11{fill:url(#SVGID_10_);}
	.st12{fill:url(#SVGID_11_);}
	.st13{fill:url(#SVGID_12_);}
	.st14{fill:url(#SVGID_13_);}
	.st15{fill:url(#SVGID_14_);}
	.st16{fill:url(#SVGID_15_);}
	.st17{fill:url(#SVGID_16_);}
	.st18{fill:#E66600;}
	.st19{fill:#FFBA00;}
	.st20{fill:#FDE09C;}
	.st21{fill:#04A586;}
	.st22{fill:url(#SVGID_17_);}
	.st23{fill:#424242;}
	.st24{fill:#707070;}
	.st25{fill:url(#SVGID_18_);}
	.st26{fill:url(#SVGID_19_);}
	.st27{fill:url(#SVGID_20_);}
	.st28{fill:url(#SVGID_21_);}
	.st29{fill:url(#SVGID_22_);}
	.st30{fill:url(#SVGID_23_);}
	.st31{fill:url(#SVGID_24_);}
	.st32{fill:url(#SVGID_25_);}
	.st33{fill:url(#SVGID_28_);}
	.st34{fill:url(#SVGID_29_);}
	.st35{fill:url(#SVGID_30_);}
	.st36{fill:url(#SVGID_31_);}
	.st37{fill:url(#SVGID_32_);}
	.st38{fill:#FFFFFF;}
	.st39{fill:url(#SVGID_33_);}
	.st40{fill:none;stroke:#444444;stroke-width:5;stroke-linecap:round;stroke-linejoin:round;stroke-miterlimit:10;}
	.st41{fill:url(#SVGID_34_);}
	.st42{opacity:0.58;fill:url(#SVGID_35_);}
	.st43{fill:none;stroke:#FFFFFF;stroke-width:1.2361;stroke-linecap:round;stroke-miterlimit:10;}
	.st44{fill:url(#SVGID_36_);}
	.st45{opacity:0.58;fill:url(#SVGID_37_);}
	.st46{fill:none;stroke:#FFFFFF;stroke-miterlimit:10;}
	.st47{fill:url(#SVGID_38_);}
	.st48{opacity:0.58;fill:url(#SVGID_39_);}
	.st49{fill:none;}
</style>
<g>
	<circle class="st38" cx="24.61" cy="24.69" r="23.22"/>
	<g>
		<path d="M21.02,15.43c-0.13,0-0.25-0.05-0.35-0.14l-2.68-2.68c-0.19-0.19-0.19-0.5,0-0.69l1.73-1.74c0.18-0.18,0.51-0.18,0.69,0
			l2.68,2.68c0.09,0.09,0.14,0.22,0.14,0.35c0,0.13-0.05,0.25-0.14,0.35l-1.74,1.74C21.27,15.38,21.15,15.43,21.02,15.43z
			 M19.03,12.26l1.99,1.99l1.04-1.04l-1.99-1.99L19.03,12.26z"/>
		<path d="M12.98,26.92c-0.19,0-0.37-0.11-0.45-0.29c-2.48-5.67,0.12-9.95,3.39-12.05c0.71-0.46,1.41-1.03,2.09-1.71l0.46-0.46
			c0.18-0.18,0.51-0.18,0.69,0l1.61,1.61c0.17,0.17,0.19,0.43,0.06,0.62l-1.28,1.86c-0.21,0.3-0.17,0.71,0.09,0.97l1.92,1.92
			c0.19,0.19,0.19,0.5,0,0.69l-3.23,3.23c-0.19,0.19-0.5,0.19-0.69,0l-1.98-1.98c-0.18-0.18-0.39-0.25-0.6-0.22
			c-0.26,0.04-0.5,0.23-0.66,0.53c-0.84,1.56-0.93,4.77-0.93,4.8c-0.01,0.23-0.17,0.43-0.4,0.47
			C13.05,26.91,13.01,26.92,12.98,26.92z M18.82,13.43l-0.11,0.11c-0.73,0.73-1.49,1.35-2.25,1.84c-1.25,0.81-4.82,3.6-3.74,8.64
			c0.15-0.99,0.4-2.08,0.83-2.87c0.31-0.57,0.81-0.95,1.38-1.04c0.52-0.08,1.05,0.11,1.44,0.5l1.63,1.63l2.54-2.54l-1.57-1.57
			c-0.59-0.59-0.68-1.53-0.2-2.22l1.05-1.52L18.82,13.43z"/>
		<path d="M21.08,25.6c-0.13,0-0.25-0.05-0.35-0.14l-2.62-2.62c-0.19-0.19-0.19-0.5,0-0.69l2.38-2.38c0.18-0.18,0.51-0.18,0.69,0
			l2.62,2.62c0.19,0.19,0.19,0.5,0,0.69l-2.38,2.38C21.34,25.55,21.21,25.6,21.08,25.6z M19.15,22.49l1.93,1.93l1.69-1.69
			l-1.93-1.93L19.15,22.49z"/>
		<path d="M35.51,39.33c-0.58,0-1.13-0.23-1.54-0.64L23.84,28.56c-0.09-0.09-0.14-0.22-0.14-0.35s0.05-0.25,0.14-0.35l2.38-2.38
			c0.19-0.19,0.5-0.19,0.69,0l10.13,10.13c0.85,0.85,0.85,2.23,0,3.08C36.64,39.11,36.1,39.33,35.51,39.33z M24.88,28.22L34.67,38
			c0.47,0.47,1.22,0.47,1.69,0c0.47-0.47,0.47-1.22,0-1.69l-9.79-9.79L24.88,28.22z"/>
		<path d="M26.67,31.19c-0.13,0-0.25-0.05-0.35-0.14c-0.19-0.19-0.19-0.5,0-0.69l2.38-2.38c0.19-0.19,0.5-0.19,0.69,0
			c0.19,0.19,0.19,0.5,0,0.69l-2.38,2.38C26.92,31.14,26.79,31.19,26.67,31.19z"/>
		<path class="st21" d="M15.91,39.3c-0.49,0-0.99-0.06-1.48-0.19c-0.17-0.04-0.3-0.18-0.35-0.35c-0.05-0.17,0-0.35,0.13-0.48
			l1.73-1.73c0.43-0.43,0.66-1,0.66-1.6c0-0.61-0.24-1.17-0.66-1.6c-0.88-0.88-2.32-0.88-3.2,0l-1.73,1.73
			c-0.12,0.12-0.31,0.17-0.48,0.13c-0.17-0.05-0.3-0.18-0.35-0.35c-0.52-2.03,0.07-4.2,1.54-5.68c1.58-1.58,3.91-2.13,6.03-1.44
			l9.92-9.92c-0.69-2.11-0.14-4.45,1.44-6.03c1.47-1.47,3.65-2.06,5.68-1.54c0.17,0.04,0.3,0.18,0.35,0.35
			c0.05,0.17,0,0.35-0.13,0.48l-1.73,1.73c-0.43,0.43-0.66,1-0.66,1.6s0.24,1.17,0.66,1.6c0.88,0.88,2.32,0.88,3.2,0l1.73-1.73
			c0.12-0.12,0.31-0.17,0.48-0.13c0.17,0.05,0.3,0.18,0.35,0.35c0.52,2.03-0.07,4.2-1.54,5.68c-1.58,1.58-3.91,2.13-6.03,1.44
			l-9.92,9.92c0.69,2.11,0.14,4.45-1.44,6.03C18.99,38.69,17.47,39.3,15.91,39.3z M15.58,38.31c1.42,0.1,2.82-0.42,3.84-1.43
			c1.38-1.38,1.82-3.46,1.11-5.28c-0.07-0.18-0.03-0.39,0.11-0.52L31,20.71c0.14-0.14,0.34-0.18,0.52-0.11
			c1.83,0.71,3.9,0.27,5.28-1.11c1.01-1.01,1.53-2.42,1.43-3.84l-1.05,1.05c-1.27,1.27-3.33,1.27-4.59,0
			c-0.61-0.61-0.95-1.43-0.95-2.3c0-0.87,0.34-1.68,0.95-2.3l1.05-1.05c-1.41-0.09-2.82,0.42-3.84,1.43
			c-1.38,1.38-1.82,3.46-1.11,5.28c0.07,0.18,0.03,0.39-0.11,0.52L18.23,28.66c-0.14,0.14-0.34,0.18-0.52,0.11
			c-1.83-0.7-3.9-0.27-5.28,1.11c-1.01,1.01-1.53,2.42-1.43,3.84l1.05-1.05c1.27-1.27,3.33-1.27,4.59,0
			c0.61,0.61,0.95,1.43,0.95,2.3c0,0.87-0.34,1.68-0.95,2.3L15.58,38.31z"/>
	</g>
</g>
</svg>
