<?xml version="1.0" encoding="utf-8"?>
<!-- Generator: Adobe Illustrator 23.0.3, SVG Export Plug-In . SVG Version: 6.00 Build 0)  -->
<svg version="1.1" id="圖層_1" xmlns="http://www.w3.org/2000/svg" xmlns:xlink="http://www.w3.org/1999/xlink" x="0px" y="0px"
	 viewBox="0 0 50 50" style="enable-background:new 0 0 50 50;" xml:space="preserve">
<style type="text/css">
	.st0{fill:url(#SVGID_1_);}
	.st1{fill:url(#SVGID_2_);}
	.st2{fill:url(#SVGID_3_);}
	.st3{fill:url(#SVGID_4_);}
	.st4{fill:#65E9B9;}
	.st5{fill:#323644;}
	.st6{fill:url(#SVGID_5_);}
	.st7{fill:url(#SVGID_6_);}
	.st8{fill:url(#SVGID_7_);}
	.st9{fill:url(#SVGID_8_);}
	.st10{fill:url(#SVGID_9_);}
	.st11{fill:url(#SVGID_10_);}
	.st12{fill:url(#SVGID_11_);}
	.st13{fill:url(#SVGID_12_);}
	.st14{fill:url(#SVGID_13_);}
	.st15{fill:url(#SVGID_14_);}
	.st16{fill:url(#SVGID_15_);}
	.st17{fill:url(#SVGID_16_);}
	.st18{fill:#E66600;}
	.st19{fill:#FFBA00;}
	.st20{fill:#FDE09C;}
	.st21{fill:#04A586;}
	.st22{fill:url(#SVGID_17_);}
	.st23{fill:#424242;}
	.st24{fill:#707070;}
	.st25{fill:url(#SVGID_18_);}
	.st26{fill:url(#SVGID_19_);}
	.st27{fill:url(#SVGID_20_);}
	.st28{fill:url(#SVGID_21_);}
	.st29{fill:url(#SVGID_22_);}
	.st30{fill:url(#SVGID_23_);}
	.st31{fill:url(#SVGID_24_);}
	.st32{fill:url(#SVGID_25_);}
	.st33{fill:url(#SVGID_28_);}
	.st34{fill:url(#SVGID_29_);}
	.st35{fill:url(#SVGID_30_);}
	.st36{fill:url(#SVGID_31_);}
	.st37{fill:url(#SVGID_32_);}
	.st38{fill:#FFFFFF;}
	.st39{fill:url(#SVGID_33_);}
	.st40{fill:none;stroke:#444444;stroke-width:5;stroke-linecap:round;stroke-linejoin:round;stroke-miterlimit:10;}
	.st41{fill:url(#SVGID_34_);}
	.st42{opacity:0.58;fill:url(#SVGID_35_);}
	.st43{fill:none;stroke:#FFFFFF;stroke-width:1.2361;stroke-linecap:round;stroke-miterlimit:10;}
	.st44{fill:url(#SVGID_36_);}
	.st45{opacity:0.58;fill:url(#SVGID_37_);}
	.st46{fill:none;stroke:#FFFFFF;stroke-miterlimit:10;}
	.st47{fill:url(#SVGID_38_);}
	.st48{opacity:0.58;fill:url(#SVGID_39_);}
	.st49{fill:none;}
</style>
<g>
	<circle class="st38" cx="25.61" cy="25.19" r="23.22"/>
	<g>
		<path d="M34.77,41.06H16.46c-0.87,0-1.58-0.71-1.58-1.58V24.02c0-0.87,0.71-1.58,1.58-1.58h18.31c0.87,0,1.58,0.71,1.58,1.58
			v15.46C36.35,40.35,35.64,41.06,34.77,41.06z M16.46,23.49c-0.29,0-0.53,0.24-0.53,0.53v15.46c0,0.29,0.24,0.53,0.53,0.53h18.31
			c0.29,0,0.53-0.24,0.53-0.53V24.02c0-0.29-0.24-0.53-0.53-0.53H16.46z"/>
		<path d="M31.32,23.49H19.91c-0.29,0-0.53-0.24-0.53-0.53v-4.35c0-3.43,2.79-6.23,6.23-6.23c3.43,0,6.23,2.79,6.23,6.23v4.35
			C31.84,23.26,31.61,23.49,31.32,23.49z M20.44,22.44h10.35v-3.82c0-2.85-2.32-5.18-5.18-5.18s-5.18,2.32-5.18,5.18V22.44z"/>
		<path d="M34.3,23.49H16.92c-0.29,0-0.53-0.24-0.53-0.53v-4.44c0-5.08,4.13-9.22,9.22-9.22c5.08,0,9.22,4.13,9.22,9.22v4.44
			C34.83,23.26,34.59,23.49,34.3,23.49z M17.45,22.44h16.33v-3.91c0-4.5-3.66-8.16-8.16-8.16c-4.5,0-8.16,3.66-8.16,8.16V22.44z"/>
		<path class="st21" d="M29.73,38.11h-8.24c-0.16,0-0.32-0.07-0.42-0.2c-0.1-0.13-0.13-0.3-0.09-0.45l1.67-6.52
			c-0.54-0.67-0.83-1.5-0.83-2.36c0-2.09,1.7-3.79,3.79-3.79s3.79,1.7,3.79,3.79c0,0.86-0.29,1.69-0.83,2.36l1.67,6.52
			c0.04,0.16,0.01,0.33-0.09,0.45C30.05,38.04,29.9,38.11,29.73,38.11z M22.17,37.06h6.88l-1.57-6.13c-0.04-0.17,0-0.36,0.13-0.49
			c0.48-0.51,0.74-1.17,0.74-1.86c0-1.51-1.23-2.73-2.73-2.73c-1.51,0-2.73,1.23-2.73,2.73c0,0.69,0.26,1.35,0.74,1.86
			c0.12,0.13,0.17,0.32,0.13,0.49L22.17,37.06z"/>
	</g>
</g>
</svg>
