<?xml version="1.0" encoding="utf-8"?>
<!-- Generator: Adobe Illustrator 23.0.3, SVG Export Plug-In . SVG Version: 6.00 Build 0)  -->
<svg version="1.1" id="圖層_1" xmlns="http://www.w3.org/2000/svg" xmlns:xlink="http://www.w3.org/1999/xlink" x="0px" y="0px"
	 viewBox="0 0 50 50" style="enable-background:new 0 0 50 50;" xml:space="preserve">
<style type="text/css">
	.st0{fill:url(#SVGID_1_);}
	.st1{fill:url(#SVGID_2_);}
	.st2{fill:url(#SVGID_3_);}
	.st3{fill:url(#SVGID_4_);}
	.st4{fill:#65E9B9;}
	.st5{fill:#323644;}
	.st6{fill:url(#SVGID_5_);}
	.st7{fill:url(#SVGID_6_);}
	.st8{fill:url(#SVGID_7_);}
	.st9{fill:url(#SVGID_8_);}
	.st10{fill:url(#SVGID_9_);}
	.st11{fill:url(#SVGID_10_);}
	.st12{fill:url(#SVGID_11_);}
	.st13{fill:url(#SVGID_12_);}
	.st14{fill:url(#SVGID_13_);}
	.st15{fill:url(#SVGID_14_);}
	.st16{fill:url(#SVGID_15_);}
	.st17{fill:url(#SVGID_16_);}
	.st18{fill:#E66600;}
	.st19{fill:#FFBA00;}
	.st20{fill:#FDE09C;}
	.st21{fill:#04A586;}
	.st22{fill:url(#SVGID_17_);}
	.st23{fill:#424242;}
	.st24{fill:#707070;}
	.st25{fill:url(#SVGID_18_);}
	.st26{fill:url(#SVGID_19_);}
	.st27{fill:url(#SVGID_20_);}
	.st28{fill:url(#SVGID_21_);}
	.st29{fill:url(#SVGID_22_);}
	.st30{fill:url(#SVGID_23_);}
	.st31{fill:url(#SVGID_24_);}
	.st32{fill:url(#SVGID_25_);}
	.st33{fill:url(#SVGID_28_);}
	.st34{fill:url(#SVGID_29_);}
	.st35{fill:url(#SVGID_30_);}
	.st36{fill:url(#SVGID_31_);}
	.st37{fill:url(#SVGID_32_);}
	.st38{fill:#FFFFFF;}
	.st39{fill:url(#SVGID_33_);}
	.st40{fill:none;stroke:#444444;stroke-width:5;stroke-linecap:round;stroke-linejoin:round;stroke-miterlimit:10;}
	.st41{fill:url(#SVGID_34_);}
	.st42{opacity:0.58;fill:url(#SVGID_35_);}
	.st43{fill:none;stroke:#FFFFFF;stroke-width:1.2361;stroke-linecap:round;stroke-miterlimit:10;}
	.st44{fill:url(#SVGID_36_);}
	.st45{opacity:0.58;fill:url(#SVGID_37_);}
	.st46{fill:none;stroke:#FFFFFF;stroke-miterlimit:10;}
	.st47{fill:url(#SVGID_38_);}
	.st48{opacity:0.58;fill:url(#SVGID_39_);}
	.st49{fill:none;}
</style>
<g>
	<circle class="st38" cx="24.96" cy="25.19" r="23.22"/>
	<g>
		<path d="M35.16,32.21h-5.57c-0.34,0-0.61-0.27-0.61-0.61c0-0.34,0.27-0.61,0.61-0.61h5.57c3.47,0,6.29-2.82,6.29-6.29
			c0-3.47-2.82-6.29-6.29-6.29c-1.07,0-2.12,0.27-3.06,0.79c-0.2,0.11-0.45,0.1-0.64-0.03c-0.19-0.13-0.29-0.36-0.27-0.59
			c0.04-0.31,0.06-0.56,0.06-0.8c0-3.47-2.82-6.29-6.29-6.29c-3.47,0-6.29,2.82-6.29,6.29c0,0.24,0.02,0.49,0.06,0.8
			c0.03,0.23-0.07,0.46-0.27,0.59c-0.19,0.13-0.44,0.14-0.64,0.03c-0.93-0.52-1.99-0.79-3.05-0.79c-3.47,0-6.29,2.82-6.29,6.29
			c0,3.47,2.82,6.29,6.29,6.29h5.57c0.34,0,0.61,0.27,0.61,0.61c0,0.34-0.27,0.61-0.61,0.61h-5.57c-4.15,0-7.52-3.37-7.52-7.52
			c0-4.15,3.37-7.52,7.52-7.52c0.92,0,1.83,0.17,2.68,0.5c0.06-4.09,3.41-7.4,7.52-7.4c4.11,0,7.46,3.31,7.52,7.4
			c0.85-0.33,1.76-0.5,2.68-0.5c4.15,0,7.52,3.37,7.52,7.52C42.68,28.84,39.31,32.21,35.16,32.21z"/>
		<path d="M30.94,21.86c-0.1,0-0.21-0.03-0.31-0.08c-0.29-0.17-0.39-0.55-0.22-0.84c0.55-0.95,0.84-2.04,0.84-3.15
			c0-3.47-2.82-6.29-6.29-6.29c-3.47,0-6.29,2.82-6.29,6.29c0,1.11,0.29,2.19,0.84,3.14c0.17,0.29,0.07,0.67-0.22,0.84
			c-0.29,0.17-0.67,0.07-0.84-0.22c-0.66-1.14-1-2.44-1-3.76c0-4.15,3.37-7.52,7.52-7.52c4.15,0,7.52,3.37,7.52,7.52
			c0,1.32-0.35,2.62-1.01,3.76C31.36,21.75,31.16,21.86,30.94,21.86z"/>
		<path class="st21" d="M27.59,40.1c-0.34,0-0.61-0.27-0.61-0.61V28.29c0-0.34,0.27-0.61,0.61-0.61h1.28l-3.91-4.54l-3.9,4.54h1.28
			c0.34,0,0.61,0.27,0.61,0.61v11.19c0,0.34-0.27,0.61-0.61,0.61c-0.34,0-0.61-0.27-0.61-0.61V28.91h-2.01
			c-0.24,0-0.46-0.14-0.56-0.36c-0.1-0.22-0.06-0.47,0.09-0.66l5.24-6.09c0.23-0.27,0.7-0.27,0.93,0l5.24,6.09
			c0.16,0.18,0.19,0.44,0.09,0.66c-0.1,0.22-0.32,0.36-0.56,0.36H28.2v10.58C28.2,39.83,27.92,40.1,27.59,40.1z"/>
	</g>
</g>
</svg>
