<svg xmlns="http://www.w3.org/2000/svg" xmlns:xlink="http://www.w3.org/1999/xlink" viewBox="0 0 1029 480"><defs><style>.cls-1{isolation:isolate;}.cls-2{fill:#a6e8d0;}.cls-119,.cls-3,.cls-4,.cls-92,.cls-93{fill:#fff;}.cls-3{opacity:0.28;}.cls-5{fill:#38b281;}.cls-6{fill:#161d3c;}.cls-120,.cls-7{opacity:0.75;}.cls-8{fill:#ed146c;}.cls-9{opacity:0.19;}.cls-11,.cls-12,.cls-38,.cls-39,.cls-83,.cls-9,.cls-90{mix-blend-mode:multiply;}.cls-10,.cls-83{fill:#4588ff;}.cls-11,.cls-39,.cls-83,.cls-99{opacity:0.35;}.cls-12,.cls-31,.cls-89{opacity:0.25;}.cls-13{fill:url(#linear-gradient);}.cls-14{fill:#2875df;}.cls-15,.cls-30{fill:#75bcfc;}.cls-16{fill:#4594f4;}.cls-17{fill:#347ee8;}.cls-18{fill:#fcc106;}.cls-120,.cls-19{fill:#205ce2;}.cls-20{fill:url(#linear-gradient-2);}.cls-21,.cls-34,.cls-87,.cls-88,.cls-89,.cls-90{fill:#b4bbe1;}.cls-22{fill:#dae3f2;}.cls-23{fill:#ced2ef;}.cls-24{fill:#c5c8e8;}.cls-25{fill:url(#linear-gradient-3);}.cls-26{fill:#ef770a;}.cls-27{fill:#ff9906;}.cls-28{fill:#328eea;}.cls-29{fill:url(#linear-gradient-4);}.cls-30,.cls-34{opacity:0.45;}.cls-100,.cls-32,.cls-37,.cls-84,.cls-85{fill:none;}.cls-100,.cls-32{stroke:#fff;}.cls-100,.cls-32,.cls-37,.cls-85{stroke-linecap:round;}.cls-32,.cls-37,.cls-84{stroke-miterlimit:10;}.cls-32{stroke-width:1.27px;}.cls-33{fill:url(#linear-gradient-5);}.cls-35{fill:url(#linear-gradient-6);}.cls-36{fill:#f7f5fa;}.cls-37{stroke:#b4bbe1;}.cls-37,.cls-84,.cls-85{stroke-width:1.51px;}.cls-38{fill:url(#linear-gradient-7);}.cls-39{fill:url(#linear-gradient-8);}.cls-40{fill:#ebf6f7;}.cls-41{fill:url(#linear-gradient-9);}.cls-42{fill:url(#linear-gradient-10);}.cls-43{fill:url(#linear-gradient-11);}.cls-44{fill:url(#linear-gradient-12);}.cls-45{fill:url(#linear-gradient-13);}.cls-46{fill:url(#linear-gradient-14);}.cls-47{fill:url(#linear-gradient-15);}.cls-48{fill:url(#linear-gradient-16);}.cls-49{fill:url(#linear-gradient-17);}.cls-50{fill:url(#linear-gradient-18);}.cls-51{fill:url(#linear-gradient-19);}.cls-52{fill:url(#linear-gradient-20);}.cls-53{fill:url(#linear-gradient-21);}.cls-54{fill:url(#linear-gradient-22);}.cls-55{fill:url(#linear-gradient-23);}.cls-56{fill:url(#linear-gradient-24);}.cls-57{fill:url(#linear-gradient-25);}.cls-58{fill:url(#linear-gradient-26);}.cls-59{fill:url(#linear-gradient-27);}.cls-60{fill:url(#linear-gradient-28);}.cls-61{fill:url(#linear-gradient-29);}.cls-62{fill:url(#linear-gradient-30);}.cls-63{fill:url(#linear-gradient-31);}.cls-64{fill:url(#linear-gradient-32);}.cls-65{fill:url(#linear-gradient-33);}.cls-66{fill:url(#linear-gradient-34);}.cls-67{fill:url(#linear-gradient-35);}.cls-68{fill:url(#linear-gradient-36);}.cls-69{fill:url(#linear-gradient-37);}.cls-70{fill:url(#linear-gradient-38);}.cls-71{fill:url(#linear-gradient-39);}.cls-72{fill:url(#linear-gradient-40);}.cls-73{fill:url(#linear-gradient-41);}.cls-74{fill:url(#linear-gradient-42);}.cls-75{fill:url(#linear-gradient-43);}.cls-76{fill:url(#linear-gradient-44);}.cls-77{fill:url(#linear-gradient-45);}.cls-78{fill:url(#linear-gradient-46);}.cls-79{fill:url(#linear-gradient-47);}.cls-80{fill:url(#linear-gradient-48);}.cls-81{fill:url(#linear-gradient-49);}.cls-82{fill:url(#linear-gradient-50);}.cls-84,.cls-85{stroke:#dae3f2;}.cls-100,.cls-85{stroke-linejoin:round;}.cls-86{fill:url(#linear-gradient-51);}.cls-87{opacity:0.11;}.cls-88{opacity:0.15;}.cls-119,.cls-90{opacity:0.55;}.cls-91,.cls-92{opacity:0.2;}.cls-91{mix-blend-mode:screen;fill:url(#linear-gradient-52);}.cls-93{opacity:0.4;}.cls-94{fill:#81c5e8;}.cls-95{fill:#cdd5f7;}.cls-96{fill:#2d2d2d;}.cls-97{fill:#3a3a3a;}.cls-98{fill:#4b4c4c;}.cls-100{stroke-width:4.15px;}.cls-101{fill:#f2ba88;}.cls-102{fill:#ffd1a4;}.cls-103{fill:#e8ecf7;}.cls-104{fill:url(#linear-gradient-53);}.cls-105{fill:#190b05;}.cls-106{fill:#7f391b;}.cls-107{fill:#934b32;}.cls-108{fill:#682c17;}.cls-109{fill:#595959;opacity:0.5;}.cls-110{fill:#845424;}.cls-111{fill:#713e23;}.cls-112,.cls-115{fill:#efefef;}.cls-112{opacity:0.39;}.cls-113{fill:#442312;}.cls-114{fill:#d39867;}.cls-116{fill:#1d68d6;}.cls-117{fill:url(#linear-gradient-54);}.cls-118{fill:#063444;}.cls-121{fill:#165bd6;}.cls-122{fill:#474747;}.cls-123{fill:#134dce;}</style><linearGradient id="linear-gradient" x1="659.17" y1="185.4" x2="603.2" y2="217.71" gradientUnits="userSpaceOnUse"><stop offset="0" stop-color="#b4bbe1" stop-opacity="0.1"/><stop offset="0.63" stop-color="#b4bbe1" stop-opacity="0.24"/><stop offset="1" stop-color="#b4bbe1" stop-opacity="0.3"/></linearGradient><linearGradient id="linear-gradient-2" x1="693.96" y1="194.13" x2="638" y2="226.45" xlink:href="#linear-gradient"/><linearGradient id="linear-gradient-3" x1="601.1" y1="248.39" x2="571.2" y2="265.65" xlink:href="#linear-gradient"/><linearGradient id="linear-gradient-4" x1="1311.56" y1="262.09" x2="1508.43" y2="375.76" gradientTransform="matrix(-1, 0, 0, 1, 2148.45, 0)" xlink:href="#linear-gradient"/><linearGradient id="linear-gradient-5" x1="783.47" y1="268.94" x2="666.11" y2="336.7" gradientUnits="userSpaceOnUse"><stop offset="0" stop-color="#ced5ef"/><stop offset="0.37" stop-color="#d5ddf1"/><stop offset="0.87" stop-color="#dae3f2"/></linearGradient><linearGradient id="linear-gradient-6" x1="813.66" y1="250.48" x2="695.42" y2="318.75" xlink:href="#linear-gradient-5"/><linearGradient id="linear-gradient-7" x1="786.73" y1="340.63" x2="786.73" y2="170.22" xlink:href="#linear-gradient"/><linearGradient id="linear-gradient-8" x1="720.72" y1="333.7" x2="817.01" y2="166.91" gradientUnits="userSpaceOnUse"><stop offset="0" stop-color="#b4bbe1" stop-opacity="0.1"/><stop offset="0.41" stop-color="#b4bbe1" stop-opacity="0.4"/><stop offset="0.83" stop-color="#b4bbe1" stop-opacity="0.8"/><stop offset="0.84" stop-color="#c5cbe8" stop-opacity="0.68"/><stop offset="0.87" stop-color="#dadef0" stop-opacity="0.55"/><stop offset="0.89" stop-color="#eaecf7" stop-opacity="0.44"/><stop offset="0.92" stop-color="#f6f7fb" stop-opacity="0.36"/><stop offset="0.96" stop-color="#fdfdfe" stop-opacity="0.31"/><stop offset="1" stop-color="#fff" stop-opacity="0.3"/></linearGradient><linearGradient id="linear-gradient-9" x1="748.21" y1="191.58" x2="793.43" y2="191.58" xlink:href="#linear-gradient-5"/><linearGradient id="linear-gradient-10" x1="748.21" y1="186.9" x2="793.43" y2="186.9" xlink:href="#linear-gradient-5"/><linearGradient id="linear-gradient-11" x1="748.21" y1="196.26" x2="793.43" y2="196.26" xlink:href="#linear-gradient-5"/><linearGradient id="linear-gradient-12" x1="748.21" y1="200.94" x2="793.43" y2="200.94" xlink:href="#linear-gradient-5"/><linearGradient id="linear-gradient-13" x1="748.21" y1="205.63" x2="793.43" y2="205.63" xlink:href="#linear-gradient-5"/><linearGradient id="linear-gradient-14" x1="779.43" y1="246.19" x2="793.43" y2="246.19" xlink:href="#linear-gradient-5"/><linearGradient id="linear-gradient-15" x1="748.21" y1="232.53" x2="777.56" y2="232.53" xlink:href="#linear-gradient-5"/><linearGradient id="linear-gradient-16" x1="748.21" y1="233.33" x2="796.45" y2="233.33" xlink:href="#linear-gradient-5"/><linearGradient id="linear-gradient-17" x1="748.21" y1="227.76" x2="793.43" y2="227.76" xlink:href="#linear-gradient-5"/><linearGradient id="linear-gradient-18" x1="748.21" y1="223.08" x2="793.43" y2="223.08" xlink:href="#linear-gradient-5"/><linearGradient id="linear-gradient-19" x1="748.21" y1="255.16" x2="793.43" y2="255.16" xlink:href="#linear-gradient-5"/><linearGradient id="linear-gradient-20" x1="747.82" y1="261.52" x2="800.52" y2="261.52" xlink:href="#linear-gradient-5"/><linearGradient id="linear-gradient-21" x1="746.76" y1="265.24" x2="800.15" y2="265.24" xlink:href="#linear-gradient-5"/><linearGradient id="linear-gradient-22" x1="748.21" y1="250.48" x2="793.43" y2="250.48" xlink:href="#linear-gradient-5"/><linearGradient id="linear-gradient-23" x1="748.21" y1="245.8" x2="793.43" y2="245.8" xlink:href="#linear-gradient-5"/><linearGradient id="linear-gradient-24" x1="774.58" y1="248.76" x2="793.43" y2="248.76" xlink:href="#linear-gradient-5"/><linearGradient id="linear-gradient-25" x1="748.21" y1="235.12" x2="772.71" y2="235.12" xlink:href="#linear-gradient-5"/><linearGradient id="linear-gradient-26" x1="797.87" y1="259.21" x2="820.05" y2="259.21" xlink:href="#linear-gradient-5"/><linearGradient id="linear-gradient-27" x1="797.87" y1="254.53" x2="820.05" y2="254.53" xlink:href="#linear-gradient-5"/><linearGradient id="linear-gradient-28" x1="797.87" y1="247.43" x2="820.05" y2="247.43" xlink:href="#linear-gradient-5"/><linearGradient id="linear-gradient-29" x1="797.87" y1="276.4" x2="817.09" y2="276.4" xlink:href="#linear-gradient-5"/><linearGradient id="linear-gradient-30" x1="797.87" y1="272.57" x2="820.05" y2="272.57" xlink:href="#linear-gradient-5"/><linearGradient id="linear-gradient-31" x1="797.87" y1="267.89" x2="820.05" y2="267.89" xlink:href="#linear-gradient-5"/><linearGradient id="linear-gradient-32" x1="797.87" y1="263.2" x2="820.05" y2="263.2" xlink:href="#linear-gradient-5"/><linearGradient id="linear-gradient-33" x1="748.21" y1="211.81" x2="788.71" y2="211.81" xlink:href="#linear-gradient-5"/><linearGradient id="linear-gradient-34" x1="748.21" y1="226.2" x2="820.52" y2="226.2" xlink:href="#linear-gradient-5"/><linearGradient id="linear-gradient-35" x1="801.1" y1="289.49" x2="820.05" y2="289.49" xlink:href="#linear-gradient-5"/><linearGradient id="linear-gradient-36" x1="804.69" y1="300.52" x2="812.65" y2="300.52" xlink:href="#linear-gradient-5"/><linearGradient id="linear-gradient-37" x1="743.65" y1="280.98" x2="791.25" y2="280.98" xlink:href="#linear-gradient-5"/><linearGradient id="linear-gradient-38" x1="717" y1="251.34" x2="755.74" y2="251.34" xlink:href="#linear-gradient-5"/><linearGradient id="linear-gradient-39" x1="713.68" y1="253.94" x2="751.69" y2="253.94" xlink:href="#linear-gradient-5"/><linearGradient id="linear-gradient-40" x1="710.8" y1="256.88" x2="748.71" y2="256.88" xlink:href="#linear-gradient-5"/><linearGradient id="linear-gradient-41" x1="708.15" y1="260.09" x2="746.09" y2="260.09" xlink:href="#linear-gradient-5"/><linearGradient id="linear-gradient-42" x1="706.01" y1="263.5" x2="743.99" y2="263.5" xlink:href="#linear-gradient-5"/><linearGradient id="linear-gradient-43" x1="704.35" y1="267.32" x2="742.32" y2="267.32" xlink:href="#linear-gradient-5"/><linearGradient id="linear-gradient-44" x1="702.76" y1="284.14" x2="773.94" y2="284.14" xlink:href="#linear-gradient-5"/><linearGradient id="linear-gradient-45" x1="702.5" y1="289.71" x2="773.94" y2="289.71" xlink:href="#linear-gradient-5"/><linearGradient id="linear-gradient-46" x1="701.69" y1="294.86" x2="773.11" y2="294.86" xlink:href="#linear-gradient-5"/><linearGradient id="linear-gradient-47" x1="700.11" y1="299.63" x2="771.52" y2="299.63" xlink:href="#linear-gradient-5"/><linearGradient id="linear-gradient-48" x1="697.74" y1="303.97" x2="769.25" y2="303.97" xlink:href="#linear-gradient-5"/><linearGradient id="linear-gradient-49" x1="694.74" y1="307.92" x2="766.27" y2="307.92" xlink:href="#linear-gradient-5"/><linearGradient id="linear-gradient-50" x1="728.15" y1="322.23" x2="762.58" y2="322.23" xlink:href="#linear-gradient-5"/><linearGradient id="linear-gradient-51" x1="942.08" y1="365.86" x2="843.8" y2="422.61" xlink:href="#linear-gradient"/><linearGradient id="linear-gradient-52" x1="851.32" y1="372.28" x2="880.14" y2="372.28" xlink:href="#linear-gradient"/><linearGradient id="linear-gradient-53" x1="702.65" y1="381.38" x2="666.8" y2="402.07" xlink:href="#linear-gradient"/><linearGradient id="linear-gradient-54" x1="531.04" y1="425.69" x2="480.21" y2="455.04" gradientTransform="translate(71.42 50.96) rotate(-5.77)" xlink:href="#linear-gradient"/></defs><title>1012_第四張_擁有最即時的資訊</title><g class="cls-1"><g id="圖層_5" data-name="圖層 5"><rect class="cls-2" y="0.28" width="1029" height="479.72"/></g><g id="圖層_1" data-name="圖層 1"><rect class="cls-3" x="440.12" y="68.78" width="7.83" height="28.98"/><rect class="cls-3" x="432.68" y="163" width="14.87" height="28.98"/><rect class="cls-3" x="239.38" y="67.15" width="14.87" height="28.98"/><rect class="cls-3" x="415.08" y="409.41" width="14.87" height="28.98"/><rect class="cls-3" x="328.21" y="322.72" width="7.83" height="28.98"/><rect class="cls-3" x="367.34" y="14.98" width="7.83" height="28.98"/><rect class="cls-3" x="58.52" y="329.56" width="14.87" height="28.98"/><rect class="cls-3" x="224.51" y="421.56" width="14.87" height="28.98"/><rect class="cls-3" x="42.4" y="224.47" width="13.7" height="8.57"/><rect class="cls-3" x="383.18" y="276.63" width="13.7" height="8.57"/><rect class="cls-3" x="477.1" y="438.88" width="13.7" height="8.57"/><rect class="cls-3" x="151.46" y="254.93" width="13.7" height="8.57"/><rect class="cls-3" x="111.32" y="407.61" width="5.48" height="16.9"/><rect class="cls-3" x="184.51" y="341.85" width="5.48" height="16.9"/><rect class="cls-4" x="507.85" y="135.41" width="13.3" height="3.13" rx="1.56"/><rect class="cls-4" x="512.84" y="129.8" width="3.33" height="15.18" rx="1.35"/><rect class="cls-4" x="217.86" y="291.01" width="13.3" height="3.13" rx="1.56"/><rect class="cls-4" x="222.85" y="285.4" width="3.33" height="15.18" rx="1.35"/><rect class="cls-3" x="960" y="159.83" width="7.83" height="28.98"/><rect class="cls-3" x="918.8" y="70.05" width="14.87" height="28.98"/><rect class="cls-3" x="732.45" y="427.25" width="14.87" height="28.98"/><rect class="cls-4" x="659.03" y="30.35" width="13.3" height="3.13" rx="1.56"/><rect class="cls-4" x="664.02" y="24.73" width="3.33" height="15.18" rx="1.35"/><rect class="cls-4" x="987.26" y="291.41" width="13.3" height="3.13" rx="1.56"/><rect class="cls-4" x="992.25" y="285.79" width="3.33" height="15.18" rx="1.35"/><rect class="cls-4" x="437.38" y="340.29" width="13.3" height="3.13" rx="1.56"/><rect class="cls-4" x="442.37" y="334.67" width="3.33" height="15.18" rx="1.35"/><rect class="cls-4" x="51.87" y="405.64" width="13.3" height="3.13" rx="1.56"/><rect class="cls-4" x="56.86" y="400.02" width="3.33" height="15.18" rx="1.35"/><rect class="cls-4" x="303.26" y="59.47" width="13.3" height="3.13" rx="1.56"/><rect class="cls-4" x="308.25" y="53.86" width="3.33" height="15.18" rx="1.35"/></g><g id="圖層_2" data-name="圖層 2"><path class="cls-5" d="M126.2,67c0-3.93,0-7.87,0-11.8,0-.65.14-.87.82-.86q7,0,13.93,0c.65,0,.88.16.85.84a25.36,25.36,0,0,0,0,3c0,.7-.17.92-.89.9-2.69,0-5.38,0-8.07,0-.78,0-1,.21-.94.95a30.82,30.82,0,0,1,0,3.33c0,.75.17,1,.94,1,2.49,0,5,0,7.47,0,.78,0,1,.22.92,1a25.53,25.53,0,0,0,0,3c0,.6-.2.72-.75.71-2.56,0-5.11,0-7.67,0-.7,0-.93.18-.9.89.05,1.41.05,2.83,0,4.24,0,.67.18.84.84.83,2.9,0,5.79,0,8.68,0,.71,0,1,.19.91.91-.06,1,0,2.08,0,3.12,0,.48-.08.74-.66.74q-7.41,0-14.83,0c-.73,0-.61-.42-.61-.85C126.21,74.89,126.21,71,126.2,67Z"/><path class="cls-5" d="M190.06,69.49c0,3.06,0,6.12,0,9.18,0,.75-.13,1.07-1,1a31.4,31.4,0,0,0-3.63,0c-.86,0-1.14-.17-1.13-1.09.05-6.12,0-12.25.05-18.37,0-.84-.23-1.08-1.06-1-1.65.07-3.3,0-5,0-.74,0-.9-.23-.86-.92.05-1.07,0-2.15,0-3.22,0-.5.07-.72.64-.72q9,0,18.07,0c.58,0,.75.19.73.75,0,1.14,0,2.29,0,3.43,0,.54-.18.68-.7.67-1.78,0-3.56,0-5.34,0-.73,0-.89.24-.89.92C190.08,63.23,190.06,66.36,190.06,69.49Z"/><path class="cls-5" d="M168.83,67c0-3.9,0-7.8,0-11.7,0-.71.18-.92.89-.89,1.34,0,2.69,0,4,0,.6,0,.82.11.81.77q0,11.85,0,23.71c0,.67-.17.87-.84.85q-2-.07-3.93,0c-.73,0-1-.15-1-.93C168.85,74.82,168.83,70.89,168.83,67Z"/><path class="cls-5" d="M92.71,77.14,80.06,78.79c-.47.06-1,.3-1.33-.25-.66-1-1.35-1.89-2-2.84h0c-.21-.34-.39-.7-.62-1-1.74-2.43-3.47-4.87-5.24-7.27A1.16,1.16,0,0,1,70.67,66c2.37-3.25,4.77-6.49,7.09-9.78a1.81,1.81,0,0,1,2-.84c4.23.57,8.47,1,12.71,1.59.58.07.85,0,.84-.69q0-3.69,0-7.37c0-.64-.24-.79-.84-.79-6,0-12-.05-18-.06-3.38,0-3.38,0-4.68,2.66-1.44,2.91-3.27,5.63-4.59,8.62h0l-.2.41-.84,1.56h0c-.23-.11-.31-.34-.42-.54-2.12-4.05-4.61-7.89-6.88-11.85a1.43,1.43,0,0,0-1.44-.82c-3.32,0-6.65,0-10,.09-.34,0-.82-.28-1,.15s.25.59.43.86C48.85,54.78,52.76,60.41,56.71,66a1.25,1.25,0,0,1,0,1.76c-.85,1.11-1.61,2.31-2.4,3.47l-.15.2-.61.82h0L44.18,85.39c-.34.47-.42.75.34.75,3.57,0,7.13,0,10.7,0a.84.84,0,0,0,.85-.42q2.18-4,4.37-7.94h0a43.48,43.48,0,0,0,3-5.4c.49.8.86,1.43,1.25,2.05l7,11.16a.48.48,0,0,0,.39.41,1.5,1.5,0,0,0,.88.13H92.35c.26,0,.54.07.77-.13h0s.12-.1.12-.15q0-4.12.05-8.25C93.3,77.19,93.08,77.09,92.71,77.14Z"/><path class="cls-5" d="M93.64,66.11a28.49,28.49,0,0,1-1.71-2.37A1.51,1.51,0,0,0,90.44,63c-3.53,0-7.53.08-11.06,0-1,0-1.16.37-1.85,1.1-2.41,2.56-2.16,2.16.2,5.14a1.33,1.33,0,0,0,1.21.52c2,0,4,.06,6,.06H89.8c2.42,0,1.72,0,3.69-2.49,0,0,.07-.12.11-.16C94,66.82,93.93,66.5,93.64,66.11Z"/><path class="cls-5" d="M164.37,69.62A6.6,6.6,0,0,0,160,66c.51-.28.88-.47,1.25-.69a5.52,5.52,0,0,0,1.28-8.64,8,8,0,0,0-4.66-2.21,43.61,43.61,0,0,0-10.77.07c-.8.07-.94.4-.94,1.12,0,7.14,0,14.27,0,21.41,0,2.45,0,2.52,2.39,2.69a30.38,30.38,0,0,0,10.91-.71C163.88,77.76,166.08,73.5,164.37,69.62ZM152.93,58.41a10.39,10.39,0,0,1,3.29.24,2.63,2.63,0,0,1,2.08,2.53,2.86,2.86,0,0,1-2,2.77,11.43,11.43,0,0,1-4.07.44c-.49,0-.43-.31-.43-.61V61.36a12.14,12.14,0,0,0,0-1.81C151.69,58.62,152.13,58.42,152.93,58.41Zm3.82,16.77a10.27,10.27,0,0,1-4.47.46c-.46,0-.43-.32-.43-.63,0-1,0-2,0-2.93s0-2,0-2.92c0-.43.05-.69.59-.67a15.19,15.19,0,0,1,3.8.33,3.32,3.32,0,0,1,.51,6.36Z"/><path class="cls-5" d="M122.69,78.94c-2.18-3.78-4.36-7.57-6.58-11.34a1.46,1.46,0,0,1,0-1.72c2.09-3.53,4.1-7.1,6.18-10.63.45-.76.34-.92-.53-.89-1.58,0-3.16,0-4.74,0a1,1,0,0,0-1.14.69c-1.13,2.51-2.33,5-3.32,7.56-.05.14-.09.31-.28.32s-.22-.18-.27-.32c-1-2.57-2.19-5-3.32-7.56a1,1,0,0,0-1.14-.69c-1.58,0-3.38-.11-5-.17-.86,0-1,.14-.53.9,2.08,3.53,4,7.11,6.08,10.64a1.47,1.47,0,0,1,0,1.73c-2.22,3.76-4.2,7.58-6.39,11.36a.86.86,0,0,0-.22.73c2,0,4.11.09,6.11.11.6,0,.68-.47.86-.83,1.23-2.43,2.22-5.26,3.44-7.69,0-.1.1-.2.15-.3l.15.3c1.22,2.43,2.64,5.26,3.87,7.69.18.36.25.84.86.83,2,0,4,0,6,0C123,79.3,122.8,79.13,122.69,78.94Z"/></g><g id="圖層_4" data-name="圖層 4"><rect class="cls-2" x="311.57" y="164.26" width="184.31" height="44.73"/><path class="cls-6" d="M45.68,184.87A1.13,1.13,0,0,1,47,183.59H83.71A1.13,1.13,0,0,1,85,184.87v2.95a1.13,1.13,0,0,1-1.28,1.28H47a1.13,1.13,0,0,1-1.28-1.28Z"/><path class="cls-6" d="M109.86,180.13c-.37.74-.13,1.13.72,1.16l1.37.08a1.13,1.13,0,0,1,1.24,1.33q-.47,9.9-2,13.24a2,2,0,0,0,.64,2.09q3.88,4.71,11.15,3.85,6.15,0,6.49,0c.86,0,1.16.4.9,1.19l-.56,1.71a1.52,1.52,0,0,1-1.62,1.2h-5.51a25.37,25.37,0,0,1-7.73-1.07,10.58,10.58,0,0,1-4.83-2.82c-.63-.6-1.16-.54-1.58.17-1.34,2.45-2.5,3.87-3.46,4.27a1.13,1.13,0,0,1-1.76-.38l-1-1.5a1.17,1.17,0,0,1,.34-1.79,8.5,8.5,0,0,0,3.85-5.47q-1.59-3-2.61-5.43h-3a1.14,1.14,0,0,0-1.28,1.29v3.59c0,.85.34,1,1,.55l1.41-1c.69-.52,1.17-.37,1.46.42l.6,1.45a1.54,1.54,0,0,1-.6,1.93c-2.62,1.94-4.48,3.34-5.56,4.23l-1.32,1.11c-.57.62-1,.55-1.41-.22l-.56-.68-.55-.73a1.27,1.27,0,0,1,0-1.92c.91-.65,1.37-1.86,1.37-3.63v-5.13a1.12,1.12,0,0,0-1.28-1.24H92.68c-.85,0-1.28-.41-1.28-1.23v-2.06a1.13,1.13,0,0,1,1.28-1.28h1.63a1.13,1.13,0,0,0,1.28-1.28v-1.58c0-.85-.46-1.28-1.37-1.28a1.13,1.13,0,0,1-1.28-1.28v-1q-.51-.65-1.41-1.92l-.69-1a1.51,1.51,0,0,1,0-2,15.94,15.94,0,0,0,4.32-8.08,1.1,1.1,0,0,1,1.54-.9l1.88.52a1.07,1.07,0,0,1,.85,1.54l-.17.51c-.31.8,0,1.19.81,1.19h2.18a1.11,1.11,0,0,1,1.28,1.24v2.05a1.13,1.13,0,0,1-1.28,1.29H98a2.18,2.18,0,0,0-2,1.06l-.86,1.37c-.45.71-.25,1.07.6,1.07h6.5a1.13,1.13,0,0,1,1.28,1.28v1.24c0,.86.28,1,.85.38q2.31-1.74,3.51-7c.22-.83-.09-1.24-.94-1.24h-1.63a1.14,1.14,0,0,1-1.28-1.29v-2.09a1.13,1.13,0,0,1,1.28-1.28l4.49,0a2.25,2.25,0,0,1,2.26.17l.47.34a1.57,1.57,0,0,1,.69,1.92A48.54,48.54,0,0,1,109.86,180.13Zm-5.94,8.5c0,.75.34,1,1,.73l.9-.38c.8-.29,1.3,0,1.5.85l.38,1.15c.26.8.46.77.6-.08a29.85,29.85,0,0,0,.73-4.23,1.06,1.06,0,0,0-1.2-1.28l-2.31.08c-.4.49-.75.44-1.07-.13l-.68-1.06a2.3,2.3,0,0,0-2-1.07H101a1.13,1.13,0,0,0-1.28,1.28v1.58a1.13,1.13,0,0,0,1.28,1.28h1.67A1.13,1.13,0,0,1,103.92,188.63Zm13.16-13.11a1.12,1.12,0,0,0,1.28-1.24.86.86,0,0,0-1-1h-1.75a1.14,1.14,0,0,1-1.29-1.29v-.85a1.13,1.13,0,0,1,1.29-1.28h1.45c.85,0,1.28-.5,1.28-1.5a1.13,1.13,0,0,1,1.28-1.28h1.28q1.29,0,1.29,1.5a1.13,1.13,0,0,0,1.28,1.28h3.37a1.13,1.13,0,0,1,1.29,1.28v3.08c0,.85.41,1.28,1.23,1.28a1,1,0,0,1,1.12,1.11v1.28a1.12,1.12,0,0,1-1.24,1.28,1,1,0,0,0-1.11,1.11v3.25a1.13,1.13,0,0,1-1.29,1.28h-3.37a1.13,1.13,0,0,0-1.28,1.28.76.76,0,0,0,.85.86h4.27a1.14,1.14,0,0,1,1.29,1.28v1.24a1.14,1.14,0,0,1-1.29,1.28h-3.84a1.13,1.13,0,0,0-1.28,1.28.87.87,0,0,0,1,1h5c.85,0,1.28.41,1.28,1.23v1.24a1.14,1.14,0,0,1-1.28,1.29h-4.66a1.13,1.13,0,0,0-1.28,1.28v1.28a1.14,1.14,0,0,1-1.29,1.28h-1.28a1.13,1.13,0,0,1-1.28-1.28v-1.28a1.13,1.13,0,0,0-1.28-1.28h-2.69a1.11,1.11,0,0,1-1.28-1.24v-1.24a1.13,1.13,0,0,1,1.28-1.28h2.69a1.14,1.14,0,0,0,1.28-1.29.87.87,0,0,0-1-1h-1.92a1.14,1.14,0,0,1-1.29-1.28v-1.24a1.14,1.14,0,0,1,1.29-1.28h1.62a1.13,1.13,0,0,0,1.28-1.28.76.76,0,0,0-.85-.86h-1.88a1.13,1.13,0,0,1-1.29-1.28v-.85a1.14,1.14,0,0,1,1.29-1.29h1.45a1.11,1.11,0,0,0,1.28-1.24.87.87,0,0,0-1-1h-3.33a1.11,1.11,0,0,1-1.24-1.28V176.8a1.13,1.13,0,0,1,1.28-1.28Zm7.56-1.16c0-.71-.48-1.06-1.45-1.06a.86.86,0,0,0-1,1,1.11,1.11,0,0,0,1.28,1.24A1,1,0,0,0,124.64,174.36Zm-1.28,7a1.11,1.11,0,0,0,1.28-1.24c0-.65-.38-1-1.15-1s-1.28.41-1.28,1.24C122.21,181.09,122.59,181.41,123.36,181.41Z"/><path class="cls-6" d="M149.94,188.51a1.28,1.28,0,0,1-1.07,1.58l-1.28.38a1.53,1.53,0,0,0-1.24,1.62V201a7.5,7.5,0,0,1-.43,2.86,3.09,3.09,0,0,1-1.5,1.59,10.81,10.81,0,0,1-5.17.94,1.42,1.42,0,0,1-1.53-1.29,6.47,6.47,0,0,0-.56-2.22c-.43-.74-.21-1.11.64-1.11.29,0,1.2,0,2.74,0a.72.72,0,0,0,.81-.81v-7.56c0-.85-.42-1.18-1.24-1l-1.84.51a1.12,1.12,0,0,1-1.54-.9l-.68-2.47c-.23-.8.09-1.29.94-1.46.43-.11,1.48-.33,3.16-.64a1.5,1.5,0,0,0,1.2-1.58v-5a1.13,1.13,0,0,0-1.28-1.28h-2.52c-.86,0-1.29-.41-1.29-1.24V176.2a1.14,1.14,0,0,1,1.29-1.28h2.52a1.13,1.13,0,0,0,1.28-1.28v-5.56a1.11,1.11,0,0,1,1.24-1.28h2.52a1.12,1.12,0,0,1,1.24,1.28v5.56a1.13,1.13,0,0,0,1.28,1.28h1.92c.86,0,1.28.41,1.28,1.24v2.18a1.13,1.13,0,0,1-1.28,1.28h-1.92a1.13,1.13,0,0,0-1.28,1.28v3.76c0,.83.41,1.14,1.24.94l.64-.17a1,1,0,0,1,1.41.94Zm20.16-3.46,2.14.94a1.16,1.16,0,0,1,.73,1.66q-2.31,7.56-6.07,10.21c-.57.63-.47,1.11.3,1.46a22.13,22.13,0,0,0,7.43,2.56q1.29.17.6,1.2l-1.79,2.65a1.69,1.69,0,0,1-1.93.72q-6.31-1.53-8.76-3.59a2,2,0,0,0-2.17-.13,28,28,0,0,1-9.32,3.72,1.48,1.48,0,0,1-1.79-.85l-1.29-2.44c-.39-.74-.18-1.19.65-1.37q5.41-.93,7.52-2.39c.74-.4.82-.91.25-1.54q-3.63-3.63-4.57-6.15l.13-.85c.62-.57.51-.86-.34-.86a1,1,0,0,1-1.16-1.15v-2.31a1.13,1.13,0,0,1,1.28-1.28Zm-9.78-12.14a1.26,1.26,0,0,0-1.41,1.28q0,8.42-5.73,10a1.45,1.45,0,0,1-1.92-.47l-.81-.94-.86-.85c-.62-.57-.57-1.06.18-1.46a6.79,6.79,0,0,0,3.41-3,9.48,9.48,0,0,0,1.16-4.74v-3.33a1.09,1.09,0,0,1,1.24-1.24H168.1a1.13,1.13,0,0,1,1.28,1.28v8a5.27,5.27,0,0,0,.12,1.37.64.64,0,0,0,.65.38h2.26l1.11,0c.86-.17,1.31.17,1.37,1l.17,1.62a1.32,1.32,0,0,1-1.15,1.58l-1.41,0h-2.87c-2,0-3.37-.44-4.06-1.32s-1-2.49-1-4.74v-3.25a1.13,1.13,0,0,0-1.28-1.28Zm5.85,18.25c.34-.77.09-1.16-.77-1.16h-7.65c-.82,0-1,.36-.59,1.07a12.79,12.79,0,0,0,3.59,4.1,1.32,1.32,0,0,0,1.92,0C164.69,193.45,165.86,192.12,166.17,191.16Z"/><path class="cls-6" d="M198.47,194a1.54,1.54,0,0,1,1.63-1.24h2.39c.85,0,1.18.42,1,1.28a12.12,12.12,0,0,1-.94,2.86,13.3,13.3,0,0,1-2.22,3.42,12.42,12.42,0,0,1-3.59,2.78,35.42,35.42,0,0,1-11.92,3.5,1.61,1.61,0,0,1-1.84-.9l-1.06-2.05c-.4-.74-.19-1.15.64-1.24q6.57-.67,9.05-1.92a11.9,11.9,0,0,0,5.09-3.12A8.23,8.23,0,0,0,198.47,194Zm-5.42-16.54c.79-.26,1.26,0,1.41.85l.38,1.88a1.31,1.31,0,0,1-.94,1.67q-6.1,2.26-9.44,3.42a1.1,1.1,0,0,1-1.58-.81l-.77-2.27a1,1,0,0,1,.85-1.49Q187,179.63,193.05,177.44Zm.17-6a1.16,1.16,0,0,1,.25,1.79L192.28,175a1.18,1.18,0,0,1-1.8.35,13.29,13.29,0,0,0-2.86-1.8,26,26,0,0,0-3.5-1.71c-.77-.34-.91-.85-.43-1.54l1-1.36a1.56,1.56,0,0,1,2-.6Q192.27,170.35,193.22,171.46ZM216.08,197a1.14,1.14,0,0,1-1.29,1.28h-2.73a1.13,1.13,0,0,1-1.28-1.28v-4.06a1.13,1.13,0,0,0-1.28-1.28H193.09c-.83,0-1.24.42-1.24,1.28v4.53a1.11,1.11,0,0,1-1.24,1.28h-2.52a1.11,1.11,0,0,1-1.24-1.28v-9.15a1.13,1.13,0,0,1,1.28-1.28h26.66a1.14,1.14,0,0,1,1.29,1.28Zm-2.74-21.58q.48-1.2-.81-1.2H211a1.6,1.6,0,0,0-1.66,1.28,14.8,14.8,0,0,0,10.17,6.76c.79.22.94.68.42,1.36l-1.41,1.93a1.57,1.57,0,0,1-2,.59q-6.63-2-8.33-5.59c-.46-.69-.95-.7-1.46-.05a13.27,13.27,0,0,1-8.84,6.16,1.68,1.68,0,0,1-2-.69l-1.19-1.62c-.49-.68-.33-1.16.47-1.41a13.56,13.56,0,0,0,6.06-3.25,9.84,9.84,0,0,0,3-4.27c.29-.8,0-1.2-.85-1.2h-.77a2.31,2.31,0,0,0-2,1,12.6,12.6,0,0,1-2.78,3.2,1.18,1.18,0,0,1-1.83-.13l-.82-.81-.81-.64c-.68-.51-.71-1-.08-1.58,3-2.31,4.71-4.61,5-6.92a1.29,1.29,0,0,1,1.58-1l2.3.39c.83.11,1.06.64.69,1.58s-.05,1.2.81,1.2l11.71-.22,2.47.6a1,1,0,0,1,.82,1.5,43.56,43.56,0,0,1-2,4.91,1.43,1.43,0,0,1-1.8.85l-2-.55a1,1,0,0,1-.81-1.5ZM202.66,201.2c-.83-.23-1-.67-.43-1.33l1.33-1.62a1.9,1.9,0,0,1,2.05-.69c2.48.63,4.85,1.36,7.13,2.18a61.24,61.24,0,0,1,6.24,2.31c.8.31.94.8.43,1.45l-1.62,2.05a1.46,1.46,0,0,1-1.93.47A79,79,0,0,0,202.66,201.2Z"/><path class="cls-6" d="M243.29,201.54h13c1.88,0,3.12-.41,3.72-1.24a9.25,9.25,0,0,0,1.24-4.19c.08-.85.51-1.12,1.28-.81l2.39.94a1.5,1.5,0,0,1,1,1.75q-.48,4.19-2.35,6.15t-7,2H243.25q-5.69,0-7.73-1.71t-2-6.58V187.65q0-1.28-1.2-.9l-3.59,1.16a1.09,1.09,0,0,1-1.53-.86l-.65-2.22a1.11,1.11,0,0,1,.86-1.54l4.91-1.54a1.59,1.59,0,0,0,1.2-1.66v-9a1.11,1.11,0,0,1,1.24-1.28h2.52a1.09,1.09,0,0,1,1.24,1.24v7.52c0,.83.4,1.11,1.2.86l4.14-1.29a1.59,1.59,0,0,0,1.2-1.66v-8.33a1.13,1.13,0,0,1,1.28-1.29h2.52a1.14,1.14,0,0,1,1.28,1.29v6.7c0,.86.4,1.14,1.2.86l8.07-2.95,3.08,1a.74.74,0,0,1,.55,1,127.64,127.64,0,0,1-1.71,17.86c-.11.82-.58,1.12-1.41.89l-1.7-.51a1.35,1.35,0,0,1-1.12-1.58,94.9,94.9,0,0,0,.9-11.49c0-.86-.4-1.16-1.19-.9l-5.47,1.75a1.6,1.6,0,0,0-1.2,1.67v13.41a1.13,1.13,0,0,1-1.28,1.28h-2.52a1.13,1.13,0,0,1-1.28-1.28V184q0-1.29-1.2-.9l-4.14,1.33a1.59,1.59,0,0,0-1.2,1.66v11.79c0,1.6.27,2.61.81,3S241.21,201.54,243.29,201.54Z"/><path class="cls-6" d="M311.1,193.89a1.13,1.13,0,0,1-1.28,1.28h-5.9a2.19,2.19,0,0,0-2,1.07,9.73,9.73,0,0,1-2.22,2.65c-.63.57-.53,1,.3,1.15q6.27,1.5,9.44,2.57c.79.25.87.64.21,1.15l-2.61,2.05a2.13,2.13,0,0,1-2.17.34,97.82,97.82,0,0,0-11.07-3.29q-6.4,3-18.37,3.85a1.58,1.58,0,0,1-1.71-1.07l-.9-2.09c-.34-.77-.08-1.17.77-1.2q8.37-.34,10.77-1.2c.82-.17.82-.32,0-.47q-3.93-.81-5.9-1.19c-.83-.15-1-.54-.43-1.2a23.79,23.79,0,0,0,1.67-2.09c.51-.69.34-1-.51-1h-5.56a1.13,1.13,0,0,1-1.28-1.28v-1.62a1.14,1.14,0,0,1,1.28-1.29H282a2.07,2.07,0,0,0,1.92-1.11,11,11,0,0,0,.94-1.62,1.54,1.54,0,0,1,1.8-.94l2.61.56c.82.17,1,.64.68,1.41l-.3.55c-.43.77-.21,1.15.64,1.15H298a1.74,1.74,0,0,0,1.76-1.19,1.32,1.32,0,0,1,1.71-.9l3,.73c.45.11.59.41.42.89-.11.32,0,.47.35.47h4.61a1.14,1.14,0,0,1,1.28,1.29Zm-2.22-8.08a1.14,1.14,0,0,1-1.28,1.29H276.32a1.14,1.14,0,0,1-1.28-1.29v-9.4a1.13,1.13,0,0,1,1.28-1.28H283a1.13,1.13,0,0,0,1.28-1.28,1,1,0,0,0-1.15-1.15h-8.81a1.12,1.12,0,0,1-1.28-1.24v-1.88c0-.86.41-1.28,1.24-1.28H309a1.11,1.11,0,0,1,1.28,1.24v1.87A1.14,1.14,0,0,1,309,172.7h-9a1.13,1.13,0,0,0-1.28,1.28,1,1,0,0,0,1.15,1.15h7.78a1.13,1.13,0,0,1,1.28,1.28Zm-27.82-6.66a1.13,1.13,0,0,0-1.28,1.28v1.41a1.13,1.13,0,0,0,1.28,1.28H283a1.13,1.13,0,0,0,1.28-1.28v-1.41a1.13,1.13,0,0,0-1.28-1.28Zm14.57,16.92c.6-.6.47-.9-.38-.9h-8.2a1.36,1.36,0,0,0-1.16.6c-.51.68-.35,1.1.47,1.24q2.91.56,6.33,1.32A11,11,0,0,0,295.63,196.07Zm-5.29-23.37a1.13,1.13,0,0,0-1.29,1.28,1,1,0,0,0,1.16,1.15h2.39a1.13,1.13,0,0,0,1.28-1.28,1,1,0,0,0-1.15-1.15Zm-1.29,9.14a1.13,1.13,0,0,0,1.29,1.28h2.26a1.13,1.13,0,0,0,1.28-1.28v-1.41a1.13,1.13,0,0,0-1.28-1.28h-2.26a1.14,1.14,0,0,0-1.29,1.28Zm14.75-1.41a1.14,1.14,0,0,0-1.29-1.28H300a1.13,1.13,0,0,0-1.28,1.28v1.41a1.13,1.13,0,0,0,1.28,1.28h2.56a1.13,1.13,0,0,0,1.29-1.28Z"/><path class="cls-6" d="M355.84,190.09a1.12,1.12,0,0,1-1.29,1.24H342.72c-.86,0-1,.32-.51,1a18.47,18.47,0,0,0,14,8.8c.8.23.95.68.47,1.37l-2.14,3a1.51,1.51,0,0,1-1.92.59q-10.17-2.82-13.76-9.74c-.48-.68-1-.7-1.49,0q-4.27,7.44-15.34,10.08a1.77,1.77,0,0,1-2-.64l-2.14-2.6c-.54-.66-.41-1.11.39-1.37q13.36-3.84,14.57-9.27.56-1.11-.69-1.11H319.6a1.14,1.14,0,0,1-1.28-1.29v-2.52a1.12,1.12,0,0,1,1.28-1.24h13.51a1.13,1.13,0,0,0,1.28-1.28v-3.25a1.13,1.13,0,0,0-1.28-1.28H322.42a1.13,1.13,0,0,1-1.28-1.28v-2.52a1.11,1.11,0,0,1,1.28-1.24H327c.86,0,1.11-.38.77-1.15a12.34,12.34,0,0,0-2.48-4.23c-.54-.66-.42-1.17.35-1.54l2-1a1.41,1.41,0,0,1,1.92.42q3,3.47,3.34,4.87.38,1.2-1.11,2c-.74.43-.69.64.17.64h7.73a2.07,2.07,0,0,0,1.92-1.07,30.94,30.94,0,0,0,3.21-6.32,1.15,1.15,0,0,1,1.62-.81l3.16,1.07c.8.25,1,.75.6,1.49a42.9,42.9,0,0,1-2.86,4.57c-.49.72-.3,1.07.55,1.07h4.53a1.13,1.13,0,0,1,1.28,1.28v2.52c0,.83-.42,1.24-1.28,1.24H341.65a1.13,1.13,0,0,0-1.28,1.28V185a1.13,1.13,0,0,0,1.28,1.28h12.9a1.14,1.14,0,0,1,1.29,1.29Z"/><path class="cls-6" d="M372.29,182.61a1.12,1.12,0,0,1,.38,1.75l-1.45,2.14a1.07,1.07,0,0,1-1.71.3,26.33,26.33,0,0,0-5.81-3.34.94.94,0,0,1-.39-1.58l1.24-1.75a1.39,1.39,0,0,1,1.88-.51A35.69,35.69,0,0,1,372.29,182.61Zm-1.07,8c.37-.74.87-.82,1.49-.25l1.88,1.66a1.52,1.52,0,0,1,.39,2,106.9,106.9,0,0,1-6.37,11.32,1,1,0,0,1-1.62.3l-2.31-1.88a1.2,1.2,0,0,1-.3-1.79A85.56,85.56,0,0,0,371.22,190.64ZM374.76,171a1.06,1.06,0,0,1,.35,1.71l-1.5,2.09a1.11,1.11,0,0,1-1.75.3,25.89,25.89,0,0,0-5.81-3.42c-.74-.4-.86-.93-.34-1.58l1.28-1.71a1.45,1.45,0,0,1,1.92-.51A27.3,27.3,0,0,1,374.76,171Zm16.75,28.41a1.14,1.14,0,0,0,1.29,1.28H401a1.13,1.13,0,0,1,1.28,1.28v2.27a1.13,1.13,0,0,1-1.28,1.28H375.88a1.14,1.14,0,0,1-1.29-1.28v-2.27a1.14,1.14,0,0,1,1.29-1.28h9.05a1.14,1.14,0,0,0,1.29-1.28v-6.15a1.14,1.14,0,0,0-1.29-1.29h-6.06a1.13,1.13,0,0,1-1.29-1.28v-2.26a1.13,1.13,0,0,1,1.29-1.28h6.06a1.12,1.12,0,0,0,1.29-1.24v-5a1.13,1.13,0,0,0-1.29-1.28h-7.77a1.13,1.13,0,0,1-1.28-1.29V176a1.13,1.13,0,0,1,1.28-1.28H386c.85,0,1.15-.41.9-1.24a12.12,12.12,0,0,0-1.93-4.23c-.45-.71-.28-1.2.52-1.45l2.3-.82a1.43,1.43,0,0,1,1.84.73,18.72,18.72,0,0,1,2.31,4.32,1.12,1.12,0,0,1-.77,1.62l-1.67,1.07h10.47a1.13,1.13,0,0,1,1.28,1.28v2.26a1.13,1.13,0,0,1-1.28,1.29H392.8c-.86,0-1.29.41-1.29,1.24v5a1.14,1.14,0,0,0,1.29,1.29h5.59a1.13,1.13,0,0,1,1.28,1.28v2.26a1.13,1.13,0,0,1-1.28,1.28H392.8a1.14,1.14,0,0,0-1.29,1.29Z"/><path class="cls-6" d="M422.53,170.13a1.13,1.13,0,0,1,1.28,1.28v26.15a1.13,1.13,0,0,1-1.28,1.29h-7.35a1.11,1.11,0,0,0-1.24,1.28V201a1.13,1.13,0,0,1-1.28,1.28h-2.22a1.13,1.13,0,0,1-1.28-1.28V171.41a1.13,1.13,0,0,1,1.28-1.28Zm-3.46,5.81a1.13,1.13,0,0,0-1.28-1.28h-2.56a1.14,1.14,0,0,0-1.29,1.28v4.88a1.14,1.14,0,0,0,1.29,1.28h2.56a1.13,1.13,0,0,0,1.28-1.28ZM413.94,193q0,1.23,1.29,1.23h2.56c.85,0,1.28-.41,1.28-1.23v-5.22a1.13,1.13,0,0,0-1.28-1.28h-2.56a1.14,1.14,0,0,0-1.29,1.28Zm32.39-18.38a1.13,1.13,0,0,1,1.28,1.28v2.53c0,.82-.42,1.23-1.28,1.23h-1.79a1.13,1.13,0,0,0-1.28,1.29v19a8.29,8.29,0,0,1-.56,3.46,3.63,3.63,0,0,1-2,1.75c-1.48.66-4.1,1-7.86.9a1.49,1.49,0,0,1-1.58-1.28,9.12,9.12,0,0,0-.77-2.78c-.48-.71-.3-1.06.56-1q3,.14,5.76.09a1.42,1.42,0,0,0,1-.26,1.19,1.19,0,0,0,.3-.94V181a1.14,1.14,0,0,0-1.29-1.29H426.72a1.13,1.13,0,0,1-1.28-1.28V175.9a1.12,1.12,0,0,1,1.28-1.24H436.8a1.13,1.13,0,0,0,1.29-1.28v-5a1.13,1.13,0,0,1,1.28-1.28H442a1.14,1.14,0,0,1,1.29,1.28v5a1.13,1.13,0,0,0,1.28,1.28Zm-10.55,16.11a1.13,1.13,0,0,1-.47,1.75L433,193.85a1.09,1.09,0,0,1-1.71-.47,83.12,83.12,0,0,0-4.78-7.61,1,1,0,0,1,.43-1.66l2-1a1.27,1.27,0,0,1,1.84.43Q435.36,189.92,435.78,190.77Z"/><path class="cls-6" d="M491.37,190.94a1.13,1.13,0,0,1,1.28,1.28v1.33a1.13,1.13,0,0,1-1.28,1.28h-1.93a1.12,1.12,0,0,0-1.24,1.28V201a1.13,1.13,0,0,1-1.28,1.28h-2.6A1.13,1.13,0,0,1,483,201a.41.41,0,0,0-.47-.47h-5.93a1.16,1.16,0,0,0-1.29,1.33,5.77,5.77,0,0,1-.51,2.77,3.72,3.72,0,0,1-2.05,1.59,18.43,18.43,0,0,1-6,.64,1.6,1.6,0,0,1-1.67-1.2,4.74,4.74,0,0,0-.55-1.75c-.49-.71-.3-1.06.55-1,.51,0,1.84,0,4,0a1.36,1.36,0,0,0,.82-.26,1.2,1.2,0,0,0,.25-.86,1.13,1.13,0,0,0-1.28-1.28H458.47a1.14,1.14,0,0,1-1.29-1.28v-1.11a1.13,1.13,0,0,1,1.29-1.28h10.42a1.13,1.13,0,0,0,1.28-1.28.64.64,0,0,0-.72-.73H454.54a1.14,1.14,0,0,1-1.29-1.28v-1.33a1.14,1.14,0,0,1,1.29-1.28h14.39a1.11,1.11,0,0,0,1.24-1.28.49.49,0,0,0-.55-.56H458.81a1.13,1.13,0,0,1-1.28-1.28V187a1.13,1.13,0,0,1,1.28-1.28h10.08a1.11,1.11,0,0,0,1.28-1.24.56.56,0,0,0-.64-.64h-9.65a1.14,1.14,0,0,1-1.29-1.29v-5.89a1.13,1.13,0,0,1,1.29-1.28h9a1.13,1.13,0,0,0,1.28-1.29.41.41,0,0,0-.47-.47H455.52a1.13,1.13,0,0,1-1.28-1.28v-1.45a1.13,1.13,0,0,1,1.28-1.28h13.37c.86,0,1.28-.5,1.28-1.5a1.14,1.14,0,0,1,1.29-1.28h2.6c.86,0,1.28.5,1.28,1.5a1.14,1.14,0,0,0,1.29,1.28h13.8a1.11,1.11,0,0,1,1.24,1.28v1.45a1.13,1.13,0,0,1-1.29,1.28h-13.8a1.12,1.12,0,0,0-1.24,1.29.42.42,0,0,0,.47.47H486.2a1.13,1.13,0,0,1,1.28,1.28v5.89a1.14,1.14,0,0,1-1.28,1.29h-9.57c-.86,0-1.29.41-1.29,1.24a.57.57,0,0,0,.64.64h10.94A1.13,1.13,0,0,1,488.2,187v2.69a1.12,1.12,0,0,0,1.24,1.28Zm-27.9-11.11a.67.67,0,0,0,.76.77h5.17a.68.68,0,0,0,.77-.77,1.13,1.13,0,0,0-1.28-1.28h-4.14A1.13,1.13,0,0,0,463.47,179.83Zm18.8-.51a.68.68,0,0,0-.77-.77h-5.39a.68.68,0,0,0-.77.77,1.14,1.14,0,0,0,1.29,1.28H481A1.14,1.14,0,0,0,482.27,179.32Zm-5.64,9.78a1.14,1.14,0,0,0-1.29,1.29.49.49,0,0,0,.56.55h5.85a1.13,1.13,0,0,0,1.28-1.28c0-.37-.17-.56-.51-.56Zm5.12,7.74a1.13,1.13,0,0,0,1.28-1.28.64.64,0,0,0-.72-.73h-5.68a1.14,1.14,0,0,0-1.29,1.28.64.64,0,0,0,.73.73Z"/><g class="cls-7"><path class="cls-8" d="M45.17,132.41a1.17,1.17,0,0,1,1-1.54l2.82-.68a1.47,1.47,0,0,0,1.24-1.58v-5a1.11,1.11,0,0,0-1.28-1.24h-2c-.86,0-1.28-.41-1.28-1.24V119a1.13,1.13,0,0,1,1.28-1.28h2a1.13,1.13,0,0,0,1.28-1.28v-5.47a1.13,1.13,0,0,1,1.28-1.28h2.23A1.13,1.13,0,0,1,55,110.92v5.47a1.13,1.13,0,0,0,1.28,1.28H57.9c.86,0,1.28.41,1.28,1.24v2.18a1.13,1.13,0,0,1-1.28,1.28H56.28A1.13,1.13,0,0,0,55,123.65v3.68c0,.85.4,1.18,1.19,1l1.24-.34c.83-.23,1.3.07,1.41.89l.3,2a1.33,1.33,0,0,1-1,1.63l-1.93.6A1.52,1.52,0,0,0,55,134.76v8.8a8.28,8.28,0,0,1-.39,2.86,3.35,3.35,0,0,1-1.36,1.67,8.29,8.29,0,0,1-4.71,1A1.44,1.44,0,0,1,47,147.88l-.69-2.44c-.22-.8.09-1.12.94-1a8.62,8.62,0,0,0,2.74-.3.88.88,0,0,0,.21-.64v-7.39c0-.86-.41-1.17-1.24-.94l-1.71.51a1,1,0,0,1-1.49-.9ZM83,112.28a1.13,1.13,0,0,1,1.28,1.29v30.5a7.82,7.82,0,0,1-.38,2.78,3.13,3.13,0,0,1-1.41,1.62,9.29,9.29,0,0,1-4.7.9,1.43,1.43,0,0,1-1.54-1.28,7,7,0,0,0-.51-2.26c-.43-.75-.21-1.09.64-1a22.89,22.89,0,0,0,2.35,0c.46,0,.68-.24.68-.73v-6.58a1.13,1.13,0,0,0-1.28-1.28H75.85a1.13,1.13,0,0,0-1.28,1.28v9.61a1.14,1.14,0,0,1-1.29,1.29H71.19a1.14,1.14,0,0,1-1.28-1.29v-9.61a1.13,1.13,0,0,0-1.28-1.28H65.89a1.3,1.3,0,0,0-1.45,1.24q-1.06,8.72-3.76,11.15a1,1,0,0,1-1.67.13l-1-.86-.81-.68a1,1,0,0,1-.47-1.67,12.5,12.5,0,0,0,2.77-7.17,60.32,60.32,0,0,0,.86-10.64v-14.1a1.14,1.14,0,0,1,1.28-1.29ZM65,130.4a1.09,1.09,0,0,0,1.24,1.28h2.35a1.13,1.13,0,0,0,1.28-1.28v-2.65a1.13,1.13,0,0,0-1.28-1.28h-2.4c-.77,0-1.15.4-1.15,1.2S65.07,129.38,65,130.4Zm4.87-12.3a1.14,1.14,0,0,0-1.28-1.29H66.36a1.14,1.14,0,0,0-1.28,1.29v2.65A1.13,1.13,0,0,0,66.36,122h2.27a1.13,1.13,0,0,0,1.28-1.28Zm8.2,3.93a1.13,1.13,0,0,0,1.28-1.28V118.1a1.13,1.13,0,0,0-1.28-1.29H75.85a1.13,1.13,0,0,0-1.28,1.29v2.65A1.13,1.13,0,0,0,75.85,122Zm-3.54,8.37a1.13,1.13,0,0,0,1.28,1.28h2.26a1.13,1.13,0,0,0,1.28-1.28v-2.65a1.13,1.13,0,0,0-1.28-1.28H75.85a1.13,1.13,0,0,0-1.28,1.28Z"/><path class="cls-8" d="M129.6,118.22a1.12,1.12,0,0,1-1.24,1.29H107.94a1.9,1.9,0,0,0-1.84,1.11l-.6,1.15c-.37.74-.13,1.11.73,1.11h17.3a1.13,1.13,0,0,1,1.28,1.28V144a7.62,7.62,0,0,1-.47,3,3.2,3.2,0,0,1-1.75,1.63c-1.17.56-3.26.85-6.28.85a1.49,1.49,0,0,1-1.58-1.28,8.49,8.49,0,0,0-.64-2.48c-.4-.77-.17-1.14.68-1.11.6.06,2,.08,4.1.08.66,0,1-.31,1-.85v-1.28a1.13,1.13,0,0,0-1.29-1.28h-13.5a1.53,1.53,0,0,0-1.62,1.24c-.86,3.73-2,5.89-3.38,6.49a1.13,1.13,0,0,1-1.79-.26l-1-1.11-.9-1a1,1,0,0,1-.17-1.71A6.27,6.27,0,0,0,98,142.24a13.22,13.22,0,0,0,1.11-3.89,33,33,0,0,0,.22-4.19V132c0-.85-.3-1-.9-.38a19.52,19.52,0,0,1-3.38,3,1.18,1.18,0,0,1-1.83-.22l-1.71-2a1.08,1.08,0,0,1,.17-1.75,22.88,22.88,0,0,0,8.67-10c.4-.74.17-1.11-.68-1.11H93a1.14,1.14,0,0,1-1.28-1.29V116A1.13,1.13,0,0,1,93,114.72h8.89a1.67,1.67,0,0,0,1.71-1.2,19.14,19.14,0,0,0,.94-2.77,1.2,1.2,0,0,1,1.58-.94l2.78.68a1,1,0,0,1,.85,1.45l-.6,1.54c-.25.83,0,1.24.9,1.24h18.29A1.13,1.13,0,0,1,129.6,116Zm-25.13,17.56a1.1,1.1,0,0,0,1.24,1.29h12.86q1.29,0,1.29-1.5a1.14,1.14,0,0,0-1.29-1.28H105.8C104.94,134.29,104.5,134.79,104.47,135.78Zm14.1-5.72q1.29,0,1.29-1.41a1.13,1.13,0,0,0-1.29-1.28H105.8c-.86,0-1.28.47-1.28,1.41a1.13,1.13,0,0,0,1.28,1.28Z"/><path class="cls-8" d="M156.52,129.67a1.14,1.14,0,0,0-1.29,1.29v17.26A1.13,1.13,0,0,1,154,149.5h-2.3a1.14,1.14,0,0,1-1.29-1.28v-1c0-.85-.41-1.25-1.24-1.19q-10.68,1.16-11,1.24a1.19,1.19,0,0,1-1.41-1.2l-.21-1.75a1.1,1.1,0,0,1,1.15-1.37l1.24,0a1.27,1.27,0,0,0,1.28-1.41V131a1.14,1.14,0,0,0-1.28-1.29h-.77a1.13,1.13,0,0,1-1.28-1.28v-1.45a1.13,1.13,0,0,1,1.28-1.28h35.55a1.13,1.13,0,0,1,1.28,1.28v1.45c0,.86-.41,1.28-1.24,1.28Zm-9.32-15.25a1.13,1.13,0,0,0-1.28,1.28v7.65a1.13,1.13,0,0,1-1.28,1.28h-2.31a1.13,1.13,0,0,1-1.28-1.28V112.16c0-.86.41-1.29,1.24-1.29h27.3a1.14,1.14,0,0,1,1.28,1.29v11.19a1.13,1.13,0,0,1-1.28,1.28H167a1.13,1.13,0,0,1-1.28-1.28V115.7a1.14,1.14,0,0,0-1.29-1.28Zm-1.15,20.47a1.13,1.13,0,0,0-1.28,1.28.41.41,0,0,0,.47.47h3.84a1.13,1.13,0,0,0,1.28-1.28.41.41,0,0,0-.47-.47Zm-1.28,6.53a.82.82,0,0,0,1,.94l4.1-.38a.5.5,0,0,0,.51-.56,1.13,1.13,0,0,0-1.28-1.28h-3A1.13,1.13,0,0,0,144.77,141.42Zm5.17-10.55c.28-.8,0-1.17-.86-1.11l-3,.21c-.86.06-1,.43-.56,1.11l.56.26h3Zm13.11-14.78c.86,0,1.28.57,1.28,1.71a1.13,1.13,0,0,1-1.28,1.28H148.57c-.83,0-1.24-.57-1.24-1.71,0-.86.41-1.28,1.24-1.28Zm-14.44,7.82a1.14,1.14,0,0,1-1.28-1.29V122c0-.82.43-1.23,1.28-1.23h14.32a1.13,1.13,0,0,1,1.28,1.28v.64a1.12,1.12,0,0,1-1.28,1.24Zm22.13,7.17,1.93.77a1.17,1.17,0,0,1,.81,1.63q-1.71,5.9-4.4,7.94c-.52.66-.4,1.2.34,1.63a12.8,12.8,0,0,0,5,2.22c.85.14,1,.56.51,1.24l-1.45,1.92a1.63,1.63,0,0,1-2,.64q-4.53-1.32-5.72-2.69a1.6,1.6,0,0,0-2-.13,15.47,15.47,0,0,1-4.92,2.74,1.6,1.6,0,0,1-2-.69L156,147c-.48-.71-.36-1.25.39-1.62a27.72,27.72,0,0,0,3.93-2.36,1,1,0,0,0,.3-1.66q-2.45-2.86-2.74-4.23L158,136c.63-.57.43-.86-.6-.86a1.13,1.13,0,0,1-1.28-1.28v-1.32a1.14,1.14,0,0,1,1.28-1.29Zm-3.63,5.17c.4-.74.17-1.11-.68-1.11h-3.5q-1.29,0-.69,1.11a7.69,7.69,0,0,0,1.58,2.27,1,1,0,0,0,1.67,0A8.44,8.44,0,0,0,167.11,136.25Z"/><path class="cls-8" d="M193.26,137.19a1.1,1.1,0,0,1,.56-1.7l2.09-1a1.23,1.23,0,0,1,1.79.51,60.52,60.52,0,0,1,4.79,8.93,1.25,1.25,0,0,1-.64,1.75L199.33,147a1,1,0,0,1-1.54-.6l-.51-1.32a1.3,1.3,0,0,0-1.75-.77q-6,1.88-8.42,2.73a14.36,14.36,0,0,0-2.22.9c-.74.43-1.26.24-1.54-.56l-1.11-2.77a1.67,1.67,0,0,1,.55-2c.66-.12,1-.84,1-2.18V113a1.13,1.13,0,0,1,1.28-1.28h15.42a1.13,1.13,0,0,1,1.28,1.28v18.54a1.13,1.13,0,0,1-1.28,1.29H190.27a1.13,1.13,0,0,0-1.28,1.28V140c0,.86.4,1.17,1.19.94l3.29-.94c.8-.23,1-.71.6-1.45Zm3.42-19.69a1.11,1.11,0,0,0-1.28-1.24h-5.13A1.11,1.11,0,0,0,189,117.5v1.11a1.13,1.13,0,0,0,1.28,1.28h5.13a1.13,1.13,0,0,0,1.28-1.28ZM189,127a1.13,1.13,0,0,0,1.28,1.28h5.13a1.13,1.13,0,0,0,1.28-1.28V125.7a1.13,1.13,0,0,0-1.28-1.28h-5.13A1.13,1.13,0,0,0,189,125.7Zm29.18-15a1.13,1.13,0,0,1,1.28,1.28V136.6a8.86,8.86,0,0,1-.38,2.86,3.11,3.11,0,0,1-1.45,1.62,10,10,0,0,1-4.79.86,1.43,1.43,0,0,1-1.54-1.28,7.06,7.06,0,0,0-.51-2.4c-.43-.74-.22-1.08.64-1s1.54,0,2.14,0,.89-.29.89-.77V118a1.13,1.13,0,0,0-1.28-1.28h-2.61a1.13,1.13,0,0,0-1.28,1.28v30.25A1.13,1.13,0,0,1,208,149.5h-2.56a1.13,1.13,0,0,1-1.28-1.28V113.31A1.11,1.11,0,0,1,205.4,112Z"/><path class="cls-8" d="M241.37,112.93a1.13,1.13,0,0,1,1.28,1.28v26.15a1.13,1.13,0,0,1-1.28,1.28H234a1.12,1.12,0,0,0-1.24,1.28v.85a1.13,1.13,0,0,1-1.28,1.29h-2.22a1.13,1.13,0,0,1-1.28-1.29V114.21a1.13,1.13,0,0,1,1.28-1.28Zm-3.46,5.81a1.14,1.14,0,0,0-1.28-1.29h-2.57a1.14,1.14,0,0,0-1.28,1.29v4.87a1.13,1.13,0,0,0,1.28,1.28h2.57a1.13,1.13,0,0,0,1.28-1.28Zm-5.13,17.09a1.12,1.12,0,0,0,1.28,1.24h2.57a1.12,1.12,0,0,0,1.28-1.24v-5.22a1.13,1.13,0,0,0-1.28-1.28h-2.57a1.13,1.13,0,0,0-1.28,1.28Zm32.39-18.38a1.14,1.14,0,0,1,1.28,1.29v2.52a1.12,1.12,0,0,1-1.28,1.24h-1.79a1.13,1.13,0,0,0-1.29,1.28v19a8.32,8.32,0,0,1-.55,3.46,3.63,3.63,0,0,1-2,1.75q-2.22,1-7.86.9a1.48,1.48,0,0,1-1.58-1.28,9.42,9.42,0,0,0-.77-2.78c-.49-.71-.3-1.05.55-1,2,.09,3.92.12,5.77.09a1.39,1.39,0,0,0,1-.26,1.19,1.19,0,0,0,.3-.94V123.78a1.13,1.13,0,0,0-1.28-1.28H245.56a1.13,1.13,0,0,1-1.28-1.29v-2.52a1.11,1.11,0,0,1,1.28-1.24h10.08a1.13,1.13,0,0,0,1.28-1.28v-5a1.14,1.14,0,0,1,1.29-1.28h2.6a1.13,1.13,0,0,1,1.28,1.28v5a1.13,1.13,0,0,0,1.29,1.28Zm-10.55,16.11a1.14,1.14,0,0,1-.47,1.75l-2.27,1.33a1.09,1.09,0,0,1-1.71-.47,84.52,84.52,0,0,0-4.78-7.61,1,1,0,0,1,.42-1.66l2-1a1.28,1.28,0,0,1,1.84.43Q254.2,132.7,254.62,133.56Z"/><path class="cls-8" d="M299,115c-.26.79,0,1.19.9,1.19h9.44a1.09,1.09,0,0,1,1.24,1.28v1q-.43,15-1,20.77c-.35,3.84-.94,6.31-1.8,7.39a6.27,6.27,0,0,1-4.1,2.35,31.38,31.38,0,0,1-5.43.08,1.59,1.59,0,0,1-1.66-1.19l-.9-2.57q-.39-1.19.9-1.11a48.71,48.71,0,0,0,5.08.17,2.55,2.55,0,0,0,1.88-.72q.9-1,1.41-6.16t.86-15.42a1.11,1.11,0,0,0-1.24-1.28H298a1.81,1.81,0,0,0-1.79,1.15,23.38,23.38,0,0,1-2.52,4.57,1.09,1.09,0,0,1-1.75.26l-1.2-.94c-.71-.46-1.07-.26-1.07.6v17.39a1.13,1.13,0,0,1-1.28,1.28h-8.84a1.14,1.14,0,0,0-1.29,1.28v.56a1.13,1.13,0,0,1-1.28,1.28h-2a1.12,1.12,0,0,1-1.28-1.24V117.75a1.13,1.13,0,0,1,1.28-1.28h2.27a1.41,1.41,0,0,0,1.53-1.24,22.45,22.45,0,0,0,.9-4.36c.06-.85.5-1.22,1.33-1.11l3,.43c.85.12,1.15.57.9,1.37q-.81,2.31-1.41,3.72c-.29.79,0,1.19.85,1.19h4.06a1.13,1.13,0,0,1,1.28,1.28v4.36c0,.86.22.93.64.22a29.85,29.85,0,0,0,4.83-11.46,1.17,1.17,0,0,1,1.54-1l2.39.6A1.08,1.08,0,0,1,300,112,27.34,27.34,0,0,1,299,115Zm-15.25,12.86a1.13,1.13,0,0,0,1.28-1.28V122.2a1.14,1.14,0,0,0-1.28-1.29h-4.23a1.14,1.14,0,0,0-1.29,1.29v4.36a1.14,1.14,0,0,0,1.29,1.28Zm-5.52,11.49a1.13,1.13,0,0,0,1.29,1.28h4.23a1.13,1.13,0,0,0,1.28-1.28v-5.81a1.13,1.13,0,0,0-1.28-1.28h-4.23a1.13,1.13,0,0,0-1.29,1.28Zm24.66-4.78a1.14,1.14,0,0,1-.43,1.75l-2.18,1.36a1,1,0,0,1-1.62-.47,52.67,52.67,0,0,0-4.7-7.69,1,1,0,0,1,.43-1.66l1.75-1a1.23,1.23,0,0,1,1.83.39A69.59,69.59,0,0,1,302.9,134.55Z"/><path class="cls-8" d="M334.34,136.77a1.54,1.54,0,0,1,1.63-1.24h2.39c.86,0,1.18.43,1,1.28a11.67,11.67,0,0,1-.94,2.86,13.3,13.3,0,0,1-2.22,3.42,12.29,12.29,0,0,1-3.59,2.78,35.42,35.42,0,0,1-11.92,3.5,1.62,1.62,0,0,1-1.84-.9l-1.06-2.05c-.4-.74-.19-1.15.64-1.24q6.57-.68,9.06-1.92a11.91,11.91,0,0,0,5.08-3.12A8.23,8.23,0,0,0,334.34,136.77Zm-5.42-16.54c.8-.25,1.27,0,1.41.86l.38,1.88a1.3,1.3,0,0,1-.94,1.66q-6.11,2.27-9.44,3.42a1.11,1.11,0,0,1-1.58-.81L318,125a1,1,0,0,1,.85-1.49Q322.85,122.42,328.92,120.23Zm.17-6a1.17,1.17,0,0,1,.26,1.79l-1.2,1.76a1.18,1.18,0,0,1-1.8.34,13.73,13.73,0,0,0-2.86-1.8,26,26,0,0,0-3.5-1.71c-.77-.34-.91-.85-.43-1.53l1-1.37a1.58,1.58,0,0,1,2-.6Q328.15,113.14,329.09,114.25ZM352,139.76a1.13,1.13,0,0,1-1.28,1.28h-2.74a1.13,1.13,0,0,1-1.28-1.28V135.7a1.13,1.13,0,0,0-1.28-1.28H329c-.83,0-1.24.42-1.24,1.28v4.53a1.11,1.11,0,0,1-1.24,1.28H324a1.12,1.12,0,0,1-1.24-1.28v-9.15A1.13,1.13,0,0,1,324,129.8h26.67a1.13,1.13,0,0,1,1.28,1.28Zm-2.74-21.58c.32-.8.05-1.19-.81-1.19h-1.54a1.59,1.59,0,0,0-1.66,1.28A14.86,14.86,0,0,0,355.37,125c.79.23.94.68.42,1.36l-1.41,1.93a1.58,1.58,0,0,1-2,.6q-6.63-2-8.33-5.6c-.46-.69-.94-.7-1.46,0a13.25,13.25,0,0,1-8.84,6.15,1.67,1.67,0,0,1-2-.68l-1.19-1.63c-.49-.68-.33-1.15.47-1.41a13.5,13.5,0,0,0,6.07-3.25,9.89,9.89,0,0,0,2.94-4.27c.29-.8,0-1.19-.85-1.19h-.77a2.33,2.33,0,0,0-2,1,12.6,12.6,0,0,1-2.78,3.2,1.18,1.18,0,0,1-1.83-.12l-.81-.82-.82-.64c-.68-.51-.71-1-.08-1.58,3-2.3,4.71-4.61,5-6.92a1.28,1.28,0,0,1,1.58-1l2.3.38c.83.11,1.06.64.69,1.58s0,1.2.81,1.2l11.71-.22,2.48.6a1,1,0,0,1,.81,1.5,43.56,43.56,0,0,1-2,4.91,1.42,1.42,0,0,1-1.8.85l-2-.55a1,1,0,0,1-.81-1.5ZM338.53,144c-.82-.23-1-.67-.43-1.33l1.33-1.62a1.9,1.9,0,0,1,2.05-.68,71.69,71.69,0,0,1,7.14,2.18,60,60,0,0,1,6.23,2.3c.8.32.94.8.43,1.46l-1.62,2a1.48,1.48,0,0,1-1.93.47A79,79,0,0,0,338.53,144Z"/><path class="cls-8" d="M372.54,136.94c0,.85.33,1,1,.47l1.53-1.28c.66-.55,1.16-.43,1.5.34l.85,2a1.54,1.54,0,0,1-.42,2q-5,4.32-6.8,5.94c-1.17,1.08-1.66,1.56-1.49,1.45-.54.66-1,.61-1.41-.13l-1.2-2.09a1.6,1.6,0,0,1,.21-2c.86-.4,1.29-1.45,1.29-3.16V128.82a1.14,1.14,0,0,0-1.29-1.28h-2.52a1.13,1.13,0,0,1-1.28-1.28V124c0-.86.41-1.28,1.24-1.28h7.56c.83,0,1.24.42,1.24,1.28Zm1-20.9a1.21,1.21,0,0,1-.18,1.84l-1.83,1.63a1,1,0,0,1-1.67-.22,23.2,23.2,0,0,0-4.36-5.13,1,1,0,0,1,.09-1.7l1.58-1.33a1.21,1.21,0,0,1,1.84.09A41.39,41.39,0,0,1,373.53,116Zm2.6-3.16a1.13,1.13,0,0,1,1.28-1.28h18.85a1.13,1.13,0,0,1,1.28,1.28q-.44,10.82,0,20.08.42,10.56,1.83,10.94c.12.06.24-.64.39-2.09s.21-2.28.21-2.39c0-.86.27-.94.73-.26l2.09,3c-.31,3.14-1,5.22-2,6.24a3,3,0,0,1-3.68.64q-1.75-.67-2.65-3.63a31,31,0,0,1-1.37-6.62c-.17-2.22-.31-4-.42-5.39s-.15-3.17-.17-5.42q-.13-5.55-.13-10.34a1.13,1.13,0,0,0-1.28-1.28h-3.85a1.13,1.13,0,0,0-1.28,1.28v7.82a1.13,1.13,0,0,0,1.28,1.28H390A1.11,1.11,0,0,1,391.3,128v2.18a1.13,1.13,0,0,1-1.28,1.28h-2.78a1.13,1.13,0,0,0-1.28,1.28v14.7a1.13,1.13,0,0,1-1.28,1.28h-2.22a1.14,1.14,0,0,1-1.29-1.28v-14.7a1.13,1.13,0,0,0-1.28-1.28h-2.78a1.11,1.11,0,0,1-1.28-1.24v-2.18a1.13,1.13,0,0,1,1.28-1.28h2.78a1.13,1.13,0,0,0,1.28-1.28v-7.82a1.13,1.13,0,0,0-1.28-1.28h-2.52c-.83,0-1.24-.43-1.24-1.29Z"/></g><g class="cls-9"><path class="cls-10" d="M833.66,97a2.24,2.24,0,0,1-.76-.27l-45-25.92a3.51,3.51,0,0,1-1.79-2.95V27.57A1.71,1.71,0,0,1,787,26a2.1,2.1,0,0,1,1.94.13L833.9,52a3.51,3.51,0,0,1,1.79,3V95.37a1.66,1.66,0,0,1-.9,1.52A1.81,1.81,0,0,1,833.66,97Z"/></g><g class="cls-11"><path class="cls-10" d="M851.39,128.59a1.66,1.66,0,0,1-.55-.2l-32.45-18.67a2.53,2.53,0,0,1-1.28-2.13V78.53a1.19,1.19,0,0,1,.66-1.12,1.47,1.47,0,0,1,1.39.09l32.4,18.64a2.54,2.54,0,0,1,1.29,2.13v29.11a1.19,1.19,0,0,1-.64,1.1A1.28,1.28,0,0,1,851.39,128.59Z"/></g><g class="cls-9"><path class="cls-10" d="M699.35,105a1.12,1.12,0,0,1-.37-.14L676.73,92a1.73,1.73,0,0,1-.89-1.46V70.63a.84.84,0,0,1,.45-.77,1,1,0,0,1,1,.06l22.22,12.79a1.73,1.73,0,0,1,.89,1.46v20a.83.83,0,0,1-.44.76A.92.92,0,0,1,699.35,105Z"/></g><g class="cls-12"><path class="cls-10" d="M924.84,220.34a2.57,2.57,0,0,1-.81-.3l-48.28-27.78a3.76,3.76,0,0,1-1.92-3.17V145.85a1.83,1.83,0,0,1,1-1.68,2.22,2.22,0,0,1,2.08.15l48.21,27.73a3.77,3.77,0,0,1,1.91,3.17v43.32a1.76,1.76,0,0,1-1,1.63A2,2,0,0,1,924.84,220.34Z"/></g><path class="cls-4" d="M900.62,199.73c-4-.15-9.32-5.65-12-12.27-3-7.59-2.95-15.8.22-20.67s8.59-5.35,13.58-1.27c-.12.43-.23.85-.34,1.27-1.15,4.23-2.33,8.43-3.41,12.71a10,10,0,0,0-.17,3.45c.58,5.07,1.27,10.15,1.92,15.23C900.52,198.7,900.57,199.22,900.62,199.73Z"/><path class="cls-4" d="M902.24,200.13c-.72-5.57-1.4-10.91-2.1-16.44l10.55,9.42C909,197.77,906.22,200,902.24,200.13Z"/><path class="cls-4" d="M904,166.93c5.6,5.07,9,16.48,7.23,24.07l-11.07-9.88Q902.08,174,904,166.93Z"/><polygon class="cls-13" points="598.34 209.28 617.77 220.47 664.04 193.83 644.76 182.58 598.34 209.28"/><path class="cls-14" d="M646.33,103.16,603.1,128.07l14.67,8.44,31-25.26v-6.68A1.63,1.63,0,0,0,646.33,103.16Z"/><polygon class="cls-15" points="603.09 130.38 646.08 105.62 661.56 114.55 618.58 139.3 603.09 130.38"/><path class="cls-16" d="M662.74,111.87a1.77,1.77,0,0,0-1.88-.18l-43.09,24.82-14.67-8.44,43.23-24.91a1.64,1.64,0,0,1,1.41-.09h0s-1.51-.74-2.1-1.09a1.77,1.77,0,0,0-1.82-.13L598.34,128v76.43l17-9.82v19.66l46.51-26.79a2.81,2.81,0,0,0,1.41-2.43L664.75,113S663.4,112.28,662.74,111.87Z"/><polygon class="cls-17" points="617.77 139.25 598.34 128.06 598.34 204.49 617.77 215.68 617.77 139.25"/><polygon class="cls-18" points="615.13 143.38 600.14 134.75 600.14 140.6 615.13 149.23 615.13 143.38"/><polygon class="cls-18" points="615.13 151.1 600.14 142.47 600.14 144.49 615.13 153.12 615.13 151.1"/><polygon class="cls-18" points="615.13 154.86 600.14 146.24 600.14 148.26 615.13 156.89 615.13 154.86"/><polygon class="cls-18" points="615.13 205.74 600.14 197.11 600.14 199.13 615.13 207.76 615.13 205.74"/><path class="cls-19" d="M663.25,113.05l-45.48,26.2v76.43l46.51-26.79a2.81,2.81,0,0,0,1.41-2.44v-72A1.63,1.63,0,0,0,663.25,113.05Z"/><polygon class="cls-20" points="633.13 218.01 652.56 229.21 698.83 202.57 679.55 191.31 633.13 218.01"/><path class="cls-21" d="M681.13,108.78l-43.24,24.9,14.67,8.44,31-25.25v-6.69A1.62,1.62,0,0,0,681.13,108.78Z"/><polygon class="cls-22" points="637.88 136 680.88 111.23 696.35 120.16 653.37 144.92 637.88 136"/><path class="cls-23" d="M697.53,117.48a1.76,1.76,0,0,0-1.87-.18l-43.1,24.82-14.67-8.44,43.24-24.9a1.55,1.55,0,0,1,1.4-.09h0s-1.51-.74-2.1-1.09a1.73,1.73,0,0,0-1.81-.13l-45.49,26.2v76.42l17-9.81v19.66l46.51-26.79a2.83,2.83,0,0,0,1.41-2.44l1.45-72.09S698.19,117.89,697.53,117.48Z"/><polygon class="cls-24" points="652.56 144.87 633.13 133.68 633.13 210.1 652.56 221.29 652.56 144.87"/><polygon class="cls-4" points="649.92 149 634.94 140.37 634.94 146.21 649.92 154.84 649.92 149"/><polygon class="cls-4" points="649.92 156.71 634.94 148.09 634.94 150.11 649.92 158.74 649.92 156.71"/><polygon class="cls-4" points="649.92 160.48 634.94 151.85 634.94 153.87 649.92 162.5 649.92 160.48"/><polygon class="cls-4" points="649.92 211.35 634.94 202.72 634.94 204.75 649.92 213.38 649.92 211.35"/><path class="cls-21" d="M698.05,118.67l-45.49,26.2v76.42l46.51-26.79a2.81,2.81,0,0,0,1.41-2.43v-72A1.62,1.62,0,0,0,698.05,118.67Z"/><polygon class="cls-25" points="560.74 247.52 602.72 272.09 611.56 266.52 569.58 241.95 560.74 247.52"/><polygon class="cls-24" points="611.56 226.68 611.56 261.65 602.72 267.2 602.72 232.25 611.56 226.68"/><polygon class="cls-23" points="560.74 207.69 602.72 232.25 611.56 226.68 569.58 202.12 560.74 207.69"/><polygon class="cls-21" points="602.73 267.2 560.75 242.64 560.75 207.69 602.73 232.25 602.73 267.2"/><polygon class="cls-24" points="560.74 207.69 581.73 237.44 602.72 232.25 560.74 207.69"/><path class="cls-14" d="M594.73,214.48v6.88a1.18,1.18,0,0,1-.75,1.09,1.3,1.3,0,0,1-.4.09,1.11,1.11,0,0,1-1.15-1.12v-6.88a1.84,1.84,0,0,0-.9-1.59L581,206.8a.72.72,0,0,0-.76,0,.42.42,0,0,0-.15.11l-.05,0a.81.81,0,0,0-.18.53v5.2a1.2,1.2,0,0,1-.72,1.07.94.94,0,0,1-.43.1,1.11,1.11,0,0,1-1.15-1.11v-5.2a3.08,3.08,0,0,1,1.56-2.71,2.84,2.84,0,0,1,.75-.31,2.94,2.94,0,0,1,2.33.29L592.73,211A4.08,4.08,0,0,1,594.73,214.48Z"/><polygon class="cls-26" points="584.11 236.15 584.11 239.72 583.32 240.22 583.32 236.65 584.11 236.15"/><polygon class="cls-27" points="579.03 234.14 583.32 236.65 584.11 236.15 579.82 233.64 579.03 234.14"/><polygon class="cls-18" points="583.32 240.22 579.03 237.71 579.03 234.14 583.32 236.65 583.32 240.22"/><path class="cls-28" d="M594.73,214.48v6.88a1.18,1.18,0,0,1-.75,1.09v-6.9c0-2.51-1-3.41-1-3.41l-13.06-7.62a2.94,2.94,0,0,1,2.33.29L592.73,211A4.08,4.08,0,0,1,594.73,214.48Z"/><path class="cls-28" d="M580.06,207a.81.81,0,0,0-.18.53v5.2a1.2,1.2,0,0,1-.72,1.07v-5.29A1.84,1.84,0,0,1,580.06,207Z"/><path class="cls-29" d="M714.59,238.91,878,333.23,763.81,398.06a8.51,8.51,0,0,1-8.46,0L602.64,309.87a4.26,4.26,0,0,1,0-7.4Z"/><path class="cls-21" d="M881.79,185V307.11L878,309.24,718.42,212.79,716.31,90.56s2.62-1.44,3.58-2a3.24,3.24,0,0,1,3.27-.06l154.38,89.13A8.51,8.51,0,0,1,881.79,185Z"/><path class="cls-22" d="M878,187.13V309.24L714.59,214.91V93.36a3.15,3.15,0,0,1,4.73-2.73l154.39,89.13A8.51,8.51,0,0,1,878,187.13Z"/><polygon class="cls-19" points="870.02 185.14 870.02 296.69 719.32 209.89 719.32 98.34 870.02 185.14"/><polygon class="cls-15" points="847.34 179.09 847.34 190.82 761.99 141.66 761.99 129.93 847.34 179.09"/><polygon class="cls-14" points="764.35 139.68 764.35 134.47 844.99 180.93 844.99 186.13 764.35 139.68"/><path class="cls-30" d="M820.73,236l29.37,17a1.72,1.72,0,0,0,2.77-1.38V217.3a2.5,2.5,0,0,0-1.26-2.09l-29.37-17a1.73,1.73,0,0,0-2.77,1.39v34.3A2.5,2.5,0,0,0,820.73,236Z"/><g class="cls-31"><line class="cls-32" x1="850.65" y1="221.34" x2="821.69" y2="204.6"/><line class="cls-32" x1="850.65" y1="224.95" x2="821.69" y2="208.21"/><line class="cls-32" x1="850.65" y1="228.57" x2="821.69" y2="211.83"/><line class="cls-32" x1="850.65" y1="232.19" x2="821.69" y2="215.45"/><line class="cls-32" x1="850.65" y1="235.8" x2="821.69" y2="219.06"/><line class="cls-32" x1="850.65" y1="239.42" x2="821.69" y2="222.68"/><line class="cls-32" x1="850.65" y1="243.04" x2="821.69" y2="226.3"/><line class="cls-32" x1="850.65" y1="246.65" x2="829.11" y2="234.2"/></g><path class="cls-21" d="M714.59,219.6,878,309.24v4.68L763.81,378.75a8.51,8.51,0,0,1-8.46,0L602.64,290.55a4.23,4.23,0,0,1-2.13-3.67c0-1.45,0-4.72,0-4.72Z"/><path class="cls-33" d="M714.59,214.91,878,309.24,763.81,374.07a8.51,8.51,0,0,1-8.46,0L602.64,285.87a4.26,4.26,0,0,1,0-7.4Z"/><polygon class="cls-34" points="656.21 264.34 717.9 229.3 852.87 307.23 791.17 342.26 656.21 264.34"/><path class="cls-35" d="M798.34,286.61l-5.61-3.23,6.75-3.84,5.61,3.24Zm27.15,18.81-117.7-68L701,241.3l117.71,68ZM797.84,278.6l-5.61-3.24-6.75,3.83,5.61,3.24Zm-7.24-4.18L785,271.18,778.24,275l5.61,3.24Zm-65.2-37.65-8.14-4.7-6.75,3.84,8.14,4.7Zm94.18,54.38L814,287.91l-6.75,3.83,5.61,3.24Zm7.24,4.18-5.61-3.24-6.75,3.83,5.61,3.24ZM812.33,287l-5.61-3.24L800,287.56l5.61,3.24Zm-72.44-41.83-5.61-3.24-6.75,3.83,5.61,3.24Zm7.24,4.18-5.61-3.24-6.75,3.83,5.61,3.24Zm36.22,20.91L777.74,267,771,270.83l5.62,3.24ZM727,237.72l-6.75,3.83,5.61,3.24,6.75-3.83Zm27.35,15.78-5.61-3.24L742,254.1l5.61,3.24Zm7.24,4.19L756,254.45l-6.75,3.83,5.61,3.24Zm14.49,8.36-5.61-3.24-6.75,3.84,5.61,3.23Zm-7.24-4.18-5.62-3.24-6.74,3.83,5.61,3.24ZM835,300l-6.52-3.77-6.75,3.84,6.52,3.76Zm-47.52,27-6.6,3.75,11,6.34,6.75-3.84-11.25-6.5Zm-1.54-4.18,15.37,8.87,6.75-3.83-15.37-8.88ZM675.17,262.08l-5.26-3-6.75,3.83,5.26,3ZM791,315l19.77,11.42,6.75-3.83-19.77-11.42Zm-5,11.1-6.35-3.67-6.75,3.83,6.35,3.67ZM836.61,301l-6.75,3.84,9.31,5.37,6.75-3.84Zm-16.23,9.22,9.32,5.38,6.75-3.83-9.32-5.38Zm-14.8,2.32L820.23,321l6.75-3.83-14.65-8.45ZM690.66,278.75l6.75-3.84L676.8,263l-6.75,3.83Zm14.65.73L699,275.86l-6.75,3.83,6.27,3.62ZM810.7,307.74,698.32,242.86l-6.75,3.83L804,311.58ZM791,318.11,679.38,253.65l-6.75,3.83,111.65,64.46Zm5.08-7.93L688.85,248.25l-6.75,3.84L789.36,314Zm-26.21,6.59-47.15-27.22L716,293.38l47.15,27.22ZM713.21,284l-6.27-3.62-6.75,3.83,6.27,3.62ZM778,321.44l-6.45-3.73-6.75,3.83,6.45,3.73ZM721.11,288.6,714.85,285l-6.75,3.84,6.27,3.61Z"/><path class="cls-36" d="M687.25,287l34.93,20.16a.94.94,0,0,1,0,1.64l-19.36,11a2.88,2.88,0,0,1-2.84,0l-34.92-20.16a1,1,0,0,1,0-1.65l19.37-11A2.83,2.83,0,0,1,687.25,287Z"/><path class="cls-21" d="M722.18,307.79l-34.93-20.16a2.83,2.83,0,0,0-2.83,0l-19.37,11a1,1,0,0,0-.41.48,1,1,0,0,1,.41-1.16l19.37-11a2.83,2.83,0,0,1,2.83,0l34.93,20.16a1,1,0,0,1,.4,1.16A1,1,0,0,0,722.18,307.79Z"/><line class="cls-37" x1="794.67" y1="137.39" x2="804.68" y2="143.16"/><path class="cls-21" d="M809.43,145.35c.23.52,0,1-.53,1a1.68,1.68,0,0,1-1.38-1c-.23-.53,0-1,.53-1A1.69,1.69,0,0,1,809.43,145.35Z"/><polygon class="cls-38" points="815.08 170.22 842.68 182.18 842.68 189.6 842.68 289.11 755.26 340.63 730.78 310.91 815.08 170.22"/><path class="cls-21" d="M776.88,286.57l30.55,17.92.05-.39a6.76,6.76,0,0,1-2.8-5.56v-4.47c0-3.19-1.53-8.6-3.78-10.16a8.25,8.25,0,0,0-1.22-.71l0,0a9.19,9.19,0,0,0-9.09.66C788.58,285.12,778.5,284.92,776.88,286.57Z"/><path class="cls-4" d="M842.68,181.73l-76.9-44.34-14.73,8.43h0a9,9,0,0,0-4.73,7.93v89.56a15.94,15.94,0,0,1-2,7.64l-20-11.6a7.81,7.81,0,0,0-1.32-.76l0,0a9.19,9.19,0,0,0-4.19-.86,9.44,9.44,0,0,0-4.83,1.56,31.72,31.72,0,0,0-14.52,26.44V266a30.33,30.33,0,0,1-12.79,24.57l-18,12.84,76.52,44.5,18-12.83c8-5.71,13.09-15.19,12.8-24.57v-.24a31.23,31.23,0,0,1,3.57-14.44,32,32,0,0,1,10.94-12,9.18,9.18,0,0,1,9.09-.65h0A5.42,5.42,0,0,1,801,284c3.29,2.95,3.72,6.84,3.73,10v4.47a6.9,6.9,0,0,0,10.87,5.63h0c6.25-3.91,7.29-10.92,7.29-16.27V198.26a9.06,9.06,0,0,1,5.1-8.13v0Z"/><path class="cls-39" d="M842.68,181.73l-76.9-44.34-14.73,8.43h0a9,9,0,0,0-4.73,7.93v89.56a15.94,15.94,0,0,1-2,7.64l-20-11.6a7.81,7.81,0,0,0-1.32-.76l0,0a9.19,9.19,0,0,0-4.19-.86,9.44,9.44,0,0,0-4.83,1.56,31.72,31.72,0,0,0-14.52,26.44V266a30.33,30.33,0,0,1-12.79,24.57l-18,12.84,76.52,44.5,18-12.83c8-5.71,13.09-15.19,12.8-24.57v-.24a31.23,31.23,0,0,1,3.57-14.44,32,32,0,0,1,10.94-12,9.18,9.18,0,0,1,9.09-.65h0A5.42,5.42,0,0,1,801,284c3.29,2.95,3.72,6.84,3.73,10v4.47a6.9,6.9,0,0,0,10.87,5.63h0c6.25-3.91,7.29-10.92,7.29-16.27V198.26a9.06,9.06,0,0,1,5.1-8.13v0Z"/><path class="cls-4" d="M750,267.52l-3.5-2A6.84,6.84,0,0,0,750,267.52Z"/><polygon class="cls-24" points="668.72 303.35 668.72 304.1 745.24 348.56 745.24 347.86 668.72 303.35"/><path class="cls-40" d="M803.29,277h0Z"/><path class="cls-18" d="M795.86,221.37l23.86,13.84a.54.54,0,0,0,.8-.47V206a1.41,1.41,0,0,0-.69-1.23l-24.14-14a.43.43,0,0,0-.64.38V220A1.62,1.62,0,0,0,795.86,221.37Z"/><path class="cls-41" d="M748.44,179.71l44.63,25.93a.24.24,0,0,0,.36-.22v-1.6a.41.41,0,0,0-.2-.36l-44.65-25.94a.25.25,0,0,0-.37.22v1.55A.49.49,0,0,0,748.44,179.71Z"/><path class="cls-42" d="M748.44,175,793.07,201a.24.24,0,0,0,.36-.22v-1.6a.41.41,0,0,0-.2-.36l-44.65-25.94a.25.25,0,0,0-.37.22v1.55A.5.5,0,0,0,748.44,175Z"/><path class="cls-43" d="M748.44,184.39l44.63,25.93a.24.24,0,0,0,.36-.21v-1.6a.4.4,0,0,0-.2-.36l-44.65-26a.25.25,0,0,0-.37.22V184A.49.49,0,0,0,748.44,184.39Z"/><path class="cls-44" d="M748.44,189.07,793.07,215a.24.24,0,0,0,.36-.21v-1.6a.4.4,0,0,0-.2-.36l-44.65-25.94a.25.25,0,0,0-.37.22v1.55A.47.47,0,0,0,748.44,189.07Z"/><path class="cls-45" d="M748.44,193.75l44.63,25.93a.24.24,0,0,0,.36-.21v-1.6a.4.4,0,0,0-.2-.36l-44.65-25.94a.25.25,0,0,0-.37.22v1.55A.47.47,0,0,0,748.44,193.75Z"/><path class="cls-46" d="M793.23,249l-13.5-7.82a.2.2,0,0,0-.3.17V243a.53.53,0,0,0,.26.46l13.38,7.76a.25.25,0,0,0,.36-.22v-1.6A.43.43,0,0,0,793.23,249Z"/><path class="cls-47" d="M748.21,223.29v1.55a.5.5,0,0,0,.23.42L777.19,242a.25.25,0,0,0,.37-.22v-1.54a.5.5,0,0,0-.25-.44l-28.73-16.71A.25.25,0,0,0,748.21,223.29Z"/><path class="cls-48" d="M748.44,220.57l47.65,27.7a.24.24,0,0,0,.36-.21v-1.6a.4.4,0,0,0-.2-.36l-47.67-27.71a.25.25,0,0,0-.37.22v1.55A.47.47,0,0,0,748.44,220.57Z"/><path class="cls-49" d="M748.44,215.89l44.63,25.93a.24.24,0,0,0,.36-.21V240a.4.4,0,0,0-.2-.36l-44.65-26a.25.25,0,0,0-.37.22v1.55A.49.49,0,0,0,748.44,215.89Z"/><path class="cls-50" d="M748.44,211.21l44.63,25.93a.24.24,0,0,0,.36-.22v-1.6a.41.41,0,0,0-.2-.36L748.58,209a.25.25,0,0,0-.37.22v1.55A.49.49,0,0,0,748.44,211.21Z"/><path class="cls-51" d="M748.44,243.29l44.63,25.93a.24.24,0,0,0,.36-.21v-1.6a.4.4,0,0,0-.2-.36l-44.65-26a.25.25,0,0,0-.37.22v1.55A.49.49,0,0,0,748.44,243.29Z"/><path class="cls-52" d="M748.16,247.53l52.05,30.13c.19.12.25,0,.28-.08h0c0-.36,0-.73,0-1.09v-.61a.5.5,0,0,0-.15-.38l0,0-52-30.11a.23.23,0,0,0-.34.2c0,.42-.09.84-.16,1.25A.69.69,0,0,0,748.16,247.53Z"/><path class="cls-53" d="M747,251.07l52.24,30.25a.4.4,0,0,0,.57-.23c.12-.38.22-.76.31-1.15a.49.49,0,0,0-.22-.51l-52.31-30.28a.28.28,0,0,0-.39.16c-.13.37-.26.73-.41,1.09A.52.52,0,0,0,747,251.07Z"/><path class="cls-54" d="M748.44,238.61l44.63,25.93a.24.24,0,0,0,.36-.22v-1.6a.41.41,0,0,0-.2-.36l-44.65-25.94a.25.25,0,0,0-.37.22v1.55A.5.5,0,0,0,748.44,238.61Z"/><path class="cls-55" d="M748.44,233.93l44.63,25.93a.24.24,0,0,0,.36-.22V258a.41.41,0,0,0-.2-.36l-44.65-25.94a.25.25,0,0,0-.37.22v1.55A.5.5,0,0,0,748.44,233.93Z"/><path class="cls-56" d="M793.23,253l-18.41-10.66a.16.16,0,0,0-.24.14v1.79a.33.33,0,0,0,.16.28l18.33,10.62a.24.24,0,0,0,.36-.21v-1.6A.42.42,0,0,0,793.23,253Z"/><path class="cls-57" d="M748.21,227.28v1.55a.47.47,0,0,0,.23.41l24,13.95a.21.21,0,0,0,.31-.18V241.3a.34.34,0,0,0-.17-.29l-24-13.95A.25.25,0,0,0,748.21,227.28Z"/><path class="cls-58" d="M798.11,254l21.58,12.54a.24.24,0,0,0,.36-.21v-1.61a.4.4,0,0,0-.21-.35l-21.6-12.56a.25.25,0,0,0-.37.22v1.55A.49.49,0,0,0,798.11,254Z"/><path class="cls-59" d="M798.11,249.35l21.58,12.55a.24.24,0,0,0,.36-.22v-1.6a.42.42,0,0,0-.21-.36l-21.6-12.55a.25.25,0,0,0-.37.22v1.55A.46.46,0,0,0,798.11,249.35Z"/><path class="cls-60" d="M798.11,245.22l21.58,12.55a.24.24,0,0,0,.36-.22V250a.41.41,0,0,0-.21-.36l-21.6-12.56a.25.25,0,0,0-.37.22v7.51A.46.46,0,0,0,798.11,245.22Z"/><path class="cls-61" d="M798.11,272.07l18.62,10.84a.24.24,0,0,0,.36-.21v-1.6a.42.42,0,0,0-.2-.36l-18.65-10.85a.24.24,0,0,0-.37.21v1.55A.47.47,0,0,0,798.11,272.07Z"/><path class="cls-62" d="M798.11,267.39l21.58,12.54a.24.24,0,0,0,.36-.21v-1.6a.41.41,0,0,0-.21-.36l-21.6-12.56a.25.25,0,0,0-.37.22V267A.48.48,0,0,0,798.11,267.39Z"/><path class="cls-63" d="M798.11,262.71l21.58,12.54a.24.24,0,0,0,.36-.21v-1.6a.41.41,0,0,0-.21-.36l-21.6-12.56a.25.25,0,0,0-.37.22v1.55A.49.49,0,0,0,798.11,262.71Z"/><path class="cls-64" d="M798.11,258l21.58,12.54a.24.24,0,0,0,.36-.21v-1.6a.41.41,0,0,0-.21-.36l-21.6-12.56a.25.25,0,0,0-.37.22v1.55A.49.49,0,0,0,798.11,258Z"/><path class="cls-65" d="M748.21,199.34v1.56a.49.49,0,0,0,.23.41l39.8,23.18a.32.32,0,0,0,.47-.28v-1.37a.58.58,0,0,0-.28-.5l-39.85-23.22A.25.25,0,0,0,748.21,199.34Z"/><path class="cls-66" d="M748.44,206.42l71.72,41.75a.24.24,0,0,0,.36-.21v-1.6a.42.42,0,0,0-.2-.36l-71.74-41.76a.25.25,0,0,0-.37.22V206A.47.47,0,0,0,748.44,206.42Z"/><path class="cls-67" d="M801.1,284.12c2.1,1.57,3.57,6.82,3.59,9.89v2.65a.31.31,0,0,0,.15.27l8.63,5a.36.36,0,0,0,.35,0,16.65,16.65,0,0,0,3.43-3.21,17.26,17.26,0,0,0,1-1.41v0c1.93-3.27,2-10.54,1.56-10.79l-16-9.29a.9.9,0,0,0-.46-.15c-.19,0-.38.07-.43.6,0,0,0,.05,0,.08h0A16.23,16.23,0,0,1,801.1,284.12Z"/><path class="cls-68" d="M804.69,298.08v.38a7.4,7.4,0,0,0,.07,1.07l5.59,3.16a2.19,2.19,0,0,0,1.95.08l.35-.16Z"/><path class="cls-69" d="M744.36,282.69l29.32,17.1a1,1,0,0,0,1.49-.6,31.63,31.63,0,0,1,13.25-17.76,9.54,9.54,0,0,1,2.45-1.15.54.54,0,0,0,.13-1l-4.66-2.73-16-9.37-8.18-4.77a2.9,2.9,0,0,0-2.08-.34,9.35,9.35,0,0,0-3.13,1.33,32,32,0,0,0-10.93,12,30.47,30.47,0,0,0-2.27,5.59A1.44,1.44,0,0,0,744.36,282.69Z"/><path class="cls-70" d="M717,241.14l27.68,16.14,9,5.24a.55.55,0,0,0,.54,0c.16-.12.34-.23.52-.35a7.26,7.26,0,0,1,.89-.51l0,0c.12-.07,0-.15,0-.18l0,0L744.57,255,719.08,240.1a9.85,9.85,0,0,0-2,1Z"/><path class="cls-71" d="M713.78,243.55a.29.29,0,0,0,0,.46l31,18,5.41,3.15a.55.55,0,0,0,.64-.07l.65-.57a.54.54,0,0,0-.05-.89l-6.75-3.93-29.27-17.06a.56.56,0,0,0-.62,0Z"/><path class="cls-72" d="M711.07,247.14l36.12,21A.62.62,0,0,0,748,268l.61-.68a.43.43,0,0,0-.08-.68l-2-1.18-34.17-19.91a.66.66,0,0,0-.8.12l-.54.56A.58.58,0,0,0,711.07,247.14Z"/><path class="cls-73" d="M708.36,250.27l36.33,21.18a.64.64,0,0,0,.84-.22l.46-.66a.49.49,0,0,0-.14-.72l-36.26-21.12a.63.63,0,0,0-.82.17c-.19.25-.37.5-.54.76A.43.43,0,0,0,708.36,250.27Z"/><path class="cls-74" d="M706.14,253.7s0,0,0,0L742.71,275a.57.57,0,0,0,.79-.26c.09-.19.2-.39.3-.59l.13-.25a.36.36,0,0,0-.09-.5l0,0L707.06,252a.27.27,0,0,0-.35.09c-.23.4-.46.81-.67,1.22a0,0,0,0,0,0,0A.34.34,0,0,0,706.14,253.7Z"/><path class="cls-75" d="M704.46,257.44l37,21.58a.21.21,0,0,0,.29-.12c.16-.48.33-1,.51-1.43a.25.25,0,0,0-.1-.31l-37-21.53a.23.23,0,0,0-.34.12c-.2.46-.38.93-.55,1.41A.24.24,0,0,0,704.46,257.44Z"/><path class="cls-76" d="M702.76,264.06a.65.65,0,0,0,.32.63l70.5,41a.25.25,0,0,0,.36-.21v-1.6a.4.4,0,0,0-.21-.36l-70.34-40.91a.31.31,0,0,0-.46.22C702.87,263.24,702.81,263.65,702.76,264.06Z"/><path class="cls-77" d="M702.5,269.69a.51.51,0,0,0,.25.48l70.83,41.2a.31.31,0,0,0,.13,0,.25.25,0,0,0,.23-.25v-1.6a.39.39,0,0,0-.06-.21.29.29,0,0,0-.15-.14L703,268.05a.29.29,0,0,0-.43.25C702.55,268.77,702.53,269.23,702.5,269.69Z"/><path class="cls-78" d="M701.71,274.79a.55.55,0,0,0,.25.61l70.34,40.9a.32.32,0,0,0,.46-.18c.12-.42.23-.85.33-1.28a.4.4,0,0,0-.19-.45l-70.45-41a.33.33,0,0,0-.48.23C701.89,274,701.8,274.41,701.71,274.79Z"/><path class="cls-79" d="M700.16,279.44a.56.56,0,0,0,.23.72L770.53,321a.3.3,0,0,0,.43-.14c.19-.37.36-.76.53-1.13a.44.44,0,0,0-.18-.54L701.07,278.3a.38.38,0,0,0-.53.2C700.42,278.82,700.29,279.13,700.16,279.44Z"/><path class="cls-80" d="M697.8,283.89a.37.37,0,0,0,.12.52l70.13,40.78a.33.33,0,0,0,.43-.1l.72-1.07a.34.34,0,0,0-.11-.48L699,282.75a.42.42,0,0,0-.56.16C698.21,283.24,698,283.57,697.8,283.89Z"/><path class="cls-81" d="M694.83,287.81a.35.35,0,0,0,.07.53l70,40.69a.36.36,0,0,0,.42-.06c.31-.31.61-.64.91-1a.33.33,0,0,0-.08-.52l-69.9-40.66a.5.5,0,0,0-.63.13C695.33,287.24,695.08,287.53,694.83,287.81Z"/><path class="cls-82" d="M728.3,312.85a.37.37,0,0,0,0,.62l32.59,18.95a.38.38,0,0,0,.4,0l1.15-.88a.29.29,0,0,0,0-.48l-32.65-19a.55.55,0,0,0-.63.07C728.87,312.38,728.59,312.62,728.3,312.85Z"/><path class="cls-21" d="M828,190.16a9,9,0,0,0-5.1,8.09v89.57c0,8.37-2.76,13.27-7.3,16.27a6.89,6.89,0,0,1-10.87-5.62V294c0-3-.38-6.23-2.43-8.59a8.69,8.69,0,0,0-7.22-3.06,13.3,13.3,0,0,0-6.42,2.84A30.47,30.47,0,0,0,777,303.05c-1.26,5.8-.8,12-2.73,17.58-2.21,6.43-7.3,11.45-12.73,15.56-3.33,2.52-16.33,11.67-16.33,11.67l0,.59s10.62-7.38,15.84-11.21,10.55-8.79,13.11-14.74c3.2-7.46,1.92-15.74,4.52-23.43A28,28,0,0,1,790.07,285c2.31-1.5,4.86-2.76,7.52-2.05a8.14,8.14,0,0,1,5,4.6c1.46,3.1,1.58,6.38,1.64,9.72,0,2.59.35,5.2,2.57,6.86,4,3,6.9,1.68,8.91.63.64-.34,2.69-1.39,5.13-5.26,2.88-4.59,2.51-12.6,2.51-12.6s.14-87.55.14-88.67a8.57,8.57,0,0,1,4.5-7.49l14.73-8.5v-.46Z"/><path class="cls-21" d="M751.68,170.07v-6.85l1,.56,2.2,4.73c.5,1.09.9,2.05,1.23,2.93h0c-.09-1-.11-1.81-.11-2.88v-2.86l.84.48V173l-.9-.52-2.17-4.73c-.48-1-.94-2.09-1.28-3h0c0,.89.07,1.72.07,2.86v2.93Z"/><path class="cls-21" d="M761.5,172.53,758.84,171v2.47l3,1.71v.75L758,173.69v-6.85l3.7,2.14v.74l-2.81-1.62v2.16l2.66,1.54Z"/><path class="cls-21" d="M763.76,177,762,169.19l.93.54.82,3.93c.2,1,.38,1.93.5,2.67h0a21,21,0,0,1,.56-2.06l.92-2.93.92.54.84,4c.19.93.37,1.85.47,2.63h0c.15-.67.34-1.32.55-2l.91-2.93.9.52-1.94,5.73-.92-.54-.87-4.06c-.21-1-.35-1.75-.44-2.5h0a14.49,14.49,0,0,1-.52,1.93l-1,3Z"/><path class="cls-21" d="M770.71,180a6.22,6.22,0,0,0,1.58,1.36c.91.52,1.43.35,1.43-.34s-.36-1.22-1.29-2.11c-1.11-1-1.81-2-1.81-3s.89-1.35,2.22-.58a5.85,5.85,0,0,1,1.51,1.21l-.24.58a5.22,5.22,0,0,0-1.3-1.08c-.94-.54-1.29-.19-1.29.28,0,.64.42,1.2,1.36,2.11,1.16,1.11,1.75,2,1.75,3s-.78,1.52-2.4.59a7,7,0,0,1-1.75-1.45Z"/><path class="cls-4" d="M803.33,205.53a8.18,8.18,0,0,0,4,6.23c2.19,1.26,4,.51,4-1.68a8.19,8.19,0,0,0-4-6.24C805.1,202.59,803.33,203.34,803.33,205.53Z"/><path class="cls-4" d="M798.33,216.52l17.91,10.31c0-4.94-4-11.23-9-14.07-2.47-1.42-4.71-1.71-6.34-1S798.33,214.06,798.33,216.52Z"/><polygon class="cls-18" points="798.54 225.05 799.39 227.26 801.29 228.63 799.92 229.18 800.24 231.26 798.54 229.38 796.85 229.3 797.17 227.59 795.79 225.46 797.69 226.28 798.54 225.05"/><polygon class="cls-18" points="805.92 229.33 806.77 231.54 808.66 232.91 807.29 233.46 807.62 235.54 805.92 233.66 804.22 233.57 804.54 231.87 803.17 229.74 805.07 230.56 805.92 229.33"/><polygon class="cls-18" points="813.29 233.61 814.14 235.82 816.04 237.19 814.66 237.74 814.99 239.81 813.29 237.94 811.59 237.85 811.92 236.15 810.54 234.02 812.44 234.84 813.29 233.61"/><g class="cls-7"><path class="cls-83" d="M777.09,104a1.66,1.66,0,0,1-.55-.2L744.09,85.09A2.53,2.53,0,0,1,742.81,83V53.9a1.19,1.19,0,0,1,.66-1.12,1.47,1.47,0,0,1,1.39.09l32.4,18.64a2.54,2.54,0,0,1,1.29,2.13v29.11a1.19,1.19,0,0,1-.64,1.1A1.28,1.28,0,0,1,777.09,104Z"/></g><polygon class="cls-18" points="760.1 69.25 762.57 75.71 768.11 79.71 764.11 81.31 765.05 87.37 760.1 81.9 755.14 81.65 756.09 76.68 752.08 70.45 757.62 72.85 760.1 69.25"/><path class="cls-84" d="M861.66,147.8c.83,1.87,0,3.39-1.89,3.39a6,6,0,0,1-4.9-3.39c-.84-1.88,0-3.4,1.88-3.4A6,6,0,0,1,861.66,147.8Z"/><path class="cls-84" d="M923.51,298.23c.84,1.87,0,3.39-1.88,3.39a6,6,0,0,1-4.91-3.39c-.83-1.88,0-3.4,1.89-3.4A5.94,5.94,0,0,1,923.51,298.23Z"/><path class="cls-84" d="M703.59,93.68c.83,1.87,0,3.39-1.88,3.39a6,6,0,0,1-4.91-3.39c-.84-1.88,0-3.4,1.88-3.4A6,6,0,0,1,703.59,93.68Z"/><line class="cls-85" x1="792.73" y1="90.58" x2="792.73" y2="96.78"/><line class="cls-85" x1="795.64" y1="95.16" x2="789.82" y2="91.81"/><line class="cls-85" x1="887.72" y1="122.24" x2="887.72" y2="128.44"/><line class="cls-85" x1="890.63" y1="126.82" x2="884.81" y2="123.47"/><line class="cls-85" x1="722.64" y1="66.66" x2="722.64" y2="72.87"/><line class="cls-85" x1="725.55" y1="71.25" x2="719.73" y2="67.9"/><line class="cls-85" x1="943.49" y1="285" x2="943.49" y2="291.21"/><line class="cls-85" x1="946.4" y1="289.59" x2="940.58" y2="286.24"/><line class="cls-85" x1="915.89" y1="235.81" x2="915.89" y2="242.01"/><line class="cls-85" x1="918.8" y1="240.39" x2="912.98" y2="237.04"/><path class="cls-86" d="M907.36,351.69l59.22,34.19a3.5,3.5,0,0,1,0,6.06L879,442.51a10.4,10.4,0,0,1-10.34,0l-59.75-33.93a3.5,3.5,0,0,1,0-6.07L897,351.69A10.44,10.44,0,0,1,907.36,351.69Z"/><path class="cls-21" d="M907.37,335.84l61,34.82v2.39a3.46,3.46,0,0,1-1.74,3L879,426.66a10.4,10.4,0,0,1-10.33,0l-59.76-33.94a3.42,3.42,0,0,1-1.76-2.95c0-1.2,0-2.45,0-2.45L897,335.84A10.39,10.39,0,0,1,907.37,335.84Z"/><path class="cls-22" d="M907.36,333.44l59.22,34.2a3.49,3.49,0,0,1,0,6.05L879,424.27a10.42,10.42,0,0,1-10.34,0l-59.75-33.93a3.49,3.49,0,0,1,0-6.06L897,333.44A10.44,10.44,0,0,1,907.36,333.44Z"/><polygon class="cls-19" points="900.26 338.38 957.38 371.36 877.02 417.76 819.43 385.05 900.26 338.38"/><ellipse class="cls-87" cx="879.73" cy="383.4" rx="19.24" ry="34" transform="translate(376.9 1200.77) rotate(-81.95)"/><path class="cls-88" d="M867.58,371.25c10.59-2.84,24.61.3,31.32,7s3.57,14.46-7,17.29-24.62-.3-31.33-7S857,374.08,867.58,371.25Z"/><path class="cls-89" d="M872.12,375.79c6.63-1.78,15.42.19,19.62,4.39s2.24,9.06-4.39,10.84-15.42-.19-19.63-4.4S865.48,377.56,872.12,375.79Z"/><polygon class="cls-18" points="873.42 377.13 879.42 379.93 884.96 378.55 884.34 382.84 889.34 386.55 882.96 386.4 880.5 390.08 877.18 385.7 870.66 384.26 875 381.7 873.42 377.13"/><path class="cls-90" d="M838.32,409.48v-2.39L851.47,399a2,2,0,0,0,.37-.25,2.22,2.22,0,0,0,.73-1,3.4,3.4,0,0,0,.17-1.37l4.41-2.75a1.64,1.64,0,0,0,.22-.14,1.45,1.45,0,0,0,.17-.18,23.45,23.45,0,0,0,9.71,1.67c8.47-.26,15.26-4.37,15.51-9.3v-.42h0l-.09-2.74v-.12c-.24-5.07-7.39-9-16-8.69s-15.66,4.61-15.51,9.71l.08,2.77a7,7,0,0,0,2.9,5.14l-3.33,2.08a2.39,2.39,0,0,0-1.32-.26,2.55,2.55,0,0,0-.67.18l-.11.06-.14.09,0,0-.05,0-16.29,10V406Z"/><path class="cls-21" d="M849.35,375.65a5.84,5.84,0,0,0,.22,1.44c1.32,4.61,8.26,8,16.5,7.72s15-4,16-8.68c.11-.47.14-4.39.14-4.39s-4.31-8.6-16.72-8.42c-7.51.1-16.16,9.39-16.16,9.39S849.32,374.73,849.35,375.65Zm2.61-.07a5.45,5.45,0,0,1,1.08-3.32c2.06-2.91,6.86-5,12.51-5.2s10.57,1.67,12.8,4.46a5.36,5.36,0,0,1,1.27,3.24c.13,4.48-6,6.22-13.59,6.44S852.09,380.05,852,375.58Z"/><path class="cls-91" d="M851.33,372.71c.13,4.57,6.69,8.09,14.65,7.85s14.3-4.13,14.16-8.7-6.69-8.09-14.65-7.86S851.19,368.14,851.33,372.71Z"/><path class="cls-92" d="M857.45,365.61c14.35.31,18.66,7.37,19.86,11.37a6.44,6.44,0,0,0,2.83-5.12c-.13-4.57-6.65-7.93-14.61-7.7A23.85,23.85,0,0,0,857.45,365.61Z"/><path class="cls-93" d="M852.75,372.88c.12,4.05,5.92,7.16,13,7s12.65-3.66,12.53-7.71c0-.12,0-.23,0-.35-.4,3.8-5.8,6.93-12.51,7.13s-12.5-2.72-13-6.58A3.37,3.37,0,0,0,852.75,372.88Z"/><path class="cls-21" d="M850.8,369.86l3.73-3.88,10.77-2.66,10.9,2,3.95,3.65,1,2.28-1.56.55s-1.84-7.41-14.28-7-13.84,7.86-13.84,7.86l-1.59-.45Z"/><path class="cls-94" d="M849.35,372.71a5.69,5.69,0,0,0,.22,1.43c1.32,4.61,8.26,8,16.5,7.73s15-4,16-8.68a5.45,5.45,0,0,0,.14-1.45c-.15-5.33-7.64-9.43-16.72-9.16S849.19,367.38,849.35,372.71Zm2.61-.08a5.4,5.4,0,0,1,1.08-3.31c2.06-2.91,6.86-5,12.51-5.21s10.57,1.68,12.8,4.46a5.37,5.37,0,0,1,1.27,3.25c.13,4.48-6,8.29-13.59,8.51S852.09,377.11,852,372.63Z"/><path class="cls-4" d="M849.35,372.71a5.69,5.69,0,0,0,.22,1.43c1.32,4.61,8.26,8,16.5,7.73s15-4,16-8.68a5.45,5.45,0,0,0,.14-1.45c-.15-5.33-7.64-9.43-16.72-9.16S849.19,367.38,849.35,372.71Zm2.61-.08a5.4,5.4,0,0,1,1.08-3.31c2.06-2.91,6.86-5,12.51-5.21s10.57,1.68,12.8,4.46a5.37,5.37,0,0,1,1.27,3.25c.13,4.48-6,8.29-13.59,8.51S852.09,377.11,852,372.63Z"/><path class="cls-95" d="M847.38,384.11l.31.47h0l1.41,2.08.36.54,6.18-3.86h0a.68.68,0,0,0,.23-.14,1.3,1.3,0,0,0,.43-.59,1.51,1.51,0,0,0,.09-.38h0a2.15,2.15,0,0,0-.2-1.22,2.08,2.08,0,0,0-1.06-1.05,1.56,1.56,0,0,0-.7-.11,1.4,1.4,0,0,0-.4.11l-.07,0-.08.05,0,0Z"/><path class="cls-4" d="M847.38,384.11l.31.47h0l7.44-4.62a1.56,1.56,0,0,0-.7-.11,1.4,1.4,0,0,0-.4.11l-.07,0-.08.05,0,0Z"/><path class="cls-21" d="M849.1,386.66l.36.54,6.18-3.86h0a.68.68,0,0,0,.23-.14,1.3,1.3,0,0,0,.43-.59,1.51,1.51,0,0,0,.09-.38Z"/><path class="cls-96" d="M827.71,394.9l.89,1.59,2.31,4.06,18.81-11.62h0a1.28,1.28,0,0,0,.39-.24,2.23,2.23,0,0,0,.75-1,3.6,3.6,0,0,0-.19-2.8,4,4,0,0,0-.63-1h0a3,3,0,0,0-2.43-1.05,2.14,2.14,0,0,0-.7.19l-.12.06-.14.09,0,0,0,0Z"/><path class="cls-97" d="M827.71,394.9l.89,1.59,2.27-.68L850,383.91h0a3,3,0,0,0-2.43-1.05,2.14,2.14,0,0,0-.7.19l-.12.06-.14.09,0,0,0,0Z"/><path class="cls-98" d="M826.76,399c.77,1.62,2.46,2.44,3.76,1.82h0a2,2,0,0,0,.39-.25,2.36,2.36,0,0,0,.75-1,3.6,3.6,0,0,0-.19-2.8,3.23,3.23,0,0,0-3.07-2,2.21,2.21,0,0,0-.7.19l-.11.06-.15.1s0,0-.05,0A3.11,3.11,0,0,0,826.76,399Z"/><path class="cls-4" d="M882.24,357.12,901,367.9c6-4.56,4.95-8.14.91-10.91C895.52,352.63,888.21,353.66,882.24,357.12Z"/><g class="cls-99"><path class="cls-21" d="M921.57,380a.62.62,0,0,1-.29-.07l-18.39-10.73a.57.57,0,1,1,.58-1l18.39,10.72a.57.57,0,0,1,.21.79A.58.58,0,0,1,921.57,380Z"/><path class="cls-21" d="M923.68,378.81a.6.6,0,0,1-.29-.08L905,368a.56.56,0,0,1-.21-.78.57.57,0,0,1,.78-.21L924,377.73a.58.58,0,0,1,.21.79A.59.59,0,0,1,923.68,378.81Z"/><path class="cls-21" d="M925.78,377.6a.5.5,0,0,1-.28-.08L907.1,366.8a.58.58,0,1,1,.58-1l18.39,10.73a.57.57,0,0,1-.29,1.07Z"/><path class="cls-21" d="M927.89,376.39a.59.59,0,0,1-.29-.07l-18.39-10.73a.57.57,0,0,1,.57-1l18.4,10.72a.57.57,0,0,1-.29,1.07Z"/><path class="cls-21" d="M930,375.19a.6.6,0,0,1-.29-.08l-18.4-10.73a.58.58,0,0,1-.21-.78.57.57,0,0,1,.79-.21l18.39,10.72a.58.58,0,0,1-.28,1.08Z"/></g><path class="cls-4" d="M908.9,349.32a6.9,6.9,0,0,0-7.42,1.18c-1.76,1.79-1.27,4.16,1.07,5.29a6.9,6.9,0,0,0,7.42-1.18C911.73,352.82,911.24,350.45,908.9,349.32Z"/><polygon class="cls-27" points="902.52 267.68 902.52 305.08 899.99 306.46 865.13 280.25 859.69 245.84 862.23 244.47 902.52 267.68"/><polygon class="cls-26" points="902.52 267.68 902.52 305.08 899.99 306.46 865.13 280.25 899.99 269.05 902.52 267.68"/><polygon class="cls-18" points="899.99 269.05 899.99 306.46 859.69 283.25 859.69 245.84 899.99 269.05"/><polygon class="cls-4" points="864.7 258.16 864.7 261.28 879.26 277.61 893.86 277.95 893.86 274.85 864.7 258.16"/><polygon class="cls-4" points="879.26 279.42 864.7 263.09 864.7 279.04 893.86 295.73 893.86 279.77 879.26 279.42"/><polygon class="cls-27" points="723.77 146.42 723.77 172.76 720.97 174.32 696.43 155.86 692.6 131.63 695.4 130.07 723.77 146.42"/><polygon class="cls-26" points="723.77 146.42 723.77 172.76 720.97 174.32 696.43 155.86 720.97 147.97 723.77 146.42"/><polygon class="cls-18" points="720.97 147.97 720.97 174.32 692.6 157.97 692.6 131.63 720.97 147.97"/><polyline class="cls-100" points="699.73 150.15 703.57 157.75 714.63 149.66"/><path class="cls-101" d="M643.28,313.17s3.4.62,4.15,0,4-3.71,4.46-4.17,6.9-2,7.44-2,2.85.24,2.81.58a52.32,52.32,0,0,1-4.54,4.5,8.18,8.18,0,0,0-2.16,2.32c-.23.73-2.34,3.25-3.87,3.34a12,12,0,0,1-1.88-.1l-7.54,1.07"/><path class="cls-102" d="M665.42,301.49a10,10,0,0,1-2.27,1.83,5.3,5.3,0,0,1-1.2.22,18.8,18.8,0,0,0-5.27,1.52,14,14,0,0,0-3.09,3.59.42.42,0,0,0-.05.22.38.38,0,0,0,.12.21c.74.68,1.72-.05,2.27-.6.3-.31,1.34-1.16,1.49-.92a8.6,8.6,0,0,1-1.69,4.84c-1.06,1.19-4,2.5-3.5,3.08.2.23.79.41,1.91.15a8.68,8.68,0,0,0,4.29-.75,15.7,15.7,0,0,0,3.27-3.24c.7-.78,1.26-1.82,2.26-2.81a36.58,36.58,0,0,1,3.63-2.39Z"/><path class="cls-4" d="M672.05,238.35c-6.5.6-8.33,3.83-9.46,6.19-2.25,4.71-1.15,11.39-1.07,14.1.29,9.68,1.25,19.31,2.2,28.94q.91,9.23,1.84,18.45a3.22,3.22,0,0,0,.26,1.16c.56,1.07,2.22,1.1,3.17.35a6.13,6.13,0,0,0,1.73-3.14c1.53-5,2.75-10.2,2.42-15.42-.34-5.43-2.34-10.61-3.27-16-1.22-7.06-.58-14.44-2.7-21.29"/><path class="cls-103" d="M670.21,256.43c.35,1.63-6.17-1.63-5.88,0,.26,1.42,1.47,20.21,1.72,22.5.43,3.81-.93,8.84-.61,12.66a27.91,27.91,0,0,0,1.12,6.35,2.78,2.78,0,0,0,1.43,1.91,2.06,2.06,0,0,0,1.18,0c1.63-.43,2.58-2.09,3.34-3.6"/><path class="cls-104" d="M710,394.15c-4.35-9-14.54-14.46-23.33-18.28a49.47,49.47,0,0,0-13.43-3.46c-4.52-.57-9.45-.61-13.22,1.95s-5.41,8.57-2.14,11.74c1.49,1.45,3.6,2,5.41,3,3.59,2,5.88,5.65,8.32,8.95A42.9,42.9,0,0,0,684,409.86a24.39,24.39,0,0,0,16.57,3.3,13.92,13.92,0,0,0,9.16-5.56C712.32,403.68,712,398.37,710,394.15Z"/><path class="cls-105" d="M702.88,387.87s-.46,1.84-.73,3.39-.35,3.54-.52,5.17a22.23,22.23,0,0,1-2.41,6.53,6.38,6.38,0,0,1-3.44,2.45,11.08,11.08,0,0,1-5.28-.11,2.54,2.54,0,0,1-1.35-1.35"/><path class="cls-105" d="M662.43,381.87c0,1,1.52,1.74,3.09,1.86a15.54,15.54,0,0,0,5.06-.7,24.8,24.8,0,0,0,3.92-1.49,5,5,0,0,1,2.88-.25s0,.17,0,.36a13.27,13.27,0,0,0,7-1.18h0s0-.81,0-1.5-.14-1.47-.14-1.47l-21.85,3.65Z"/><path class="cls-106" d="M688.53,402.2a4.85,4.85,0,0,0,.09.57A2.73,2.73,0,0,0,690.5,405c2,.7,5.84.33,7.72-1.7s3.2-7.26,3.2-10.39a14,14,0,0,1,1.63-6h-8.5a1.55,1.55,0,0,0-.2.28c-1.47,2.05-5.29,9.85-5.66,12.37A12.18,12.18,0,0,0,688.53,402.2Z"/><path class="cls-107" d="M688.53,402.2a.51.51,0,0,0,.09-.21c.37-2,2.31-5.94,3.34-8s3-5.82,3-5.82l-.57-1c-1.47,2.05-5.29,9.85-5.66,12.37A12.18,12.18,0,0,0,688.53,402.2Z"/><path class="cls-108" d="M688.61,402.76A2.74,2.74,0,0,0,690.5,405c2,.71,5.84.33,7.71-1.7s3.21-7.26,3.21-10.38a14,14,0,0,1,1.63-6H699.6l-.28,1.79s-.09,7.27-1.82,10.86a6.94,6.94,0,0,1-6.25,4.25c-1.37-.09-2.24-.27-2.63-1Z"/><path class="cls-106" d="M662.43,381.53a1.35,1.35,0,0,0,.76,1.1c1.43.65,4.42.44,6.23,0s5.2-2,7-2.23,5.26-.5,6.13-.75a2.46,2.46,0,0,0,2-2.41,5.4,5.4,0,0,0-.66-3.07l-1.4.08-8.27.53H674l-4.23,1.51c-1.35.47-4.16.91-6,2.63a5.51,5.51,0,0,0-.75.83h0A2.5,2.5,0,0,0,662.43,381.53Z"/><path class="cls-107" d="M663,379.76c1.35-1.16,4.18-2,6.49-2.62s4.59-1.33,4.59-1.33,0-.44.1-1H674l-4.23,1.51c-1.35.47-4.16.91-6,2.63A5.51,5.51,0,0,0,663,379.76Z"/><path class="cls-108" d="M662.43,381.53a1.36,1.36,0,0,0,.76,1.1c1.43.64,4.41.43,6.23,0s5.2-2.05,7-2.24,5.26-.5,6.13-.74a2.47,2.47,0,0,0,2-2.42,5.4,5.4,0,0,0-.66-3.07l-1.4.09,0,.44s1.3,1.8.44,3.16-4.09,1.16-6.05,1.39-4.79,1.83-7.51,2.3-6,.86-6.94,0Z"/><path class="cls-97" d="M668.79,329.64c.34,1.38.61,2.73.85,4a.32.32,0,0,1,0,.07c.22,1.28.4,2.5.57,3.65,0,0,0,.07,0,.12s.06.33.1.62.08.59.13.86c.36,2.35,1,7.2,1.59,13.79a.81.81,0,0,1,0,.15c.23,2.19.44,5.16.61,8.31,0,.72.08,1.45.11,2.2.21,4.11.37,8.31.46,11.39a2.14,2.14,0,0,0,1.14,1.82,3.83,3.83,0,0,0,1.8.48,12.9,12.9,0,0,0,4.42-.58,9.33,9.33,0,0,0,2.49-1.27,2.35,2.35,0,0,0,.94-2c-.07-2.6-.23-9.5.05-16.4.34-8.75,1-25.22,1-25.22L682,304.06l-5.73-1.28c.3-1.61.62-3.45.84-4.74.17-1,.29-1.68.29-1.68H666.2s0,.16,0,.47C666,299.77,665.46,316.29,668.79,329.64Z"/><path class="cls-109" d="M668.79,329.64c.34,1.38.61,2.73.85,4-.11-.95-1.14-10.07-1.61-14.73-.49-4.92.31-20.3.31-20.3l-2.16-1.81C666,299.77,665.46,316.29,668.79,329.64Z"/><path class="cls-96" d="M673.68,300.62a172,172,0,0,0,4.11,32.27c2.32,9.89,2.8,29.6,2.82,43.66a9,9,0,0,0,2.49-1.27,2.36,2.36,0,0,0,.95-2c-.08-2.6-.24-9.5,0-16.4.34-8.75,1-25.22,1-25.22L682,304.06l-5.73-1.28c.29-1.61.61-3.45.84-4.74Z"/><path class="cls-97" d="M678.54,302a125.77,125.77,0,0,0,6.58,42v0c1.41,3.51,2.49,6.35,2.79,7.55.62,2.48,3.46,27.35,4.14,33.35a6.59,6.59,0,0,0,1,2.76,5.16,5.16,0,0,0,5.21,2.79,12.33,12.33,0,0,0,2.27-.44,17.37,17.37,0,0,0,2.89-1.17,2.2,2.2,0,0,0,1.19-2c-.19-6.43-1-34.65-1.57-38.17-.59-4-3-12.65-4.18-28.57a17.07,17.07,0,0,1,.71-6.82,18.25,18.25,0,0,0,.18-11.08l-1.67.63c0-1.51.1-2.19.1-2.19h-.55l-19.64.42Z"/><path class="cls-96" d="M691.26,313.91c-.59,5.59,5.79,30.44,6.46,36.82S700.46,390,700.46,390h0a17.37,17.37,0,0,0,2.89-1.17,2.2,2.2,0,0,0,1.19-2c-.19-6.43-1-34.65-1.57-38.17-.59-4-3-12.65-4.18-28.57a17.07,17.07,0,0,1,.71-6.82,18.25,18.25,0,0,0,.18-11.08l-1.67.63c0-1.51.1-2.19.1-2.19h-.55c-3.56,2-6.58,3.85-6.58,3.85A33.22,33.22,0,0,1,691.26,313.91Z"/><path class="cls-110" d="M699.81,301.68a11.21,11.21,0,0,1,.31,1.53.72.72,0,0,1-.31.73,21.18,21.18,0,0,1-4.23,2,22,22,0,0,1-9,1c-1.11-.11-12-2.5-18.44-6.6a4.85,4.85,0,0,1-2.16-4.9v0C666.17,294.1,699.81,301.68,699.81,301.68Z"/><path class="cls-4" d="M667.51,272.9c0,1.2.07,2.41.1,3.62a39.54,39.54,0,0,1-.59,8.05c-.39,2.25-.87,5-1.18,7-.62,4,.46,6.85,2.43,8l.05,0c6.35,3.94,13.71,5.73,17.65,6.48.62.11,1.26.2,1.9.25a16,16,0,0,0,4.09-.17,12,12,0,0,0,1.66-.36l.51-.16a7.43,7.43,0,0,0,1.72-.79c2.59-1.65,2.79-2.91,3-4.38.28-2.46-1-5.47-1.46-7.86-1.61-7.85,2.42-14.85,4.65-22.08,1-3.36,2-6.72,2.87-10.13.51-2.08,1.25-4.47,1-6.65,0,0,0-.09,0-.13a9.91,9.91,0,0,0-.36-1.54,11.69,11.69,0,0,0-3.23-4,36.67,36.67,0,0,0-4.36-3.32.78.78,0,0,1-.15-.1,35.75,35.75,0,0,0-3.34-1.93c-1.13-.56-2.56-1.21-4.59-2-.73-.29-1.47-.54-2.23-.78-1.39-.42-2.81-.77-4.26-1.07-2.22-.47-4.48-.83-6.63-1.24-.38,0-.75,0-1.12,0a53.48,53.48,0,0,0-7.78,1.6s-2.34,4.38-3.64,6.95C662.15,250.33,666.35,265.44,667.51,272.9Z"/><path class="cls-103" d="M703.06,252.31c-3.31-5.67-11.57-8.44-13-8.91-4.44,6.53-9.57,6.68-9.57,6.68l-.22-2.8-1.42,1-1,15.13-1.63-3.8,1.25-12.86,4.82-6.16,5.31-.64c.76.24,1.5.49,2.23.78a42.36,42.36,0,0,1,6.34,3l.14.09c.18.1.35.2.51.31s.39.24.58.36l.36.22a.78.78,0,0,0,.15.1,36.67,36.67,0,0,1,4.36,3.32h0a11.58,11.58,0,0,1,3.23,4,1.34,1.34,0,0,1,.08.26,10.34,10.34,0,0,1,.28,1.28h0C706.66,258.23,704,258.12,703.06,252.31Z"/><path class="cls-103" d="M677.92,245a15.61,15.61,0,0,0-2,2.15c-.58.77-1,1.64-1.52,2.43a10.63,10.63,0,0,1-.11-2.46,16.54,16.54,0,0,1,.19-2.63,12.25,12.25,0,0,1,1.77-4.66c.26.23.28.63.41,1,.2.53.69.91.87,1.45s0,1.2.17,1.76"/><path class="cls-101" d="M688.76,232.76v6s-6.11,4.41-9.36,3.77c-1.4-.27-2.13-2.06-1.84-4.59l3-.59Z"/><path class="cls-4" d="M678.67,242.17l-3.48,4.08s-.13-4.9,2.19-7.41,2.36-.33,2.36-.33S677.6,241,678.67,242.17Z"/><path class="cls-102" d="M671.88,224.81a34.58,34.58,0,0,0,.53,9.58c1,4.57,1.35,5.61,3.19,6.42s3.51.9,6.61-1.09a15.68,15.68,0,0,0,4.8-5.24s.44.29,1.55-1c1.73-2,2.06-2.94,2.06-5.59a18.49,18.49,0,0,0-2.73-9.47c-2.06-3.47-8.41-2.36-11.29-.89S672.42,221.84,671.88,224.81Z"/><path class="cls-111" d="M669.37,225c3.17,5.6,11.07,1.91,11.07,1.91.58,2.44,2.28,2.66,3.1,3.11s1,2.81,1,2.81h.75a17,17,0,0,1,.4-3.55,2.09,2.09,0,0,1,3.69-.37c1,1.56-.15,3.29-.81,4.58a5.91,5.91,0,0,0,.2,2.89,9.73,9.73,0,0,0,2-3.63,25,25,0,0,0,0-13,5.64,5.64,0,0,0-.65-1.57c-2.42-4.1-9.33-4.9-12-4-2.34.8-8.14,3.43-9.22,7.18A4.56,4.56,0,0,0,669.37,225Z"/><path class="cls-97" d="M669.14,336.74c0,.3.08.59.12.86C669.22,337.26,669.18,337,669.14,336.74Z"/><path class="cls-97" d="M669,336s0,.07,0,.12A1.13,1.13,0,0,0,669,336Z"/><path class="cls-112" d="M693.59,266.35a37.93,37.93,0,0,0,1-8.48c-.17-3.36-2-.35-2.21,2.4a65.34,65.34,0,0,1-1.8,8.68"/><path class="cls-4" d="M688.76,238.13a5.67,5.67,0,0,1,.67,1.24,11.81,11.81,0,0,1,.42,1.38,16.16,16.16,0,0,1-9.37,7.37l-.78-5.56S685.72,241.74,688.76,238.13Z"/><path class="cls-103" d="M692.51,285.52c-.14-.67-.23-1.06-.23-1.06l4.21-4.57s.69,7.18.94,9.57,3.16,10,3,12.63-8.5,4.11-8.5,4.11,2.27-5.54,2.14-9.84a48.07,48.07,0,0,0-.85-7c-.23-1.34-.27-5.41-2-5.48a3.79,3.79,0,0,0-1.32.27c-2.27.78-5.42,4.31-7.65,5.19-2,.82-5.1,3.61-6.85,1.59,1.79-2.38,7.18-8.56,7.62-9.29.55-.92,8.26-18.58,9.6-20.85.87,5.21,1.58,11.65,2.45,16.86"/><path class="cls-97" d="M679.7,242.56l.56,4-2,1.59-2-.66-.11-2.32,2.54-3A1.77,1.77,0,0,0,679.7,242.56Z"/><path class="cls-97" d="M678.26,249l0-.89-2-.66s-1.41,7.8-1.51,8.38c-1.17,7.28-2.2,14.58-3.19,21.88-.46,3.39-.81,6-.94,7a1.92,1.92,0,0,0,.11.95l2.07,5.44c.11.29,5.12-4.87,5.08-5.37C677.81,284.7,678,258.94,678.26,249Zm-4.51,13.7h0C673.75,262.8,673.73,262.82,673.75,262.71Z"/><path class="cls-113" d="M669.37,225c3.17,5.6,11.07,1.91,11.07,1.91.58,2.44,2.28,2.66,3.1,3.11s1,2.81,1,2.81h.75a17,17,0,0,1,.4-3.55,2.09,2.09,0,0,1,3.69-.37c1,1.56-.15,3.29-.81,4.58a5.91,5.91,0,0,0,.2,2.89,9.73,9.73,0,0,0,2-3.63,25,25,0,0,0,0-13,5.64,5.64,0,0,0-.65-1.57,38.94,38.94,0,0,1-9.14,5.91c-5,2.08-8.81,1.63-10.06.57a4.83,4.83,0,0,1-2-3.26h0A4.56,4.56,0,0,0,669.37,225Z"/><path class="cls-4" d="M692.42,260.27c-2.57,7.73-4.61,15.73-8.88,23.35-7.86,6.35-13.65,13.26-19.87,19.14,1.19,2.24,1.16,3.55,2.35,5.79,1.81-.44,17.34-11.4,23.83-15.6s8.4-8,11.39-15.1c2.73-6.53,5-17.12,4.65-24.19"/><path class="cls-103" d="M705.89,253.66l-2.35.29c0,7-3.4,17.89-5.91,23.9-3,7.13-4.9,10.89-11.39,15.1-5.09,3.29-15.72,10.73-21,14a15.19,15.19,0,0,0,.73,1.6c1.81-.44,17.34-11.4,23.83-15.6s8.4-8,11.39-15.1C704,271.32,706.28,260.73,705.89,253.66Z"/><path class="cls-101" d="M653,309.93a20.2,20.2,0,0,0,2.53-1.11,16.5,16.5,0,0,1,3.14-.77,1.34,1.34,0,0,1-.75,1.86,18.7,18.7,0,0,0-2,1.11,10.65,10.65,0,0,1-4.9,4.23"/><path class="cls-114" d="M657.87,309.91c-.62.44-1.24.84-1.87,1.23l0-.05a10.22,10.22,0,0,1-.95,1.38,10.11,10.11,0,0,1-1.17,1.19,7.12,7.12,0,0,1-1.36,1,6.24,6.24,0,0,1-1.54.63,11.23,11.23,0,0,0,2.67-1.84,14.86,14.86,0,0,0,2.1-2.46l0,0h0C656.51,310.55,657.18,310.21,657.87,309.91Z"/><path class="cls-114" d="M653.14,309.62a.8.8,0,0,0,.5-.09,3.54,3.54,0,0,0,.48-.23,10,10,0,0,1,1-.43,12,12,0,0,1,2.13-.57,11.46,11.46,0,0,1-2,.92c-.34.11-.68.21-1,.35S653.48,309.83,653.14,309.62Z"/><path class="cls-115" d="M644,313.46l1.7-.29s1.13.74,1.34,1.42a7.36,7.36,0,0,1-.11,3.7l-5.42,1.62"/><path class="cls-116" d="M597.54,292.1S611,308.34,614,308.9s30.68,4.27,30.68,4.27a2.76,2.76,0,0,1,1.74,2.1,10.93,10.93,0,0,1-.82,4s-29.12,3.44-31.73,2.75-27-21.68-27-21.68"/><path class="cls-19" d="M614.67,318.22c-2.16-.56-19.26-15-25.1-20l-2.78,2.13s24.44,21,27,21.68,31.73-2.75,31.73-2.75.27-.68.51-1.55C643.17,317.84,617.13,318.87,614.67,318.22Z"/><path class="cls-117" d="M645.45,442.17a54.5,54.5,0,0,0,1-9.43c.13-5.43-1.22-11.21-7.27-12.17-9.46-1.51-19.51-.27-28.91,1.2C602.5,423,592.35,423,586,428.28c-9.73,8.13,2.86,18.47,9.64,23.13,13,8.91,31.8,20.25,44.17,3.88A32.23,32.23,0,0,0,645.45,442.17Z"/><path class="cls-105" d="M592.91,444.36v.08a.58.58,0,0,0,0,.1.42.42,0,0,1,0,.13c.15.55.78,2,3.18,2.39l.45.05a.63.63,0,0,0,.19,0,14.73,14.73,0,0,0,1.79,0c.2,0,.4,0,.59-.06a14.07,14.07,0,0,0,5.68-3.09l.16-.15v-.49s1.73-1.15,2.36-1.53c1.93-1.14,4.69-2.11,7.33-3.42a7.56,7.56,0,0,0,1.86-1.25l.25-.25a1.06,1.06,0,0,0,.15-.15c.06-.07.1-.16.16-.23s.21-.29.29-.42l.12-.21a1.59,1.59,0,0,0,.09-.2.86.86,0,0,0,.07-.21h0a3.37,3.37,0,0,0,.16-1v-1.72l-16.08,6.58L593,442.65Z"/><path class="cls-106" d="M602.48,432.36a63.47,63.47,0,0,0,7.08-.87c4.39-.75,7.41-1,8,.4s.68,2.75-3.24,5.43-7,3-10.09,5.49a11,11,0,0,1-6.76,2.48c-2.34.16-3.92-.73-4.43-1.69-1.19-2.21,0-6.41,0-6.41"/><path class="cls-105" d="M608.72,446.91v2.18a2,2,0,0,0,1.11,1.89,2.94,2.94,0,0,0,.95.26,33.17,33.17,0,0,0,6.9-.33v-.81s1.5-.17,5.89-.71a26.07,26.07,0,0,0,9.09-2.71,2,2,0,0,0,1.05-1.75v-1.59l-17.28,3Z"/><path class="cls-106" d="M620.84,439.26a7,7,0,0,0,4.18,1.81c2.27,0,6.68-.05,7.81.74a1.86,1.86,0,0,1,.88,1.41,2.84,2.84,0,0,1-.6,1.75c-.85,1.25-6.56,3.11-10.86,3.45s-4.52.29-6.56.62-4.15.5-5.43-.13c-2.22-1.1-2.37-4.44-1-6.65S620.84,439.26,620.84,439.26Z"/><path class="cls-102" d="M597.38,279.32l-.35.81.54,2.7,8.59,4.32.51-.07,1.37-.16,2.16-.29v-3a3.89,3.89,0,0,1,2.24-3.62l.1-.05a4.3,4.3,0,0,0,1.46-1l.12-.13c1.66-1.75,3.13-5.7,2.71-14.33a16.39,16.39,0,0,0-1.11-5.45c-1.25-2.4-3.9-4-9.38-2.49-9.12,2.53-13.11,6.67-13.58,10.25S597.38,279.32,597.38,279.32Z"/><path class="cls-101" d="M610.2,286.63v-3a3.89,3.89,0,0,1,2.24-3.62c-.45.19-1.84.86-3.68,1.84-.74.4-.72,2.78-.72,5Z"/><path class="cls-118" d="M624.05,302l18.22,9.36,8.31-26.6a2,2,0,0,0-1-2.36l-15.23-7.83a1.45,1.45,0,0,0-2,.92Z"/><path class="cls-18" d="M625.24,301.44l16.23,8.39,7.74-24.7c.3-1.13.25-1.62-.89-2.19L634.1,275.6a.63.63,0,0,0-.9.4Z"/><path class="cls-119" d="M639.75,287.55l5,2.6a.24.24,0,0,0,.34-.15l1.39-4.6a.26.26,0,0,0-.13-.31l-5-2.59a.24.24,0,0,0-.34.15l-1.39,4.6A.26.26,0,0,0,639.75,287.55Zm-3.7,11.63,3.9,2a.19.19,0,0,0,.27-.12l3-9.76a.19.19,0,0,0-.1-.24l-3.89-2a.19.19,0,0,0-.27.11l-3,9.77A.2.2,0,0,0,636.05,299.18Zm-2.27-8.75,3,1.54a.14.14,0,0,0,.2-.09l0-.19a.16.16,0,0,0-.08-.19L634,290a.15.15,0,0,0-.21.09l0,.19A.17.17,0,0,0,633.78,290.43Zm2.47,2.53a.26.26,0,0,0,.36-.16l.08-.34a.27.27,0,0,0-.13-.33l-5.29-2.73a.26.26,0,0,0-.36.16l-.08.34a.28.28,0,0,0,.13.33m-.3,1,5.29,2.73a.25.25,0,0,0,.36-.16l.08-.34a.26.26,0,0,0-.13-.32L631,290.39a.25.25,0,0,0-.36.16l-.08.34A.27.27,0,0,0,630.66,291.21Zm-.3,1,5.29,2.73a.25.25,0,0,0,.36-.16l.09-.34a.29.29,0,0,0-.14-.33l-5.29-2.73a.26.26,0,0,0-.36.17l-.08.34A.28.28,0,0,0,630.36,292.2Zm-.3,1,5.29,2.73a.26.26,0,0,0,.36-.17l.09-.34a.28.28,0,0,0-.14-.32l-5.29-2.73a.26.26,0,0,0-.36.16l-.08.34A.28.28,0,0,0,630.06,293.19Zm-.29,1,5.29,2.73a.25.25,0,0,0,.36-.16l.08-.34a.27.27,0,0,0-.13-.32l-5.29-2.73a.25.25,0,0,0-.36.16l-.09.34A.27.27,0,0,0,629.77,294.17Zm3-9.66,5.52,2.84a.26.26,0,0,0,.37-.17l1.52-5a.28.28,0,0,0-.13-.33L634.48,279a.27.27,0,0,0-.38.17l-1.52,5A.3.3,0,0,0,632.72,284.51Z"/><path class="cls-102" d="M638.38,306l2.94,2.45.55.46s.67-2.82,1.86-3.89a7.72,7.72,0,0,1,2.28-1,1.77,1.77,0,0,0,1-.66c.58-.78,1.42-2.5,1-5.49a3.3,3.3,0,0,0-.38-1.24v0c-.36-.63-.82-.6-.82-.6s-2,1.4-2.55,1.83-1.08,1-1.54.52c-.26-.26,1.19-2.09,1.6-2.93s-.38-1.74-.72-1.42a20.45,20.45,0,0,0-3.19,5C639.53,301.19,638.38,306,638.38,306Z"/><path class="cls-101" d="M640.64,306.34l.68,2.1.55.46s.67-2.82,1.86-3.89a7.72,7.72,0,0,1,2.28-1,1.77,1.77,0,0,0,1-.66c.58-.78,1.42-2.5,1-5.49a3.3,3.3,0,0,0-.38-1.24v0s0,.51-.84,1.24a20.54,20.54,0,0,1-2.58,1.74,7.79,7.79,0,0,0-2,3C641.6,303.89,640.64,306.34,640.64,306.34Z"/><path class="cls-115" d="M642.42,308.83l.51-1.64a1.27,1.27,0,0,0-.06-.94,7.77,7.77,0,0,0-1.34-2.08,2,2,0,0,0-2.46-.4,3.42,3.42,0,0,0-.64,1.24,4.29,4.29,0,0,0-.13,1.47c.05.11,1.09,1.6,1.21,1.74A28.7,28.7,0,0,0,642.42,308.83Z"/><path class="cls-97" d="M588.58,361c2,11.12,3.5,24.91,3.5,24.91s-3.4,27.61.42,51.67c.17,1.14.56,3.54,2,4.48a5.49,5.49,0,0,0,4.72,0l.21-.11c5.7-3.12,5.1-7.16,5.92-9.82,0-10.7-1.13-37,1.14-42.81l2-23.34-.75-16.68H587.39v.06l-.1-.06S585.55,353.74,588.58,361Z"/><path class="cls-96" d="M594.81,361.43c1.93,6.32,4.4,22.82,4.92,26.85,0,0-1.9,31.78-.28,53.63,5.7-3.12,5.1-7.16,5.92-9.82,0-10.7-1.13-37,1.14-42.81l2-23.34-.75-16.68h-14A31,31,0,0,0,594.81,361.43Z"/><path class="cls-97" d="M596.12,354.76a32.85,32.85,0,0,0,4.41,10.68c.39.59.74,1.19,1.08,1.79.07.28,1.07,4,2.3,9s2.74,11.31,3.81,16.66c-.59,6.71-2.25,30.21.91,50.57a3.76,3.76,0,0,0,2.68,3,7,7,0,0,0,2.25.24,5.84,5.84,0,0,0,1.88-.45c3.34-1.41,5.76-6.76,5.76-6.76s.08-33.81,1.84-42.68a40.57,40.57,0,0,0,.62-5.13c.32-5.43.91-15.35,1.09-19.49a171.11,171.11,0,0,0,.13-17.85l-16.73.21Z"/><path class="cls-96" d="M608.15,354.62c.09,1,.14,1.66.14,1.66a42,42,0,0,0,2.29,10.53c2.14,6.32,4.25,21.3,4.48,26.92.22,5.17-2.52,29.8-1.5,53a5.84,5.84,0,0,0,1.88-.45c3.34-1.41,5.76-6.76,5.76-6.76s.08-33.81,1.84-42.68a40.57,40.57,0,0,0,.62-5.13c.32-5.43.91-15.35,1.09-19.49a171.11,171.11,0,0,0,.13-17.85Z"/><path class="cls-17" d="M585.31,307.6c2.69,8.19,4.21,21.64,2.58,27.25a102.09,102.09,0,0,0-2.58,13.58c1.53,4.21,15.8,13.34,23.76,14a11.44,11.44,0,0,0,2.92-.11c7-1,13.58-7.26,13.58-7.26s-1.52-23.05-2.46-37.8a85.08,85.08,0,0,0-3-18.9,22.92,22.92,0,0,0-.76-2.22c-.84-1.11-3.36-3-6.56-5.09l-.07,0c-2.15-1.43-4.59-2.95-7.05-4.4h0c-3.27-1.93-6.57-3.75-9.21-5.07l-.89-.42a20.87,20.87,0,0,0-4.05-1.65c-3.75-.71-8.78,1.27-10.3,8.07S582.63,299.4,585.31,307.6Z"/><path class="cls-120" d="M612.83,334.76c.48,6.29-.48,22-.84,27.6,7-1,13.58-7.26,13.58-7.26s-1.52-23.05-2.46-37.8a85.08,85.08,0,0,0-3-18.9L618.87,297h-9.24s-4.8,1-3.06,11.92S612.25,327,612.83,334.76Z"/><path class="cls-121" d="M595.52,284.63c1.4,1.92,6.44,4.7,8.75,5.19a20.85,20.85,0,0,0,5.29.23,6.75,6.75,0,0,1,3.17,1l.07,0h0L611.45,289l-1.6-1s-2.34-.85-2.86-1.09a5.58,5.58,0,0,0-1.31-.23h0c-1.39-.17-3.39-.31-3.69-.35a43.26,43.26,0,0,1-4.22-2.64c-.08-.05-.8-1.23-1.3-2.08l-.89-.42A2.7,2.7,0,0,0,595.52,284.63Z"/><path class="cls-111" d="M590.36,267.19c.79,4.69,4.76,12.06,6.77,12.73a11.72,11.72,0,0,0,3.32.63A3.14,3.14,0,0,0,603.7,278a15.1,15.1,0,0,1,1.37-4.24c1.4-2.6,3.24-4,4.17-3.47s.82,2.15.82,2.15h.61s.05-.54.14-1.25.14-1.6.18-2.29a7.94,7.94,0,0,1,1.62-4.86,19.67,19.67,0,0,0,2.24-4.14,7.48,7.48,0,0,0,.56-3.71h0c-.38-3.61-1.84-5.09-3.24-6.11-4.54-3.33-14,2.85-17.55,5.8a12,12,0,0,0-3.93,5.59h0A12,12,0,0,0,590.36,267.19Z"/><path class="cls-4" d="M596.17,281l.87-.81a20.18,20.18,0,0,0,13.16,6.49,11.29,11.29,0,0,1,2.64,4.48l-1.2-.78a5.35,5.35,0,0,0-2.07-.8c-.47-.08-1.51-.13-1.51-.13-4.69-.06-9.36-3.34-11.8-5.36A2.05,2.05,0,0,1,596.17,281Z"/><path class="cls-122" d="M617.39,436.57a2.49,2.49,0,0,1-.29.43C617.21,436.84,617.31,436.7,617.39,436.57Z"/><path class="cls-122" d="M616.94,437.22c.07-.07.1-.15.16-.22-.09.11-.19.24-.31.37A1.06,1.06,0,0,0,616.94,437.22Z"/><path class="cls-17" d="M608.62,304.64c.88,5.16,10.74,20.2,11.15,20.81a70.85,70.85,0,0,0,4.93,7h0c1.31,1.63,2.39,2.68,3.06,2.88l.39.1a5.3,5.3,0,0,0,6.22-3.47,109.71,109.71,0,0,0,5.14-11.23,103.78,103.78,0,0,0,2.94-11.43,3.49,3.49,0,0,0-.35-2.53c-.05-.06-.07-.13-.12-.18-.54-.92-1.3-1.94-2-2.05-1.23-.19-1.47.14-1.47.14s-2.26,3.63-4.06,6.44a53.07,53.07,0,0,0-3.58,7.58c-.17.48-.28.76-.28.76-3.26-7.57-7.51-16.86-9.24-20.75A7,7,0,0,0,609.63,297a1.15,1.15,0,0,1-.14.17,3,3,0,0,0-.47.94h0l0,0C608.81,298.32,607.79,299.81,608.62,304.64Z"/><path class="cls-113" d="M590.36,267.19c.79,4.69,4.76,12.06,6.77,12.73a11.72,11.72,0,0,0,3.32.63A3.14,3.14,0,0,0,603.7,278a15.1,15.1,0,0,1,1.37-4.24c1.4-2.6,3.24-4,4.17-3.47s.82,2.15.82,2.15h.61s.05-.54.14-1.25.14-1.6.18-2.29a7.94,7.94,0,0,1,1.62-4.86,19.67,19.67,0,0,0,2.24-4.14,7.48,7.48,0,0,0,.56-3.71,20.71,20.71,0,0,1-14.8,12.17c-11,2.32-10-6.44-9.92-6.89A12,12,0,0,0,590.36,267.19Z"/><path class="cls-123" d="M630.9,318.73c-.17.48-.28.76-.28.76a10.33,10.33,0,0,1,.89,4.57A5.75,5.75,0,0,0,630.9,318.73Z"/><path class="cls-19" d="M609,298.11l0,0s-.33,4.31,3.75,11.5,12.8,24.41,17.09,23.93c2.27-.25,7.26-10.88,9.13-15.85a82.38,82.38,0,0,0,3-11.05c0,.05.07.12.12.18a3.49,3.49,0,0,1,.35,2.53,103.78,103.78,0,0,1-2.94,11.43A109.71,109.71,0,0,1,634.38,332a5.3,5.3,0,0,1-6.22,3.45v0l-.39-.1c-.67-.2-1.75-1.25-3.06-2.88h0a70.85,70.85,0,0,1-4.93-7c-.41-.61-10.27-15.65-11.15-20.81C607.79,299.81,608.81,298.32,609,298.11Z"/></g></g></svg>