<svg xmlns="http://www.w3.org/2000/svg" xmlns:xlink="http://www.w3.org/1999/xlink" viewBox="0 0 1029 480"><defs><style>.cls-1{isolation:isolate;}.cls-2{fill:#a6e8d0;}.cls-13,.cls-24,.cls-3{fill:#fff;}.cls-4{fill:#161d3c;}.cls-5{fill:#38b281;}.cls-6{fill:#f42592;}.cls-103,.cls-14,.cls-16,.cls-22,.cls-29,.cls-35,.cls-41,.cls-47,.cls-53,.cls-59,.cls-65,.cls-7,.cls-71,.cls-77,.cls-79,.cls-95{mix-blend-mode:multiply;}.cls-7{fill:url(#radial-gradient);}.cls-8{fill:url(#linear-gradient);}.cls-9{fill:#feb;}.cls-10{fill:url(#linear-gradient-2);}.cls-11{fill:url(#linear-gradient-3);}.cls-12{fill:url(#linear-gradient-4);}.cls-13{opacity:0.65;}.cls-13,.cls-24{mix-blend-mode:overlay;}.cls-14{fill:#ff4b16;opacity:0.43;}.cls-15{fill:url(#linear-gradient-5);}.cls-16{fill:url(#radial-gradient-2);}.cls-17{fill:url(#linear-gradient-6);}.cls-18{fill:url(#linear-gradient-7);}.cls-19{fill:url(#linear-gradient-8);}.cls-20{fill:url(#linear-gradient-9);}.cls-21{fill:url(#linear-gradient-10);}.cls-22{fill:url(#radial-gradient-3);}.cls-23{fill:#9100da;}.cls-24{opacity:0.41;}.cls-25{fill:url(#linear-gradient-11);}.cls-26{fill:url(#linear-gradient-12);}.cls-27{fill:url(#linear-gradient-13);}.cls-28{fill:url(#linear-gradient-14);}.cls-29{fill:url(#radial-gradient-4);}.cls-30{fill:url(#linear-gradient-15);}.cls-31{fill:url(#linear-gradient-16);}.cls-32{fill:url(#linear-gradient-17);}.cls-33{fill:url(#linear-gradient-18);}.cls-34{fill:url(#linear-gradient-19);}.cls-35{fill:url(#radial-gradient-5);}.cls-36{fill:url(#linear-gradient-20);}.cls-37{fill:url(#linear-gradient-21);}.cls-38{fill:url(#linear-gradient-22);}.cls-39{fill:url(#linear-gradient-23);}.cls-40{fill:url(#linear-gradient-24);}.cls-41{fill:url(#radial-gradient-6);}.cls-42{fill:url(#linear-gradient-25);}.cls-43{fill:url(#linear-gradient-26);}.cls-44{fill:url(#linear-gradient-27);}.cls-45{fill:url(#linear-gradient-28);}.cls-46{fill:url(#linear-gradient-29);}.cls-47{fill:url(#radial-gradient-7);}.cls-48{fill:url(#linear-gradient-30);}.cls-49{fill:url(#linear-gradient-31);}.cls-50{fill:url(#linear-gradient-32);}.cls-51{fill:url(#linear-gradient-33);}.cls-52{fill:url(#linear-gradient-34);}.cls-53{fill:url(#radial-gradient-8);}.cls-54{fill:url(#linear-gradient-35);}.cls-55{fill:url(#linear-gradient-36);}.cls-56{fill:url(#linear-gradient-37);}.cls-57{fill:url(#linear-gradient-38);}.cls-58{fill:url(#linear-gradient-39);}.cls-59{fill:url(#radial-gradient-9);}.cls-60{fill:url(#linear-gradient-40);}.cls-61{fill:url(#linear-gradient-41);}.cls-62{fill:url(#linear-gradient-42);}.cls-63{fill:url(#linear-gradient-43);}.cls-64{fill:url(#linear-gradient-44);}.cls-65{fill:url(#radial-gradient-10);}.cls-66{fill:url(#linear-gradient-45);}.cls-67{fill:url(#linear-gradient-46);}.cls-68{fill:url(#linear-gradient-47);}.cls-69{fill:url(#linear-gradient-48);}.cls-70{fill:url(#linear-gradient-49);}.cls-71{fill:url(#radial-gradient-11);}.cls-72{fill:url(#linear-gradient-50);}.cls-73{fill:url(#linear-gradient-51);}.cls-74{fill:url(#linear-gradient-52);}.cls-75{fill:url(#linear-gradient-53);}.cls-76{fill:url(#linear-gradient-54);}.cls-77{fill:url(#radial-gradient-12);}.cls-78{fill:url(#linear-gradient-55);}.cls-79{fill:url(#radial-gradient-13);}.cls-80{fill:url(#linear-gradient-56);}.cls-81{fill:url(#linear-gradient-57);}.cls-82{fill:url(#linear-gradient-58);}.cls-83{fill:url(#linear-gradient-59);}.cls-84{fill:url(#linear-gradient-60);}.cls-85{fill:url(#linear-gradient-61);}.cls-86{fill:url(#linear-gradient-62);}.cls-87{fill:url(#linear-gradient-63);}.cls-88{fill:url(#linear-gradient-64);}.cls-89{fill:url(#linear-gradient-65);}.cls-90{fill:url(#linear-gradient-66);}.cls-91{fill:url(#linear-gradient-67);}.cls-92{fill:url(#linear-gradient-68);}.cls-93{fill:url(#linear-gradient-69);}.cls-94{fill:url(#linear-gradient-70);}.cls-95{fill:url(#radial-gradient-14);}.cls-96{fill:url(#linear-gradient-71);}.cls-97{fill:url(#linear-gradient-72);}.cls-98{fill:url(#linear-gradient-73);}.cls-99{fill:url(#linear-gradient-74);}.cls-100{fill:url(#linear-gradient-75);}.cls-101{fill:url(#linear-gradient-76);}.cls-102{fill:url(#linear-gradient-77);}.cls-103{fill:#cc17b3;opacity:0.3;}.cls-104{fill:url(#linear-gradient-78);}.cls-105{fill:url(#linear-gradient-79);}</style><radialGradient id="radial-gradient" cx="550.67" cy="53.19" r="40.42" gradientTransform="translate(349.26 -274.82) rotate(44.25)" gradientUnits="userSpaceOnUse"><stop offset="0" stop-color="#4f00d4"/><stop offset="1" stop-color="#fff"/></radialGradient><linearGradient id="linear-gradient" x1="578.87" y1="45.13" x2="555.71" y2="45.13" gradientTransform="matrix(0.94, 0.34, -0.34, 0.94, 205.88, -87.76)" gradientUnits="userSpaceOnUse"><stop offset="0" stop-color="#ff902b"/><stop offset="0.2" stop-color="#ffa53f"/><stop offset="0.51" stop-color="#ffbf5a"/><stop offset="0.79" stop-color="#ffcf69"/><stop offset="1" stop-color="#ffd56f"/></linearGradient><linearGradient id="linear-gradient-2" x1="564.84" y1="71.16" x2="517.59" y2="23.91" gradientTransform="translate(653.21 -402.86) rotate(80.45)" xlink:href="#linear-gradient"/><linearGradient id="linear-gradient-3" x1="510.87" y1="17.2" x2="565.4" y2="71.73" gradientTransform="matrix(0.79, 0.62, -0.62, 0.79, 302.87, -232.99)" gradientUnits="userSpaceOnUse"><stop offset="0" stop-color="#ff902b"/><stop offset="0.2" stop-color="#ff7b25"/><stop offset="0.51" stop-color="#ff611d"/><stop offset="0.79" stop-color="#ff5118"/><stop offset="1" stop-color="#ff4b16"/></linearGradient><linearGradient id="linear-gradient-4" x1="559.51" y1="65.83" x2="521.93" y2="28.26" gradientTransform="matrix(0.49, 0.87, -0.87, 0.49, 476.23, -357.1)" xlink:href="#linear-gradient"/><linearGradient id="linear-gradient-5" x1="716.08" y1="144.77" x2="692.77" y2="121.46" gradientTransform="translate(-12.76 44.05) rotate(-3.35)" gradientUnits="userSpaceOnUse"><stop offset="0" stop-color="#dd0043"/><stop offset="0.24" stop-color="#e91b33"/><stop offset="0.53" stop-color="#f53523"/><stop offset="0.8" stop-color="#fc4519"/><stop offset="1" stop-color="#ff4b16"/></linearGradient><radialGradient id="radial-gradient-2" cx="850.9" cy="195.23" r="78.6" gradientTransform="matrix(1, -0.06, 0.06, 1.03, -13.17, 37.01)" gradientUnits="userSpaceOnUse"><stop offset="0" stop-color="#4f00d4"/><stop offset="0.41" stop-color="#9b6ee7"/><stop offset="0.82" stop-color="#e3d6f8"/><stop offset="1" stop-color="#fff"/></radialGradient><linearGradient id="linear-gradient-6" x1="699.78" y1="-4.3" x2="805.54" y2="101.46" gradientTransform="matrix(0.85, 0.53, -0.53, 0.85, 183, -326.01)" xlink:href="#linear-gradient"/><linearGradient id="linear-gradient-7" x1="761.02" y1="49.59" x2="761.02" y2="34.42" gradientTransform="matrix(0.85, 0.53, -0.53, 0.85, 183, -326.01)" gradientUnits="userSpaceOnUse"><stop offset="0" stop-color="#ff3e7d"/><stop offset="0.19" stop-color="#f47"/><stop offset="0.44" stop-color="#ff5467"/><stop offset="0.72" stop-color="#ff6e4d"/><stop offset="1" stop-color="#ff902b"/></linearGradient><linearGradient id="linear-gradient-8" x1="1703.9" y1="-4.51" x2="1809.66" y2="101.25" gradientTransform="matrix(-0.85, -0.53, -0.53, 0.85, 2372.3, 1039.36)" xlink:href="#linear-gradient"/><linearGradient id="linear-gradient-9" x1="1673.32" y1="49.4" x2="1673.32" y2="33.89" gradientTransform="matrix(-0.85, -0.53, -0.53, 0.85, 2294.77, 991.02)" xlink:href="#linear-gradient-7"/><linearGradient id="linear-gradient-10" x1="772.06" y1="25.7" x2="812.7" y2="66.33" gradientTransform="matrix(0.85, 0.53, -0.53, 0.85, 183, -326.01)" xlink:href="#linear-gradient"/><radialGradient id="radial-gradient-3" cx="807.75" cy="117.28" r="69.49" gradientTransform="matrix(0, 1, -0.44, 0, 872.44, -663.85)" gradientUnits="userSpaceOnUse"><stop offset="0.16" stop-color="#a6007f"/><stop offset="0.24" stop-color="#a80782"/><stop offset="0.35" stop-color="#af1a8c"/><stop offset="0.47" stop-color="#ba3a9c"/><stop offset="0.61" stop-color="#c965b2"/><stop offset="0.77" stop-color="#dd9ece"/><stop offset="0.93" stop-color="#f4e1f0"/><stop offset="1" stop-color="#fff"/></radialGradient><linearGradient id="linear-gradient-11" x1="1575.99" y1="-33.04" x2="1470.83" y2="-138.2" gradientTransform="matrix(-0.85, -0.53, 0.53, -0.85, 2114.63, 868.29)" gradientUnits="userSpaceOnUse"><stop offset="0" stop-color="#c81fff"/><stop offset="0.2" stop-color="#d92dda"/><stop offset="0.43" stop-color="#e93bb5"/><stop offset="0.65" stop-color="#f5459b"/><stop offset="0.85" stop-color="#fc4b8b"/><stop offset="1" stop-color="#ff4d85"/></linearGradient><linearGradient id="linear-gradient-12" x1="1577.57" y1="-34.62" x2="1472.4" y2="-139.78" gradientTransform="matrix(-0.85, -0.53, 0.53, -0.85, 2114.63, 868.29)" xlink:href="#linear-gradient"/><linearGradient id="linear-gradient-13" x1="1472.38" y1="-33.45" x2="1395.57" y2="-110.26" gradientTransform="matrix(-0.85, -0.53, 0.53, -0.85, 2114.63, 868.29)" gradientUnits="userSpaceOnUse"><stop offset="0" stop-color="#ff902b"/><stop offset="0.03" stop-color="#ff8c30"/><stop offset="0.32" stop-color="#ff7155"/><stop offset="0.58" stop-color="#ff5d6f"/><stop offset="0.82" stop-color="#ff517f"/><stop offset="1" stop-color="#ff4d85"/></linearGradient><linearGradient id="linear-gradient-14" x1="1470.16" y1="-31.22" x2="1393.35" y2="-108.04" gradientTransform="matrix(-0.85, -0.53, 0.53, -0.85, 2114.63, 868.29)" xlink:href="#linear-gradient"/><radialGradient id="radial-gradient-4" cx="635.07" cy="198.81" r="40.42" gradientTransform="translate(147.15 -288.26) rotate(27.08)" xlink:href="#radial-gradient"/><linearGradient id="linear-gradient-15" x1="663.27" y1="190.75" x2="640.11" y2="190.75" gradientTransform="matrix(0.9, -0.43, 0.43, 0.9, -36.93, 270.07)" xlink:href="#linear-gradient"/><linearGradient id="linear-gradient-16" x1="649.24" y1="216.79" x2="601.98" y2="169.54" gradientTransform="matrix(0.94, 0.34, -0.34, 0.94, 85.18, -213.59)" xlink:href="#linear-gradient"/><linearGradient id="linear-gradient-17" x1="595.27" y1="162.82" x2="649.8" y2="217.35" gradientTransform="translate(-10.62 -29.67) rotate(1.34)" xlink:href="#linear-gradient-3"/><linearGradient id="linear-gradient-18" x1="643.91" y1="211.46" x2="606.33" y2="173.88" gradientTransform="translate(289.64 -393.1) rotate(43.75)" xlink:href="#linear-gradient"/><linearGradient id="linear-gradient-19" x1="627.46" y1="181.9" x2="597.21" y2="151.66" xlink:href="#linear-gradient-5"/><radialGradient id="radial-gradient-5" cx="653.85" cy="253.41" r="40.42" gradientTransform="matrix(0.9, -0.43, 0.43, 0.9, -16.68, 303.71)" xlink:href="#radial-gradient"/><linearGradient id="linear-gradient-20" x1="682.04" y1="245.35" x2="658.88" y2="245.35" gradientTransform="matrix(0.9, -0.43, 0.43, 0.9, -16.68, 303.71)" xlink:href="#linear-gradient"/><linearGradient id="linear-gradient-21" x1="668.01" y1="271.39" x2="620.76" y2="224.14" gradientTransform="translate(122.81 -167.17) rotate(16.52)" xlink:href="#linear-gradient"/><linearGradient id="linear-gradient-22" x1="614.04" y1="217.42" x2="668.57" y2="271.95" gradientTransform="translate(-13.09 162.71) rotate(-13.57)" xlink:href="#linear-gradient-3"/><linearGradient id="linear-gradient-23" x1="662.68" y1="266.06" x2="625.1" y2="228.48" gradientTransform="translate(38.02 -22.88) rotate(2.53)" xlink:href="#linear-gradient"/><linearGradient id="linear-gradient-24" x1="683.57" y1="260.27" x2="653.32" y2="230.02" xlink:href="#linear-gradient-5"/><radialGradient id="radial-gradient-6" cx="830.6" cy="9.2" r="40.42" gradientTransform="matrix(0.78, 0.63, -0.63, 0.78, 138.34, -290.52)" xlink:href="#radial-gradient"/><linearGradient id="linear-gradient-25" x1="858.8" y1="1.14" x2="835.64" y2="1.14" gradientTransform="matrix(0.94, 0.34, -0.34, 0.94, -0.15, -49.79)" xlink:href="#linear-gradient"/><linearGradient id="linear-gradient-26" x1="844.76" y1="27.18" x2="797.51" y2="-20.07" gradientTransform="translate(23.42 -108.3) rotate(24.07)" xlink:href="#linear-gradient"/><linearGradient id="linear-gradient-27" x1="790.8" y1="-26.79" x2="845.33" y2="27.74" gradientTransform="matrix(-0.33, 0.94, -0.94, -0.33, 1042.91, -545.44)" xlink:href="#linear-gradient-3"/><linearGradient id="linear-gradient-28" x1="839.43" y1="21.85" x2="801.86" y2="-15.73" gradientTransform="translate(6.24 -66.98) rotate(20.94)" xlink:href="#linear-gradient"/><linearGradient id="linear-gradient-29" x1="783.05" y1="239.54" x2="759.74" y2="216.23" xlink:href="#linear-gradient-5"/><radialGradient id="radial-gradient-7" cx="1003.13" cy="3.94" r="40.42" gradientTransform="translate(1574.54 -484.69) rotate(128.9)" xlink:href="#radial-gradient"/><linearGradient id="linear-gradient-30" x1="1031.32" y1="-4.12" x2="1008.16" y2="-4.12" gradientTransform="matrix(0.76, 0.64, -0.64, 0.76, 176.98, -355.93)" xlink:href="#linear-gradient"/><linearGradient id="linear-gradient-31" x1="1017.29" y1="21.92" x2="970.04" y2="-25.33" gradientTransform="translate(1338.17 -627.05) rotate(114.07)" xlink:href="#linear-gradient"/><linearGradient id="linear-gradient-32" x1="963.32" y1="-32.04" x2="1017.85" y2="22.48" gradientTransform="translate(1262.24 -656.92) rotate(109.35)" xlink:href="#linear-gradient-3"/><linearGradient id="linear-gradient-33" x1="1011.96" y1="16.59" x2="974.38" y2="-20.99" gradientTransform="translate(1288.03 -647.58) rotate(110.94)" xlink:href="#linear-gradient"/><linearGradient id="linear-gradient-34" x1="943.91" y1="302.12" x2="920.61" y2="278.81" gradientTransform="translate(132.36 -272.43) rotate(17.12)" xlink:href="#linear-gradient-5"/><radialGradient id="radial-gradient-8" cx="896.52" cy="33.9" r="35.93" gradientTransform="matrix(-0.32, 1.05, -0.76, -0.44, 1178.38, -583.43)" xlink:href="#radial-gradient"/><linearGradient id="linear-gradient-35" x1="626" y1="29.65" x2="611.59" y2="29.65" gradientTransform="matrix(-0.33, 0.94, -0.94, -0.33, 1080.72, -230.18)" xlink:href="#linear-gradient"/><linearGradient id="linear-gradient-36" x1="623.54" y1="51.81" x2="583.34" y2="11.61" gradientTransform="translate(1455.96 358.34) rotate(-179.92)" xlink:href="#linear-gradient"/><linearGradient id="linear-gradient-37" x1="577.63" y1="5.9" x2="624.01" y2="52.29" gradientTransform="translate(1455.96 358.34) rotate(-179.92)" xlink:href="#linear-gradient-3"/><linearGradient id="linear-gradient-38" x1="673.94" y1="645.41" x2="642.03" y2="613.5" gradientTransform="translate(1483.33 -327.62) rotate(90.08)" xlink:href="#linear-gradient"/><linearGradient id="linear-gradient-39" x1="859.6" y1="344.74" x2="837.47" y2="322.62" xlink:href="#linear-gradient-5"/><radialGradient id="radial-gradient-9" cx="525.46" cy="183.83" r="35.93" gradientTransform="matrix(-0.32, 1.05, -0.76, -0.44, 827.52, -303.42)" xlink:href="#radial-gradient"/><linearGradient id="linear-gradient-40" x1="672.14" y1="482.99" x2="657.73" y2="482.99" gradientTransform="matrix(-0.84, 0.54, -0.54, -0.84, 1325.05, 211.54)" xlink:href="#linear-gradient"/><linearGradient id="linear-gradient-41" x1="669.67" y1="505.14" x2="629.48" y2="464.95" gradientTransform="translate(1166.45 633.84) rotate(-179.92)" xlink:href="#linear-gradient"/><linearGradient id="linear-gradient-42" x1="623.76" y1="459.23" x2="670.15" y2="505.62" gradientTransform="translate(1166.44 633.84) rotate(-179.92)" xlink:href="#linear-gradient-3"/><linearGradient id="linear-gradient-43" x1="220.6" y1="691.55" x2="188.69" y2="659.64" gradientTransform="translate(1193.82 -52.12) rotate(90.08)" xlink:href="#linear-gradient"/><linearGradient id="linear-gradient-44" x1="423.31" y1="213.26" x2="401.19" y2="191.14" gradientTransform="translate(297.91 -253.1) rotate(35.07)" xlink:href="#linear-gradient-5"/><radialGradient id="radial-gradient-10" cx="688.42" cy="40.4" r="34.3" gradientTransform="matrix(1.05, 0.32, -0.44, 0.76, -26.4, -205.27)" xlink:href="#radial-gradient"/><linearGradient id="linear-gradient-45" x1="588.79" y1="253.06" x2="574.38" y2="253.06" gradientTransform="matrix(0.43, 0.9, -0.9, 0.43, 648.3, -575.27)" xlink:href="#linear-gradient"/><linearGradient id="linear-gradient-46" x1="586.32" y1="275.22" x2="546.13" y2="235.02" gradientTransform="translate(919.49 -521.02) rotate(90.08)" xlink:href="#linear-gradient"/><linearGradient id="linear-gradient-47" x1="540.42" y1="229.31" x2="586.8" y2="275.69" gradientTransform="translate(919.49 -521.02) rotate(90.08)" xlink:href="#linear-gradient-3"/><linearGradient id="linear-gradient-48" x1="450.16" y1="609.06" x2="418.25" y2="577.15" gradientTransform="translate(233.88 -549.22) rotate(0.08)" xlink:href="#linear-gradient"/><linearGradient id="linear-gradient-49" x1="685.02" y1="46.64" x2="668.77" y2="30.38" xlink:href="#linear-gradient-5"/><radialGradient id="radial-gradient-11" cx="609.58" cy="92.35" r="34.3" gradientTransform="matrix(1.05, 0.32, -0.44, 0.76, -24.22, 18.4)" xlink:href="#radial-gradient"/><linearGradient id="linear-gradient-50" x1="614.45" y1="357.73" x2="600.03" y2="357.73" gradientTransform="matrix(-0.01, 1, -1, -0.01, 928.14, -310.77)" xlink:href="#linear-gradient"/><linearGradient id="linear-gradient-51" x1="611.98" y1="379.89" x2="571.78" y2="339.69" gradientTransform="matrix(-0.01, 1, -1, -0.01, 928.14, -310.77)" xlink:href="#linear-gradient"/><linearGradient id="linear-gradient-52" x1="566.07" y1="333.98" x2="612.45" y2="380.37" gradientTransform="translate(1152.9 633.38) rotate(-179.92)" xlink:href="#linear-gradient-3"/><linearGradient id="linear-gradient-53" x1="345.85" y1="633.85" x2="313.95" y2="601.94" gradientTransform="translate(1180.28 -52.58) rotate(90.08)" xlink:href="#linear-gradient"/><linearGradient id="linear-gradient-54" x1="572.89" y1="274.22" x2="550.77" y2="252.1" gradientTransform="translate(-56.72 240.4) rotate(-21.92)" xlink:href="#linear-gradient-5"/><radialGradient id="radial-gradient-12" cx="725.99" cy="412.77" r="111.23" gradientTransform="translate(10.24 322.21) scale(1 0.23)" xlink:href="#radial-gradient-2"/><linearGradient id="linear-gradient-55" x1="635.16" y1="341.64" x2="808.11" y2="341.64" gradientTransform="translate(-12.76 44.05) rotate(-3.35)" xlink:href="#linear-gradient-11"/><radialGradient id="radial-gradient-13" cx="717.86" cy="660.98" r="37.38" gradientTransform="matrix(1.03, 0, 0, 0.93, -39.41, -282.56)" xlink:href="#radial-gradient"/><linearGradient id="linear-gradient-56" x1="745.72" y1="655.95" x2="724.32" y2="655.95" gradientTransform="matrix(0.92, -0.46, 0.42, 0.83, -236.32, 111.65)" xlink:href="#linear-gradient"/><linearGradient id="linear-gradient-57" x1="732.76" y1="680.01" x2="689.08" y2="636.34" gradientTransform="matrix(1.03, 0, 0, 0.93, -40.5, -277.87)" xlink:href="#linear-gradient"/><linearGradient id="linear-gradient-58" x1="682.88" y1="630.13" x2="733.28" y2="680.53" gradientTransform="matrix(0.92, -0.46, 0.42, 0.83, -236.32, 111.65)" xlink:href="#linear-gradient-3"/><linearGradient id="linear-gradient-59" x1="727.83" y1="675.09" x2="693.1" y2="640.35" gradientTransform="matrix(1.03, 0, 0, 0.93, -40.5, -277.87)" xlink:href="#linear-gradient"/><linearGradient id="linear-gradient-60" x1="697.91" y1="342.09" x2="671.6" y2="315.77" xlink:href="#linear-gradient-5"/><linearGradient id="linear-gradient-61" x1="972.58" y1="117.54" x2="958.88" y2="117.54" gradientTransform="translate(314.28 -519.92) rotate(54.97)" xlink:href="#linear-gradient"/><linearGradient id="linear-gradient-62" x1="970.24" y1="138.6" x2="932.02" y2="100.39" gradientTransform="matrix(0, 1, -1, 0, 881.71, -624.24)" xlink:href="#linear-gradient"/><linearGradient id="linear-gradient-63" x1="926.59" y1="94.96" x2="970.69" y2="139.05" gradientTransform="translate(314.28 -519.92) rotate(54.97)" xlink:href="#linear-gradient-3"/><linearGradient id="linear-gradient-64" x1="584.38" y1="992.77" x2="554.05" y2="962.43" gradientTransform="translate(196.52 -652.03) rotate(0.08)" xlink:href="#linear-gradient"/><linearGradient id="linear-gradient-65" x1="765.27" y1="333.44" x2="750.02" y2="318.19" xlink:href="#linear-gradient-5"/><linearGradient id="linear-gradient-66" x1="732.17" y1="102.2" x2="718.47" y2="102.2" gradientTransform="translate(864.06 -360.7) rotate(93.35)" xlink:href="#linear-gradient"/><linearGradient id="linear-gradient-67" x1="729.82" y1="123.26" x2="691.61" y2="85.05" gradientTransform="translate(1429.24 444.04) rotate(-179.92)" xlink:href="#linear-gradient"/><linearGradient id="linear-gradient-68" x1="686.18" y1="79.62" x2="730.27" y2="123.72" gradientTransform="matrix(-1, 0, 0, -1, 1429.24, 444.04)" xlink:href="#linear-gradient-3"/><linearGradient id="linear-gradient-69" x1="599.47" y1="752.83" x2="569.14" y2="722.49" gradientTransform="translate(1457.49 -240.91) rotate(90.08)" xlink:href="#linear-gradient"/><linearGradient id="linear-gradient-70" x1="723.98" y1="348.93" x2="704.07" y2="329.02" xlink:href="#linear-gradient-5"/><radialGradient id="radial-gradient-14" cx="697.09" cy="325.99" r="37.38" gradientTransform="matrix(0.31, 0.95, -0.95, 0.31, 832.56, -455.25)" xlink:href="#radial-gradient"/><linearGradient id="linear-gradient-71" x1="724.96" y1="320.96" x2="703.55" y2="320.96" gradientTransform="matrix(0.89, 0.46, -0.46, 0.89, 264.49, -299.75)" xlink:href="#linear-gradient"/><linearGradient id="linear-gradient-72" x1="711.99" y1="345.02" x2="668.31" y2="301.35" gradientTransform="translate(449.58 -405.69) rotate(43.28)" xlink:href="#linear-gradient"/><linearGradient id="linear-gradient-73" x1="662.11" y1="295.14" x2="712.51" y2="345.54" gradientTransform="translate(479.42 -416.85) rotate(45.68)" xlink:href="#linear-gradient-3"/><linearGradient id="linear-gradient-74" x1="707.06" y1="340.1" x2="672.33" y2="305.37" gradientTransform="matrix(0.71, 0.7, -0.7, 0.71, 466.13, -412.05)" xlink:href="#linear-gradient"/><linearGradient id="linear-gradient-75" x1="737.3" y1="308.76" x2="716.81" y2="288.27" xlink:href="#linear-gradient-5"/><linearGradient id="linear-gradient-76" x1="736.79" y1="429.39" x2="635.44" y2="328.05" gradientTransform="translate(-12.76 44.05) rotate(-3.35)" xlink:href="#linear-gradient-13"/><linearGradient id="linear-gradient-77" x1="638.37" y1="335.4" x2="769.18" y2="466.2" gradientTransform="translate(-12.76 44.05) rotate(-3.35)" xlink:href="#linear-gradient"/><linearGradient id="linear-gradient-78" x1="809.2" y1="426.21" x2="686.11" y2="303.13" gradientTransform="translate(-12.76 44.05) rotate(-3.35)" xlink:href="#linear-gradient-11"/><linearGradient id="linear-gradient-79" x1="1765.74" y1="334.8" x2="1897.69" y2="466.75" gradientTransform="matrix(-1, 0.06, 0.06, 1, 2557.58, -106.4)" xlink:href="#linear-gradient"/></defs><title>第八張_破天荒來襲</title><g class="cls-1"><g id="圖層_5" data-name="圖層 5"><rect class="cls-2" y="0.28" width="1029" height="479.72"/></g><g id="圖層_4" data-name="圖層 4"><rect class="cls-3" x="44.2" y="198.41" width="399.13" height="68.35"/><path class="cls-4" d="M69.74,386.38a.76.76,0,0,1-.8.85.63.63,0,0,0-.64.67q-.17,5.39-1.55,7.87A1.1,1.1,0,0,0,67,397a29.3,29.3,0,0,1,2.14,2.11.84.84,0,0,1,0,1.2l-1.12,1.41q-.48.62-1,0A14.75,14.75,0,0,0,65.5,400c-.39-.37-.74-.35-1,.08a10.75,10.75,0,0,1-3.44,3.6.84.84,0,0,1-1.2-.11l-1.12-1.09a.6.6,0,0,1,.08-1q2.88-2,3.46-3.49a.9.9,0,0,0-.18-1.23c-1.39-1.28-2.32-2.12-2.8-2.53a1.25,1.25,0,0,1-.4-1.31q.72-2.71,1-4.26.1-.78-.69-.72a.62.62,0,0,1-.75-.64l-.16-1.52c0-.54.19-.8.72-.8l.66,0a.83.83,0,0,0,.88-.83q.44-3.16.48-4a.71.71,0,0,1,.83-.77l1.57.08a.64.64,0,0,1,.7.8,37.33,37.33,0,0,1-.48,3.78q-.11.81.69.78l.32,0a.81.81,0,0,0,.8-.93.71.71,0,0,1,.8-.8h1.36a.71.71,0,0,1,.8.8.61.61,0,0,0,.72.69c.44,0,.67.17.67.61Zm-4.38,1.89c0-.53-.26-.78-.8-.74l-.77.05a.92.92,0,0,0-.93.83c-.32,1.74-.56,2.89-.72,3.46a1.29,1.29,0,0,0,.45,1.28l.83.72c.41.34.69.26.85-.24A13.71,13.71,0,0,0,65.36,388.27Zm16.93,1.82a.7.7,0,0,1,.8.8v1.41a.71.71,0,0,1-.8.8H78.56a.71.71,0,0,0-.8.8v6.69a4.38,4.38,0,0,1-.32,1.89,2.16,2.16,0,0,1-1.15,1,9.49,9.49,0,0,1-3.86.51.89.89,0,0,1-1-.77,4.22,4.22,0,0,0-.56-1.52q-.34-.72.45-.72c.36,0,1.19,0,2.51,0a.67.67,0,0,0,.45-.1.49.49,0,0,0,.14-.4V393.9a.71.71,0,0,0-.8-.8h-4a.71.71,0,0,1-.8-.8v-1.41a.7.7,0,0,1,.8-.8h4a.71.71,0,0,0,.8-.8v-1.76a16.1,16.1,0,0,0,2.79-3.26c.31-.42.19-.64-.34-.64H70.7a.7.7,0,0,1-.8-.8v-1.28a.71.71,0,0,1,.8-.8l9.83-.16,1.5,1.1a.71.71,0,0,1,.21,1.09,22.92,22.92,0,0,1-4.48,5.31v1.2a.71.71,0,0,0,.8.8Z"/><path class="cls-4" d="M97.36,393.21a.92.92,0,0,1,0,1.25l-1,1.36c-.32.43-.62.42-.91,0a8.75,8.75,0,0,0-.82-1.25c-.3-.43-.45-.37-.45.16v8.53c0,.52-.27.77-.8.77H92.11c-.54,0-.8-.25-.8-.77v-7.81c0-.53-.19-.61-.56-.24a5.35,5.35,0,0,1-1,.93c-.41.34-.68.25-.82-.26l-.35-1-.32-.8a.84.84,0,0,1,.29-1.17,8.53,8.53,0,0,0,2.56-2.51,15,15,0,0,0,2.16-3.22c.25-.46.11-.7-.42-.7H89.28c-.53,0-.8-.25-.8-.77v-1.28a.71.71,0,0,1,.8-.8h2c.51,0,.64-.24.37-.72a8.56,8.56,0,0,0-1-1.52.62.62,0,0,1,.18-1l1-.64a.7.7,0,0,1,1.09.24l1.36,2c.31.45.19.85-.34,1.23s-.4.44.13.42l1.52-.1,1,.72a.94.94,0,0,1,.38,1.2,17.59,17.59,0,0,1-2,4.32.88.88,0,0,0,.13,1.22A25.26,25.26,0,0,1,97.36,393.21Zm11.7,7.43c-.25.4-.13.59.35.59h2.69a.71.71,0,0,1,.8.8v.77a.69.69,0,0,1-.77.78H97.6a.7.7,0,0,1-.8-.78V402a.71.71,0,0,1,.8-.8h2.58c.54,0,.71-.25.54-.75l-.22-.48.08-.69c.36-.39.27-.59-.26-.59h-.7c-.53,0-.8-.25-.8-.77v-3.78a.71.71,0,0,1,.8-.8h10.56c.54,0,.8.25.8.77v3.78c0,.54-.26.8-.77.8l-1.6.22.56.16c.51.14.63.43.35.88Zm-11.17-8.21a.71.71,0,0,1-.8-.8V391a.71.71,0,0,1,.8-.8h13.94a.71.71,0,0,1,.8.8v.64a.7.7,0,0,1-.8.8ZM111,381.21a.7.7,0,0,1,.8.77v6.48a.71.71,0,0,1-.8.8H98.8c-.54,0-.8-.26-.8-.77V382a.7.7,0,0,1,.8-.8h2.08a.7.7,0,0,0,.77-.8v-.48a.71.71,0,0,1,.8-.8h.85a.71.71,0,0,1,.8.8v.48a.71.71,0,0,0,.8.8.62.62,0,0,0,.7-.7v-.61c0-.51.26-.77.8-.77h.85a.71.71,0,0,1,.8.8v.48a.71.71,0,0,0,.8.8Zm-9.68,1.84a.71.71,0,0,0-.8.8.42.42,0,0,0,.48.48h.29a.71.71,0,0,0,.8-.8.42.42,0,0,0-.48-.48Zm0,3a.71.71,0,0,0-.8.8.42.42,0,0,0,.48.48h.29a.71.71,0,0,0,.8-.8.42.42,0,0,0-.48-.48Zm.88,9.14a.8.8,0,1,0,0,1.6h5.25a.8.8,0,1,0,0-1.6Zm4.53,4.24c.2-.5,0-.75-.5-.75h-2.75q-.8,0-.51.72l.43,1.07a1,1,0,0,0,1.07.72h.8a1,1,0,0,0,1.06-.75Zm-2.64-15.73a.52.52,0,0,0,.59.59h.43a.42.42,0,0,0,.48-.48.71.71,0,0,0-.8-.8A.61.61,0,0,0,104.1,383.74Zm1.5,2.93a.52.52,0,0,0-.59-.58h-.43a.42.42,0,0,0-.48.48.71.71,0,0,0,.8.8A.62.62,0,0,0,105.6,386.67Zm2.77-2.34a.71.71,0,0,0,.8-.8.42.42,0,0,0-.48-.48h-.29a.7.7,0,0,0-.8.8.42.42,0,0,0,.48.48Zm0,3a.71.71,0,0,0,.8-.8.42.42,0,0,0-.48-.48h-.29a.7.7,0,0,0-.8.8.42.42,0,0,0,.48.48Z"/><path class="cls-4" d="M136.39,400.54c-.27.46-.13.69.4.69h4.61a.71.71,0,0,1,.8.8v.69a.7.7,0,0,1-.8.8H119.33a.7.7,0,0,1-.8-.8V402a.71.71,0,0,1,.8-.8h4.85q.79,0,.48-.72l-.45-1.15c.07-.24,0-.37-.27-.37H122.5a.71.71,0,0,1-.8-.8v-3.62a.71.71,0,0,1,.8-.8h16.21a.71.71,0,0,1,.8.8v3.62a.71.71,0,0,1-.8.8l-1.47.08Zm4.75-9.79a.71.71,0,0,1,.8.8v.54a.71.71,0,0,1-.8.8H119.62c-.52,0-.77-.27-.77-.8v-.54c0-.53.25-.8.77-.8ZM140,379.85a.71.71,0,0,1,.8.8v8.42a.71.71,0,0,1-.8.8H120.71a.71.71,0,0,1-.8-.8v-8.42a.71.71,0,0,1,.8-.8h1.07a.71.71,0,0,1,.8.8v6.29a.71.71,0,0,0,.8.8H124l.4-.19c.27-.46.14-.69-.4-.69a.7.7,0,0,1-.8-.77c0-.46.27-.7.8-.7l.38-.18c.28-.45.16-.67-.35-.67a.61.61,0,0,1-.69-.69q0-.75.72-.75c.49,0,.74-.28.74-.85h-.74a.71.71,0,0,1-.8-.8c0-.43.25-.64.74-.64a.71.71,0,0,0,.8-.8.47.47,0,0,1,.54-.53h.5a.7.7,0,0,1,.8.8.47.47,0,0,0,.54.53h.32a.71.71,0,0,1,.8.8c0,.42-.29.64-.86.64l-.37.18c-.29.45-.16.67.37.67a.66.66,0,0,1,.75.75q0,.69-.75.69l-.37.19q-.44.66.48.66a.7.7,0,0,1,.8.78c0,.46-.3.69-.91.69l-.4.19c-.26.46-.13.69.4.69h.7a.71.71,0,0,0,.8-.8v-7c0-.53.25-.8.77-.8h1.2a.71.71,0,0,1,.8.8v7a.71.71,0,0,0,.8.8h.64l.4-.19q.39-.69-.48-.69c-.54,0-.8-.26-.8-.77s.29-.7.88-.7l.37-.18c.29-.45.16-.67-.37-.67a.66.66,0,0,1-.75-.75q0-.69.75-.69l.37-.19c.29-.44.15-.66-.4-.66a.71.71,0,0,1-.8-.8c0-.43.28-.64.83-.64a.71.71,0,0,0,.8-.8.47.47,0,0,1,.53-.53H135a.7.7,0,0,1,.8.8c0,.35.26.53.78.53a.71.71,0,0,1,.8.8c0,.42-.26.64-.78.64l-.37.18c-.28.45-.17.67.35.67a.61.61,0,0,1,.69.69q0,.75-.72.75c-.5,0-.75.29-.75.85h.83a.7.7,0,0,1,.8.78c0,.46-.28.69-.83.69l-.4.19c-.26.46-.13.69.4.69h.64a.71.71,0,0,0,.8-.8v-6.29a.7.7,0,0,1,.78-.8Zm-14.59,15.78a.7.7,0,0,0-.77.8.64.64,0,0,0,.72.72h10.18a.71.71,0,0,0,.8-.8.64.64,0,0,0-.72-.72Zm8.24,4.08q.35-.72-.45-.72H128c-.54,0-.72.25-.56.75l.26.74a1,1,0,0,0,1,.75h3.39a1.18,1.18,0,0,0,1.14-.72Z"/><path class="cls-4" d="M162,380.25a1.12,1.12,0,0,0,1.1.75h7.73a.7.7,0,0,1,.8.79V386a.71.71,0,0,1-.8.8h-1.58a.71.71,0,0,1-.8-.8v-1.58c0-.51-.26-.77-.8-.77H152.71a.71.71,0,0,0-.8.8V386a.7.7,0,0,1-.8.78h-1.42a.71.71,0,0,1-.8-.8v-4.22a.7.7,0,0,1,.8-.79h8c.54,0,.67-.31.4-.91-.16-.43,0-.68.43-.75l2-.42a1,1,0,0,1,1.12.56Zm-10.93,23.83a.71.71,0,0,1-.8-.8V395a.71.71,0,0,1,.8-.8h18.4a.71.71,0,0,1,.8.8v8.26a.71.71,0,0,1-.8.8l-1.82-.08a1.68,1.68,0,0,0-1.33-.61l-12.56.1a1.5,1.5,0,0,1-1.28.64Zm1.95-10.9a.71.71,0,0,1-.8-.8v-3.81a.7.7,0,0,1,.8-.8h14.26a.71.71,0,0,1,.8.8v3.81a.71.71,0,0,1-.8.8Zm-.14-7.68a.71.71,0,0,1,.8-.8h13a.71.71,0,0,1,.8.8V386a.71.71,0,0,1-.8.8h-13a.71.71,0,0,1-.8-.8ZM158.57,397a.44.44,0,0,0-.5-.5H153.8a.45.45,0,0,0-.51.5.71.71,0,0,0,.8.8h3.68A.7.7,0,0,0,158.57,397Zm-5.28,3.58a.44.44,0,0,0,.51.5h4.27a.44.44,0,0,0,.5-.5.7.7,0,0,0-.8-.8h-3.68A.71.71,0,0,0,153.29,400.54Zm2.64-10.69a.71.71,0,0,0-.8.8.45.45,0,0,0,.51.5h8.56a.71.71,0,0,0,.8-.8.45.45,0,0,0-.51-.5Zm10.4,7.91a.71.71,0,0,0,.8-.8.45.45,0,0,0-.51-.5h-4.18c-.52,0-.77.27-.77.8a.44.44,0,0,0,.5.5Zm-4.66,2.78a.44.44,0,0,0,.5.5h4.45a.44.44,0,0,0,.51-.5c0-.54-.26-.8-.77-.8h-3.92C161.92,399.74,161.67,400,161.67,400.54Z"/><path class="cls-4" d="M181.93,397.15a.72.72,0,0,1-1-.45l-.27-.7a.69.69,0,0,1,.43-1c1.63-.49,2.51-1.38,2.64-2.66q.08-.27-.21-.24a2.69,2.69,0,0,1-1.79-.64,2.38,2.38,0,0,1,0-3.47,3,3,0,0,1,2-.67,2.39,2.39,0,0,1,2,1,4.24,4.24,0,0,1,.74,2.67,6.17,6.17,0,0,1-1.41,4A5.94,5.94,0,0,1,181.93,397.15Z"/><path class="cls-4" d="M218.46,388.75a.7.7,0,0,1-.78.8h-7.81q-.8,0-.51.72,2.88,8.53,9,10.32a.58.58,0,0,1,.21,1l-1.38,1.76a.79.79,0,0,1-1.15.21,16.52,16.52,0,0,1-9-10.18c-.22-.48-.42-.48-.62,0q-2.51,7.72-9,10.23a.88.88,0,0,1-1.2-.21l-1.33-1.52c-.36-.39-.31-.72.16-1q7.8-3.47,8.79-10.58c.13-.5-.08-.75-.61-.75h-7.57a.71.71,0,0,1-.8-.8v-1.68a.71.71,0,0,1,.8-.8h8.1a.76.76,0,0,0,.86-.8,54.41,54.41,0,0,0,.21-5.51.71.71,0,0,1,.8-.8h1.87a.71.71,0,0,1,.8.8,48,48,0,0,1-.24,5.54c-.06.52.18.77.72.77h8.88a.71.71,0,0,1,.8.8Z"/><path class="cls-4" d="M248.9,397.82a.71.71,0,0,1-.8.8h-6.26c-.54,0-.55.08-.06.24q4.46,1.51,6.48,2.42a.6.6,0,0,1,.35,1l-.64,1.09a.79.79,0,0,1-1.12.38,72.91,72.91,0,0,0-8.93-3.55c-.5-.16-.61-.46-.32-.9s.13-.67-.4-.67q-2.3,4.08-10.69,5.41a1.11,1.11,0,0,1-1.23-.48l-.88-1.28c-.28-.43-.17-.68.35-.77q6.45-1,7.62-2.4c.43-.32.38-.48-.16-.48h-7.3a.71.71,0,0,1-.8-.8v-1a.71.71,0,0,1,.8-.81h9.17a.68.68,0,0,0,.77-.71v-1a.71.71,0,0,1,.8-.8h1.57a.7.7,0,0,1,.78.8v1.06a.51.51,0,0,0,.58.61h3.26c.51,0,.57-.15.16-.47l-.51-.38c-.43-.32-.44-.65-.05-1s.2-.37-.14-.37a.57.57,0,0,1-.61-.51c-.09-.6-.2-1-.35-1.07a.6.6,0,0,0-1-.32l-.88.51a1,1,0,0,1-1.28-.13L235.76,391a.58.58,0,0,1,.05-1c.3-.23.27-.34-.1-.34h-1.28a.71.71,0,0,1-.8-.8v-.46l.29-.53c.5-.18.56-.56.19-1.15-.32-.41-.23-.64.29-.69a14.6,14.6,0,0,0,5.14-1.12c.5-.19.56-.47.19-.83l-1.07-1a1.22,1.22,0,0,0-1.3-.29c-.5.19-1,.35-1.39.48a1,1,0,0,1-1.22-.46l-.24-.29-.27-.29c-.39-.36-.33-.59.19-.7,3.16-.64,5-1.3,5.59-2a1.75,1.75,0,0,1,1.42-.3l1,.22c.51.1.56.32.13.66s-.29.4.13.4l3.58-.08.93.48a.6.6,0,0,1,.27,1,7.12,7.12,0,0,1-4.16,3.7c-.48.2-.46.3.08.3h1.3c.54,0,.8.3.8.9a.71.71,0,0,0,.8.8h1.42a.71.71,0,0,1,.8.8v.46a.71.71,0,0,1-.8.8h-1.42a.71.71,0,0,0-.8.8v.85a3.34,3.34,0,0,1-.24,1.44,1.55,1.55,0,0,1-1.49.88c-.53.11-.59.32-.16.64l.85.64.11.35c-.09.53.13.79.67.79h2.82a.71.71,0,0,1,.8.81Zm-19-7.55a.71.71,0,0,0-.8-.8.61.61,0,0,0-.67.62,6.84,6.84,0,0,1-.43,2.24,3.3,3.3,0,0,1-1.12,1.89.91.91,0,0,1-1.22.21l-1-.58c-.46-.27-.5-.59-.13-1,1.12-.87,1.54-1.75,1.25-2.62a.76.76,0,0,0-.85-.8q-.69,0-.69-.66v-1a.71.71,0,0,1,.8-.8h4.1a.69.69,0,0,0,.78-.77.62.62,0,0,0-.7-.7h-3.14a.7.7,0,0,1-.8-.8v-4.16a.71.71,0,0,1,.8-.8h1a.71.71,0,0,1,.8.8v1.76a.7.7,0,0,0,.8.8h.4c.53,0,.8-.25.8-.77V380a.71.71,0,0,1,.8-.8H232a.71.71,0,0,1,.8.8v13.6a.71.71,0,0,1-.8.8h-1.28a.71.71,0,0,1-.8-.8Zm4.66-5.78c-.09-.54.13-.82.64-.86l2.51-.21a.62.62,0,0,1,.72.67.8.8,0,0,1-.8.88l-2.16.24A.76.76,0,0,1,234.61,384.49Zm3.15,3.06h4c.51,0,.77-.28.77-.85s-.25-.7-.75-.51A17.1,17.1,0,0,1,237.76,387.55Zm2.1,3.66a7.75,7.75,0,0,0,2.3.32.35.35,0,0,0,.37-.38v-.74a.71.71,0,0,0-.8-.8H238.9c-.53,0-.58.16-.16.48A5.92,5.92,0,0,1,239.86,391.21Zm3.79-8.48c.37-.38.29-.56-.24-.56h-2.08c-.53,0-.6.18-.21.53l.48.45a.92.92,0,0,0,1.25.14Z"/><path class="cls-4" d="M257.22,395.82c0-.53-.27-.74-.8-.61s-.91.24-1.25.34a.69.69,0,0,1-1-.56l-.43-1.49a.68.68,0,0,1,.62-.93c.83-.18,1.51-.34,2-.48a.94.94,0,0,0,.8-1v-3.2a.71.71,0,0,0-.8-.8h-1.6a.71.71,0,0,1-.8-.8v-1.36a.71.71,0,0,1,.8-.8h1.6a.71.71,0,0,0,.8-.8V380a.71.71,0,0,1,.8-.8h1.47a.71.71,0,0,1,.8.8v3.38a.71.71,0,0,0,.8.8h1a.71.71,0,0,1,.8.8v1.36a.71.71,0,0,1-.8.8h-1c-.54,0-.8.26-.8.77v2.46c0,.53.25.73.77.61l.93-.27c.52-.12.81.07.88.59l.19,1.31a.82.82,0,0,1-.64,1l-1.36.37a1,1,0,0,0-.77,1v5.73a4.55,4.55,0,0,1-.27,1.78,1.69,1.69,0,0,1-.88,1,6.63,6.63,0,0,1-3.2.59.9.9,0,0,1-1-.8,3.6,3.6,0,0,0-.29-1.39c-.29-.46-.16-.68.37-.66.16,0,.71,0,1.65,0a.44.44,0,0,0,.51-.5Zm15-11.57a.7.7,0,0,0,.79.8h4.46a.71.71,0,0,1,.8.8V403a.7.7,0,0,1-.8.77h-1.58c-.51,0-.77-.31-.77-.93a.71.71,0,0,0-.8-.8h-7a.71.71,0,0,0-.8.8v.32a.71.71,0,0,1-.8.8h-1.44a.71.71,0,0,1-.8-.8V385.85a.71.71,0,0,1,.8-.8h4.16a.7.7,0,0,0,.8-.78V380a.71.71,0,0,1,.8-.8h1.39c.53,0,.8.25.8.77Zm-3,4.61a.71.71,0,0,0-.8-.8H267.3a.71.71,0,0,0-.8.8v2.27a.71.71,0,0,0,.8.8h1.12a.71.71,0,0,0,.8-.8Zm-1.92,6a.71.71,0,0,0-.8.8v2.53a.71.71,0,0,0,.8.8h1.12a.71.71,0,0,0,.8-.8v-2.53a.71.71,0,0,0-.8-.8Zm7.81-6a.71.71,0,0,0-.8-.8H273a.7.7,0,0,0-.79.8v2.27a.7.7,0,0,0,.79.8h1.31a.71.71,0,0,0,.8-.8Zm-2.9,9.36a.7.7,0,0,0,.79.8h1.31a.71.71,0,0,0,.8-.8v-2.53a.71.71,0,0,0-.8-.8H273a.7.7,0,0,0-.79.8Z"/><path class="cls-4" d="M297.93,388.62c0,.52.21.6.62.27l.74-.64a1,1,0,0,1,1.26-.06q6.66,4.8,7.68,6.22a.66.66,0,0,1,0,1.09l-1.52,1.36a.7.7,0,0,1-1.12-.05,39.22,39.22,0,0,0-7-6.16c-.42-.32-.64-.22-.64.32v12.21a.71.71,0,0,1-.8.8h-1.86a.71.71,0,0,1-.8-.8V391.77c0-.54-.19-.62-.56-.24a23.52,23.52,0,0,1-7.23,5.65.85.85,0,0,1-1.17-.3l-1.23-1.59c-.32-.43-.25-.76.22-1a18.7,18.7,0,0,0,5.81-4.11,25.79,25.79,0,0,0,4.56-5.36c.28-.44.16-.66-.38-.66h-9a.71.71,0,0,1-.8-.8v-1.66a.7.7,0,0,1,.8-.79H307a.7.7,0,0,1,.8.79v1.66a.7.7,0,0,1-.77.8h-6.72a1.32,1.32,0,0,0-1.2.66,14.22,14.22,0,0,1-1.15,1.79Z"/><path class="cls-4" d="M321.56,381.16a52.86,52.86,0,0,1-2.22,4.85V403.2a.7.7,0,0,1-.8.8h-1.28a.71.71,0,0,1-.8-.8V391.45c0-.52-.16-.57-.48-.16l-.45.58c-.34.41-.62.38-.85-.08l-1-1.89a1.06,1.06,0,0,1,.18-1.28,15.3,15.3,0,0,0,2.7-3.89,25.5,25.5,0,0,0,2.18-4.75.72.72,0,0,1,1-.5l1.38.42C321.68,380.06,321.8,380.48,321.56,381.16Zm16.05,10.34a.71.71,0,0,1,.8.8v3.25a.7.7,0,0,1-.8.78h-1.2a.7.7,0,0,0-.8.8.63.63,0,0,1-.72.71h-2.7a.71.71,0,0,0-.8.8v2.27a3.87,3.87,0,0,1-.29,1.71,2.1,2.1,0,0,1-1.28.93,11.73,11.73,0,0,1-3.65.37.93.93,0,0,1-1-.8,4.46,4.46,0,0,0-.32-1.28c-.26-.46-.13-.68.4-.66.29,0,1.09,0,2.4,0,.36,0,.53-.13.53-.4v-2.16a.7.7,0,0,0-.79-.8h-3a.7.7,0,0,1-.8-.8v-.87a.7.7,0,0,1,.8-.8h10.31a.7.7,0,0,0,.8-.78.54.54,0,0,0-.61-.61H324.41a.7.7,0,0,0-.8.77v.78a.71.71,0,0,1-.8.8h-1.12a.71.71,0,0,1-.8-.8v-3.26a.7.7,0,0,1,.8-.77Zm-15.31-7.73a.71.71,0,0,1-.8-.8v-1a.71.71,0,0,1,.8-.8h5.15q.8,0,.48-.75c-.25-.46-.14-.76.34-.88l1.47-.4a.88.88,0,0,1,1.12.48l.4.8a1.18,1.18,0,0,0,1.15.75h5a.71.71,0,0,1,.8.8v1a.71.71,0,0,1-.8.8Zm14.05,5.86a.7.7,0,0,1-.8.8H323.9a.71.71,0,0,1-.8-.8v-4.05a.71.71,0,0,1,.8-.8h11.65a.71.71,0,0,1,.8.8Zm-9.57-2.74a.71.71,0,0,0-.8.8.54.54,0,0,0,.62.61h5.91a.71.71,0,0,0,.8-.8.54.54,0,0,0-.61-.61Z"/><path class="cls-5" d="M126.2,67c0-3.93,0-7.87,0-11.8,0-.65.14-.87.82-.86q7,0,13.93,0c.65,0,.88.16.85.84a25.36,25.36,0,0,0,0,3c0,.7-.17.92-.89.9-2.69,0-5.38,0-8.07,0-.78,0-1,.21-.94.95a30.82,30.82,0,0,1,0,3.33c0,.75.17,1,.94,1,2.49,0,5,0,7.47,0,.78,0,1,.22.92,1a25.53,25.53,0,0,0,0,3c0,.6-.2.72-.75.71-2.56,0-5.11,0-7.67,0-.7,0-.93.18-.9.89.05,1.41.05,2.83,0,4.24,0,.67.18.84.84.83,2.9,0,5.79,0,8.68,0,.71,0,1,.19.91.91-.06,1,0,2.08,0,3.12,0,.48-.08.74-.66.74q-7.41,0-14.83,0c-.73,0-.61-.42-.61-.85C126.21,74.89,126.21,71,126.2,67Z"/><path class="cls-5" d="M190.06,69.49c0,3.06,0,6.12,0,9.18,0,.75-.13,1.07-1,1a31.4,31.4,0,0,0-3.63,0c-.86,0-1.14-.17-1.13-1.09.05-6.12,0-12.25.05-18.37,0-.84-.23-1.08-1.06-1-1.65.07-3.3,0-5,0-.74,0-.9-.23-.86-.92.05-1.07,0-2.15,0-3.22,0-.5.07-.72.64-.72q9,0,18.07,0c.58,0,.75.19.73.75,0,1.14,0,2.29,0,3.43,0,.54-.18.68-.7.67-1.78,0-3.56,0-5.34,0-.73,0-.89.24-.89.92C190.08,63.23,190.06,66.36,190.06,69.49Z"/><path class="cls-5" d="M168.83,67c0-3.9,0-7.8,0-11.7,0-.71.18-.92.89-.89,1.34,0,2.69,0,4,0,.6,0,.82.11.81.77q0,11.85,0,23.71c0,.67-.17.87-.84.85q-2-.07-3.93,0c-.73,0-1-.15-1-.93C168.85,74.82,168.83,70.89,168.83,67Z"/><path class="cls-5" d="M92.71,77.14,80.06,78.79c-.47.06-1,.3-1.33-.25-.66-1-1.35-1.89-2-2.84h0c-.21-.34-.39-.7-.62-1-1.74-2.43-3.47-4.87-5.24-7.27A1.16,1.16,0,0,1,70.67,66c2.37-3.25,4.77-6.49,7.09-9.78a1.81,1.81,0,0,1,2-.84c4.23.57,8.47,1,12.71,1.59.58.07.85,0,.84-.69q0-3.69,0-7.37c0-.64-.24-.79-.84-.79-6,0-12-.05-18-.06-3.38,0-3.38,0-4.68,2.66-1.44,2.91-3.27,5.63-4.59,8.62h0l-.2.41-.84,1.56h0c-.23-.11-.31-.34-.42-.54-2.12-4.05-4.61-7.89-6.88-11.85a1.43,1.43,0,0,0-1.44-.82c-3.32,0-6.65,0-10,.09-.34,0-.82-.28-1,.15s.25.59.43.86C48.85,54.78,52.76,60.41,56.71,66a1.25,1.25,0,0,1,0,1.76c-.85,1.11-1.61,2.31-2.4,3.47l-.15.2-.61.82h0L44.18,85.39c-.34.47-.42.75.34.75,3.57,0,7.13,0,10.7,0a.84.84,0,0,0,.85-.42q2.18-4,4.37-7.94h0a43.48,43.48,0,0,0,3-5.4c.49.8.86,1.43,1.25,2.05l7,11.16a.48.48,0,0,0,.39.41,1.5,1.5,0,0,0,.88.13H92.35c.26,0,.54.07.77-.13h0s.12-.1.12-.15q0-4.12.05-8.25C93.3,77.19,93.08,77.09,92.71,77.14Z"/><path class="cls-5" d="M93.64,66.11a28.49,28.49,0,0,1-1.71-2.37A1.51,1.51,0,0,0,90.44,63c-3.53,0-7.53.08-11.06,0-1,0-1.16.37-1.85,1.1-2.41,2.56-2.16,2.16.2,5.14a1.33,1.33,0,0,0,1.21.52c2,0,4,.06,6,.06H89.8c2.42,0,1.72,0,3.69-2.49,0,0,.07-.12.11-.16C94,66.82,93.93,66.5,93.64,66.11Z"/><path class="cls-5" d="M164.37,69.62A6.6,6.6,0,0,0,160,66c.51-.28.88-.47,1.25-.69a5.52,5.52,0,0,0,1.28-8.64,8,8,0,0,0-4.66-2.21,43.61,43.61,0,0,0-10.77.07c-.8.07-.94.4-.94,1.12,0,7.14,0,14.27,0,21.41,0,2.45,0,2.52,2.39,2.69a30.38,30.38,0,0,0,10.91-.71C163.88,77.76,166.08,73.5,164.37,69.62ZM152.93,58.41a10.39,10.39,0,0,1,3.29.24,2.63,2.63,0,0,1,2.08,2.53,2.86,2.86,0,0,1-2,2.77,11.43,11.43,0,0,1-4.07.44c-.49,0-.43-.31-.43-.61V61.36a12.14,12.14,0,0,0,0-1.81C151.69,58.62,152.13,58.42,152.93,58.41Zm3.82,16.77a10.27,10.27,0,0,1-4.47.46c-.46,0-.43-.32-.43-.63,0-1,0-2,0-2.93s0-2,0-2.92c0-.43.05-.69.59-.67a15.19,15.19,0,0,1,3.8.33,3.32,3.32,0,0,1,.51,6.36Z"/><path class="cls-5" d="M122.69,78.94c-2.18-3.78-4.36-7.57-6.58-11.34a1.46,1.46,0,0,1,0-1.72c2.09-3.53,4.1-7.1,6.18-10.63.45-.76.34-.92-.53-.89-1.58,0-3.16,0-4.74,0a1,1,0,0,0-1.14.69c-1.13,2.51-2.33,5-3.32,7.56-.05.14-.09.31-.28.32s-.22-.18-.27-.32c-1-2.57-2.19-5-3.32-7.56a1,1,0,0,0-1.14-.69c-1.58,0-3.38-.11-5-.17-.86,0-1,.14-.53.9,2.08,3.53,4,7.11,6.08,10.64a1.47,1.47,0,0,1,0,1.73c-2.22,3.76-4.2,7.58-6.39,11.36a.86.86,0,0,0-.22.73c2,0,4.11.09,6.11.11.6,0,.68-.47.86-.83,1.23-2.43,2.22-5.26,3.44-7.69,0-.1.1-.2.15-.3l.15.3c1.22,2.43,2.64,5.26,3.87,7.69.18.36.25.84.86.83,2,0,4,0,6,0C123,79.3,122.8,79.13,122.69,78.94Z"/><path class="cls-5" d="M84.37,207.23a1.57,1.57,0,0,1,1.77-1.78H97.22a2.22,2.22,0,0,1,2.31,1.66,27.27,27.27,0,0,0,6,10.84q4.44,5.75,8.88,7.94,1.55.88.48,2.25l-2.85,3.79a1.61,1.61,0,0,1-2.48.35L107.82,231c-.87-.79-1.32-.59-1.36.59q-.48,13.5-1.13,17.47-.7,5.68-2.25,7.47a7.66,7.66,0,0,1-5.39,2.84,37.4,37.4,0,0,1-7.16.18,2.21,2.21,0,0,1-2.31-1.66L87,254.14c-.35-1.11.06-1.64,1.25-1.6q2.31.24,6,.24a3,3,0,0,0,2.37-.83q1.65-1.78,2.31-17.12a1.52,1.52,0,0,0-1.72-1.78H89.1a1.83,1.83,0,0,0-2,1.78,37.46,37.46,0,0,1-1.48,6.57,32.52,32.52,0,0,1-3.38,7.29,26.19,26.19,0,0,1-14,10.9,1.62,1.62,0,0,1-2.37-.89l-1.25-1.84-1.42-1.78c-.83-.86-.69-1.5.42-1.89q9.58-3,11.78-8.23a23,23,0,0,0,2.79-5.57,20.67,20.67,0,0,0,1.12-4.56c.2-1.19-.29-1.78-1.48-1.78H71.4c-1.19,0-1.78-.71-1.78-2.13,0-1.18-.42-1.36-1.25-.53a17.2,17.2,0,0,1-1.77,1.89,1.94,1.94,0,0,1-2.73,0l-3.31-3a1.23,1.23,0,0,1,.06-2.19A23.91,23.91,0,0,0,68,219a40.91,40.91,0,0,0,5.39-10.78A1.68,1.68,0,0,1,75.66,207l4,.95A1.39,1.39,0,0,1,80.75,210q-3.31,10-7.64,14.75c-.71,1-.47,1.42.71,1.42H101c1.18,0,1.4-.45.65-1.36q-5.56-6.1-7.17-11.14A2.4,2.4,0,0,0,92,212H86.14a1.57,1.57,0,0,1-1.77-1.78Z"/><path class="cls-5" d="M174.1,243.18a1.57,1.57,0,0,1,1.77,1.78v2.43a1.54,1.54,0,0,1-1.71,1.77H154.67a1.57,1.57,0,0,0-1.78,1.78v2.43a6.63,6.63,0,0,1-.89,3.85,5.24,5.24,0,0,1-3.19,1.95c-1.54.48-4.82.71-9.84.71a2.39,2.39,0,0,1-2.42-1.6l-1.13-2.54c-.43-1.07-.06-1.6,1.13-1.6,2.29.08,4.71.12,7.28.12A2.31,2.31,0,0,0,145,254a1,1,0,0,0,.35-.89v-2.13a1.57,1.57,0,0,0-1.78-1.78H124.35a1.57,1.57,0,0,1-1.78-1.77V245a1.57,1.57,0,0,1,1.78-1.78h19.24a1.57,1.57,0,0,0,1.78-1.78.75.75,0,0,1,.65-.83,12.42,12.42,0,0,0,5.1-2.13h-21a1.57,1.57,0,0,1-1.78-1.77v-2a1.57,1.57,0,0,1,1.78-1.78l35.48-.35,3.2,2.84c.86.75.79,1.38-.24,1.9a91.85,91.85,0,0,1-13.21,5.86ZM173.15,209a1.57,1.57,0,0,1,1.78,1.77v2.37a1.57,1.57,0,0,1-1.78,1.78h-48c-1.14,0-1.71-.59-1.71-1.78v-2.37a1.56,1.56,0,0,1,1.77-1.77h18.25c1.18,0,1.56-.62,1.12-1.84s0-1.82,1.13-2l3.79-.65a2,2,0,0,1,2.43,1.3l.65,1.48A2.31,2.31,0,0,0,155,209Zm-4.56,19.84a1.57,1.57,0,0,1-1.78,1.77H132a1.56,1.56,0,0,1-1.77-1.77v-9.42a1.57,1.57,0,0,1,1.77-1.78h34.77a1.57,1.57,0,0,1,1.78,1.78Zm-29.5-6.4a1.57,1.57,0,0,0-1.77,1.78,1.36,1.36,0,0,0,1.54,1.54h20.55a1.55,1.55,0,0,0,1.72-1.78,1.36,1.36,0,0,0-1.54-1.54Z"/><path class="cls-5" d="M199.86,242.83a1.53,1.53,0,0,1,.77-2.37l2.9-1.43a1.72,1.72,0,0,1,2.49.72,82,82,0,0,1,6.63,12.37,1.73,1.73,0,0,1-.88,2.43l-3.5,1.84a1.32,1.32,0,0,1-2.13-.83l-.71-1.84a1.81,1.81,0,0,0-2.43-1.06q-8.35,2.59-11.67,3.79a21.7,21.7,0,0,0-3.08,1.24c-1,.59-1.74.34-2.13-.77l-1.54-3.85a2.31,2.31,0,0,1,.77-2.78c.91-.16,1.36-1.17,1.36-3v-38a1.57,1.57,0,0,1,1.78-1.78h21.38a1.57,1.57,0,0,1,1.78,1.78V235a1.57,1.57,0,0,1-1.78,1.77H195.71a1.57,1.57,0,0,0-1.77,1.78v8.11c0,1.19.55,1.62,1.66,1.31l4.56-1.31c1.1-.31,1.38-1,.83-2Zm4.74-27.31a1.55,1.55,0,0,0-1.78-1.72h-7.11a1.55,1.55,0,0,0-1.77,1.72v1.54a1.57,1.57,0,0,0,1.77,1.78h7.11a1.57,1.57,0,0,0,1.78-1.78Zm-10.66,13.21a1.57,1.57,0,0,0,1.77,1.78h7.11a1.57,1.57,0,0,0,1.78-1.78v-1.84a1.57,1.57,0,0,0-1.78-1.77h-7.11a1.56,1.56,0,0,0-1.77,1.77Zm40.45-20.79a1.57,1.57,0,0,1,1.78,1.78V242a11.83,11.83,0,0,1-.54,4,4.22,4.22,0,0,1-2,2.25q-2,1.18-6.63,1.19a2,2,0,0,1-2.13-1.78,9.45,9.45,0,0,0-.72-3.31c-.59-1-.29-1.5.89-1.43s2.14,0,3,0,1.25-.39,1.25-1.06V216.17a1.57,1.57,0,0,0-1.78-1.77h-3.61a1.57,1.57,0,0,0-1.78,1.77v41.94a1.57,1.57,0,0,1-1.78,1.77h-3.55a1.57,1.57,0,0,1-1.78-1.77V209.72a1.55,1.55,0,0,1,1.72-1.78Z"/><path class="cls-5" d="M297.47,208.53a1.55,1.55,0,0,1,1.72,1.78v3.55a1.57,1.57,0,0,1-1.78,1.78h-3.26a1.54,1.54,0,0,0-1.77,1.72v33.58a10.92,10.92,0,0,1-.89,4.91,5.43,5.43,0,0,1-2.9,2.61q-3.27,1.31-11.61,1.3a2,2,0,0,1-2.19-1.71,12.45,12.45,0,0,0-1.66-4.15c-.56-1.07-.24-1.58.94-1.54q3.15.18,9,.12a2.18,2.18,0,0,0,1.42-.36,1.54,1.54,0,0,0,.47-1.3v-33.4a1.57,1.57,0,0,0-1.77-1.78H247.6a1.57,1.57,0,0,1-1.78-1.78v-3.55a1.57,1.57,0,0,1,1.78-1.78Zm-21.09,34.89a1.56,1.56,0,0,1-1.77,1.77H259.92a1.57,1.57,0,0,0-1.78,1.78v.95a1.57,1.57,0,0,1-1.77,1.78h-3.32a1.57,1.57,0,0,1-1.78-1.78V224a1.55,1.55,0,0,1,1.78-1.72h21.56a1.57,1.57,0,0,1,1.77,1.78Zm-7-12.68a1.57,1.57,0,0,0-1.78-1.77h-7.7a1.57,1.57,0,0,0-1.78,1.77v5.93a1.57,1.57,0,0,0,1.78,1.77h7.7a1.57,1.57,0,0,0,1.78-1.77Z"/><path class="cls-5" d="M315.12,228.55a1.52,1.52,0,0,1-1.72-1.72c0-1-.25-1.14-.89-.35L310.86,228c-.83.87-1.54.81-2.14-.18l-2.07-3.32a1.85,1.85,0,0,1,.41-2.6,28.17,28.17,0,0,0,6.28-7.23,39.11,39.11,0,0,0,5.1-8.94c.43-1.07,1.14-1.28,2.13-.65l2.31,1.42a1.89,1.89,0,0,1,.77,2.6,1.93,1.93,0,0,0,.47,2.37q7,6.58,7.52,7.64a2.46,2.46,0,0,1,.12,2.91l-1.6,2.72q-.89,1.49-2.13-.12c-.71-.91-1.06-.77-1.06.42v1.71a1.57,1.57,0,0,1-1.78,1.78Zm13,3.61,2.72,1.72a2,2,0,0,1,.89,2.61,37.69,37.69,0,0,1-7.4,13.09,1.86,1.86,0,0,0,.24,2.66l1.48,1.54a1.65,1.65,0,0,1-.18,2.55l-2.07,1.95a1.37,1.37,0,0,1-2.31-.17,47.44,47.44,0,0,0-9.78-10,1.24,1.24,0,0,1-.06-2.2l1.72-1.48a1.87,1.87,0,0,1,2.67,0l1.36,1.13a1.49,1.49,0,0,0,2.43-.3,39.72,39.72,0,0,0,3.61-5.51c.55-1,.24-1.54-1-1.54h-12a1.57,1.57,0,0,1-1.78-1.77v-2.25a1.57,1.57,0,0,1,1.78-1.78Zm-11.55-11c-.67.95-.41,1.42.77,1.42h7.23c1.18,0,1.38-.45.59-1.36q-1.37-1.67-3.79-4.15-1.25-1.31-2.19.24A36,36,0,0,1,316.6,221.15Zm22,28.13a2.1,2.1,0,0,1,2.79-.24l2.66,1.84q1.49,1,.18,2.13a25.33,25.33,0,0,1-4.56,3.44,28.67,28.67,0,0,1-5.15,2.9,2.44,2.44,0,0,1-2.85-.59l-2-2.08q-1.25-1.25.36-2a25.56,25.56,0,0,0,4.85-2.61A15.22,15.22,0,0,0,338.57,249.28Zm-4.85-30.74a1.57,1.57,0,0,1,1.77-1.78h4.92c1.18,0,1.9-.73,2.13-2.19.16-1.18-.35-1.77-1.54-1.77h-7.52A1.58,1.58,0,0,1,331.7,211v-2.37a1.58,1.58,0,0,1,1.78-1.78h25.77a1.57,1.57,0,0,1,1.77,1.78V211a1.57,1.57,0,0,1-1.77,1.78H352q-1.78,0-2.43,2.25c-.35,1.14.06,1.71,1.24,1.71h6.82a1.57,1.57,0,0,1,1.77,1.78v27.72a1.57,1.57,0,0,1-1.77,1.78H335.49a1.57,1.57,0,0,1-1.77-1.78Zm17.35,7.11c1.19,0,1.78-.65,1.78-2a1.57,1.57,0,0,0-1.78-1.77h-9.36q-1.77,0-1.77,2a1.57,1.57,0,0,0,1.77,1.78Zm0,8.65c1.19,0,1.78-.69,1.78-2.08a1.57,1.57,0,0,0-1.78-1.77h-9.36q-1.77,0-1.77,2.07a1.57,1.57,0,0,0,1.77,1.78Zm0,8.58c1.19,0,1.78-.67,1.78-2a1.57,1.57,0,0,0-1.78-1.78h-9.36c-1.18,0-1.77.68-1.77,2a1.56,1.56,0,0,0,1.77,1.77Zm-1.89,10.19q-1.49-1-.06-2l2.25-1.54a2.26,2.26,0,0,1,2.84,0,49.81,49.81,0,0,1,6.87,5.39q1.31,1.18-.12,2.19l-2.6,1.89a1.86,1.86,0,0,1-2.67-.23A31.64,31.64,0,0,0,349.18,253.07Z"/><path class="cls-5" d="M367.6,248.16c-.2-1.15.29-1.78,1.48-1.9L371,246a1.76,1.76,0,0,0,1.78-2v-27.9q0-1.77-2.25-1.77a1.55,1.55,0,0,1-1.78-1.72v-3a1.57,1.57,0,0,1,1.78-1.78h26.18a1.57,1.57,0,0,1,1.77,1.78v.65a1.58,1.58,0,0,0,1.78,1.78l17.12-.18,2.9.71a1.8,1.8,0,0,1,1.54,2.13q-1.83,19.08-7.58,27.78a2.52,2.52,0,0,0,.29,2.9q4.56,6.28,8.06,7.46c1.07.52,1.22,1.23.47,2.14l-2.6,3.08a1.79,1.79,0,0,1-2.61.41q-5.81-3.49-7.64-6.69-1.06-1.43-2.25-.12-4.44,5.39-7.82,6.93a1.69,1.69,0,0,1-2.49-.65,10.72,10.72,0,0,0-1.65-2.43c-.87-.83-1.31-.65-1.31.53v2a1.56,1.56,0,0,1-1.77,1.77h-3.26a1.57,1.57,0,0,1-1.78-1.77v-5.93c0-1.18-.57-1.68-1.72-1.48q-7.33,1.31-15.75,2.55a1.59,1.59,0,0,1-2-1.48Zm20.25-32a1.56,1.56,0,0,0-1.77-1.77h-4.86a1.57,1.57,0,0,0-1.78,1.77v2.08a1.57,1.57,0,0,0,1.78,1.77h4.86a1.56,1.56,0,0,0,1.77-1.77Zm-6.63,10.19a1.57,1.57,0,0,0-1.78,1.78v2.37a1.57,1.57,0,0,0,1.78,1.77h4.86a1.56,1.56,0,0,0,1.77-1.77v-2.37a1.57,1.57,0,0,0-1.77-1.78Zm-1.78,16.88c0,1.18.57,1.72,1.72,1.6l5-.71a1.81,1.81,0,0,0,1.72-2v-1.77a1.57,1.57,0,0,0-1.77-1.78h-4.86a1.57,1.57,0,0,0-1.78,1.78Zm16.82-28c-1.06-.55-1.6-.23-1.6.95v35.42c0,1.19.5,1.48,1.48.89q5.81-3.25,7.7-7.17a2.63,2.63,0,0,0,.3-3,62.87,62.87,0,0,1-6.93-20.14,1.54,1.54,0,0,1,1.42-2l3.32-.71a1.55,1.55,0,0,1,2.07,1.36q1.89,10.07,4.32,14.22c.52,1.06,1,1.06,1.43,0a46,46,0,0,0,4.2-14.28c.16-1.18-.35-1.77-1.54-1.77H398.51a1.57,1.57,0,0,1-1.77-1.78v-1.07Z"/><path class="cls-6" d="M335.83,333.23a1.3,1.3,0,0,1-1.47,1.47H321.13c-1,0-1,.16-.1.49q12.06,4.21,15,6.07a1.22,1.22,0,0,1,.64,1.91l-1.37,2.46a1.31,1.31,0,0,1-2,.63,103.31,103.31,0,0,0-16.95-7.4c-.92-.32-1.13-.89-.64-1.71l.69-1.42c-.66-.69-1.18-.61-1.57.24a10.51,10.51,0,0,1-6,6.37q-4.65,2.85-12.69,4.17a1.56,1.56,0,0,1-1.91-1.13L293.6,344l-.83-1.32c-.59-.79-.41-1.25.53-1.38a38.55,38.55,0,0,0,9.61-2.4q3.91-1.67,4.8-3.08c.62-.75.45-1.13-.49-1.13H295.51a1.3,1.3,0,0,1-1.47-1.47v-2a1.3,1.3,0,0,1,1.47-1.47h13.57a1.49,1.49,0,0,0,1.66-1.42c.14-.75-.18-1.13-.93-1.13H294.38c-1,0-1.47-.47-1.47-1.42v-2.15a1.3,1.3,0,0,1,1.47-1.47h15.87a1.3,1.3,0,0,0,1.47-1.47,1,1,0,0,0-1.12-1.13H298.69a1.3,1.3,0,0,1-1.47-1.47v-2a1.3,1.3,0,0,1,1.47-1.47h11.56a1.3,1.3,0,0,0,1.47-1.47.91.91,0,0,0-1-1H295.9a1.3,1.3,0,0,1-1.47-1.47v-2.2A1.3,1.3,0,0,1,295.9,307h6.37c1,0,1.22-.42.73-1.27a10.14,10.14,0,0,0-1.07-1.92c-.62-.75-.49-1.3.39-1.66l2.5-1a1.6,1.6,0,0,1,2.15.69l2.11,3.28v.54c-.43.88-.16,1.32.78,1.32h7.89a2.51,2.51,0,0,0,2.25-1.23,24.5,24.5,0,0,0,2.11-3.82,1.58,1.58,0,0,1,2-1l3.43.93c.95.23,1.16.76.64,1.57a28.31,28.31,0,0,1-1.62,2.35c-.59.79-.39,1.18.59,1.18h6.46a1.3,1.3,0,0,1,1.47,1.47v2.2a1.3,1.3,0,0,1-1.47,1.47h-14.4a1.3,1.3,0,0,0-1.47,1.47.91.91,0,0,0,1,1h12.49a1.3,1.3,0,0,1,1.47,1.47v2a1.3,1.3,0,0,1-1.47,1.47h-12a1.3,1.3,0,0,0-1.47,1.47,1,1,0,0,0,1.13,1.13h16.9c1,0,1.47.47,1.47,1.42v2.15a1.28,1.28,0,0,1-1.42,1.47H318.58a1.49,1.49,0,0,0-1.66,1.43c-.13.75.18,1.12.93,1.12h16.51a1.3,1.3,0,0,1,1.47,1.47Z"/><path class="cls-6" d="M372.82,319.12a1.26,1.26,0,0,1-1.42,1.42h-7A1.3,1.3,0,0,0,363,322v2.21a1.28,1.28,0,0,0,1.47,1.42h12.69c1,0,1.47.47,1.47,1.42v2.35a1.3,1.3,0,0,1-1.47,1.47l-4.9.49,2.15.78c.92.33,1.11.9.59,1.72q-2.3,3.67-3.53,5.34c-.55.81-.34,1.22.64,1.22h7.6a1.3,1.3,0,0,1,1.47,1.47v2.4a1.28,1.28,0,0,1-1.43,1.47H340.24a1.3,1.3,0,0,1-1.47-1.47v-2.4a1.3,1.3,0,0,1,1.47-1.47H347c1,0,1.29-.46.93-1.37a17,17,0,0,0-2.69-5.34c-.56-.82-.4-1.4.49-1.76l1.22-.54q1.32-.54-.15-.54h-4.16c-1,0-1.47-.47-1.47-1.42v-2.35a1.3,1.3,0,0,1,1.47-1.47h12.64a1.28,1.28,0,0,0,1.47-1.42V322a1.3,1.3,0,0,0-1.47-1.47h-7a1.3,1.3,0,0,1-1.47-1.47c0-.62-.27-.8-.83-.54a36.44,36.44,0,0,1-4.11,1.77,1.76,1.76,0,0,1-2.21-.69l-2.2-3c-.56-.78-.38-1.32.53-1.61a38.55,38.55,0,0,0,12-5.44q6-3.78,8.52-7.84a1.61,1.61,0,0,1,2.16-.59l2.89,1.32c.88.4,1,1,.44,1.82a.85.85,0,0,0,.15,1.27,34.53,34.53,0,0,0,8.42,5.54,54.3,54.3,0,0,0,9.66,4c.91.27,1.07.77.48,1.52l-2.25,2.85a1.83,1.83,0,0,1-2.25.63,38.59,38.59,0,0,1-4-1.71C373.26,317.86,372.82,318.14,372.82,319.12ZM356.7,332.35a1.28,1.28,0,0,0-1.42-1.47h-4.51c-1,0-1.19.39-.64,1.17a19,19,0,0,1,2.94,5.25,1.4,1.4,0,0,1-.83,2l-1.37.58c-.88.4-.83.59.15.59h4.21A1.3,1.3,0,0,0,356.7,339Zm-3.38-17.88c-.82.49-.74.73.24.73H367q1.47,0,.24-.78a38.57,38.57,0,0,1-6.17-4.61,1.36,1.36,0,0,0-2.11.05A24.57,24.57,0,0,1,353.32,314.47Zm16.36,17.78c.3-.91-.05-1.37-1-1.37h-4.21a1.3,1.3,0,0,0-1.47,1.47V339a1.3,1.3,0,0,0,1.47,1.47h3.18q1.47,0,.15-.54l-.64-.29q-1.32-.54-.54-1.77A20.39,20.39,0,0,0,369.68,332.25Z"/><path class="cls-6" d="M426.46,308.05a1.3,1.3,0,0,1-1.47,1.47H396.14a1.3,1.3,0,0,0-1.47,1.47v1a1.76,1.76,0,0,0,.63,1.56,5.47,5.47,0,0,0,2.7.45h16.51q6.32,0,7.35-.35a1.31,1.31,0,0,1,1.66,1.28l.3,2.2a1.22,1.22,0,0,1-1.28,1.57,39.24,39.24,0,0,1-7.44.29H398.39c-3.63,0-6.14-.5-7.54-1.52s-2.06-2.87-2.06-5.58V311a1.3,1.3,0,0,0-1.47-1.47h-2.55a1.3,1.3,0,0,1-1.47-1.47v-2a1.3,1.3,0,0,1,1.47-1.47H400.3c1,0,1.26-.44.83-1.32s-.11-1.34.74-1.57l3.48-1a1.58,1.58,0,0,1,2,.93l.79,1.57a2.08,2.08,0,0,0,2.06,1.37H425a1.3,1.3,0,0,1,1.47,1.47Zm-35.17,38.46a1.3,1.3,0,0,1-1.47-1.47V323a1.3,1.3,0,0,1,1.47-1.47h28a1.3,1.3,0,0,1,1.47,1.47v21.75a1.3,1.3,0,0,1-1.47,1.47l-3.48-.15a3.11,3.11,0,0,0-2.45-1.12H396.87l-.64.29a2.51,2.51,0,0,1-2.25,1.23Zm23.56-19.75a.91.91,0,0,0-1-1H396.48a.91.91,0,0,0-1,1,1.3,1.3,0,0,0,1.47,1.47h16.51C414.38,328.23,414.85,327.74,414.85,326.76Zm-19.4,6.71a.83.83,0,0,0,.93.94h17.54a.83.83,0,0,0,.93-.94,1.3,1.3,0,0,0-1.47-1.47H396.87A1.28,1.28,0,0,0,395.45,333.47Zm0,6.23a1,1,0,0,0,1.13,1.12h17.14a1,1,0,0,0,1.13-1.12,1.3,1.3,0,0,0-1.47-1.47H396.87C395.92,338.23,395.45,338.72,395.45,339.7Z"/><path class="cls-6" d="M448.56,301.43a1.71,1.71,0,0,1,2.25-.34l2.3,1.23a3.14,3.14,0,0,1,1.52,2.59,40.66,40.66,0,0,0,8,4.17,71,71,0,0,0,9.45,3.52c.95.27,1.13.77.54,1.52l-2.3,2.8a1.84,1.84,0,0,1-2.26.63,35.05,35.05,0,0,1-7.34-3.28,4.18,4.18,0,0,1-2.65.93L441.5,315a1.53,1.53,0,0,0-2.15-.49A40.13,40.13,0,0,1,431.8,318a1.83,1.83,0,0,1-2.25-.63l-1.86-2.4c-.59-.75-.43-1.28.49-1.57A49.18,49.18,0,0,0,440,308C444.07,305.57,446.92,303.39,448.56,301.43Zm17.68,28.27a1.3,1.3,0,0,1,1.47,1.47v8a1.3,1.3,0,0,0,1.47,1.47h1.47a1.3,1.3,0,0,1,1.47,1.47v2.4c0,1-.47,1.47-1.42,1.47H429.4a1.3,1.3,0,0,1-1.47-1.47v-2.4a1.3,1.3,0,0,1,1.47-1.47h1.67a1.3,1.3,0,0,0,1.47-1.47v-8A1.3,1.3,0,0,1,434,329.7Zm-30.57-11.07a1.3,1.3,0,0,1,1.47-1.47h26a1.3,1.3,0,0,1,1.47,1.47V326a1.3,1.3,0,0,1-1.47,1.47h-26a1.3,1.3,0,0,1-1.47-1.47Zm3.77,15.58a1.29,1.29,0,0,0-1.46,1.47v3.48a1.29,1.29,0,0,0,1.46,1.47h1.47a1.3,1.3,0,0,0,1.47-1.47v-3.48a1.3,1.3,0,0,0-1.47-1.47Zm18.23-10.48a1.3,1.3,0,0,0,1.47-1.47,1.13,1.13,0,0,0-1.27-1.28H442.29a1.3,1.3,0,0,0-1.47,1.47,1.13,1.13,0,0,0,1.27,1.28Zm-11.42-13.38c-.81.56-.75.83.2.83H454c1,0,1-.24.2-.73-1.08-.69-2.09-1.41-3-2.16a1.69,1.69,0,0,0-2.3,0A23.78,23.78,0,0,1,446.25,310.35Zm5.93,25.33a1.3,1.3,0,0,0-1.47-1.47h-1.52a1.3,1.3,0,0,0-1.47,1.47v3.48a1.3,1.3,0,0,0,1.47,1.47h1.52a1.3,1.3,0,0,0,1.47-1.47Zm9.85,0a1.3,1.3,0,0,0-1.47-1.47H459a1.3,1.3,0,0,0-1.47,1.47v3.48a1.3,1.3,0,0,0,1.47,1.47h1.57a1.3,1.3,0,0,0,1.47-1.47Z"/><path class="cls-6" d="M57.55,345.92a2.08,2.08,0,0,1-2.35-2.35v-4.3Q67.8,328,74,319.87t6.26-14.48A9.71,9.71,0,0,0,78,298.51,8.21,8.21,0,0,0,71.56,296a11.59,11.59,0,0,0-9,4.39,2.09,2.09,0,0,1-3.29-.08l-3-3a2,2,0,0,1,0-3.28,22.4,22.4,0,0,1,6.81-5A21.89,21.89,0,0,1,73,286.93q8.22,0,13.22,4.93t5,12.91q0,13.22-17.68,30.35c-1,1.15-.78,1.64.78,1.49a63.29,63.29,0,0,1,7.12-.4H91.66A2.08,2.08,0,0,1,94,338.56v5a2.08,2.08,0,0,1-2.35,2.35Z"/><path class="cls-6" d="M136.88,339.19Q131.63,347,122.56,347t-14.35-7.82q-5.28-7.83-5.28-22.45t5.24-22.22a17.37,17.37,0,0,1,28.71,0q5.24,7.59,5.24,22.22T136.88,339.19ZM113.8,316.93q0,21.09,8.72,21.08t8.72-21.08q0-21.07-8.72-21.08T113.8,316.93Z"/><path class="cls-6" d="M184.52,339.19Q179.27,347,170.2,347t-14.35-7.82q-5.28-7.83-5.28-22.45t5.24-22.22a17.37,17.37,0,0,1,28.71,0q5.23,7.59,5.24,22.22T184.52,339.19Zm-23.08-22.26q0,21.09,8.72,21.08t8.73-21.08q0-21.07-8.73-21.08T161.44,316.93Z"/><path class="cls-6" d="M232.16,339.19Q226.93,347,217.85,347t-14.36-7.82q-5.28-7.83-5.28-22.45t5.24-22.22a17.37,17.37,0,0,1,28.71,0q5.25,7.59,5.24,22.22T232.16,339.19Zm-23.08-22.26q0,21.09,8.73,21.08t8.72-21.08q0-21.07-8.72-21.08T209.08,316.93Z"/><path class="cls-6" d="M279.8,339.19Q274.57,347,265.49,347t-14.36-7.82q-5.28-7.83-5.28-22.45t5.24-22.22a17.37,17.37,0,0,1,28.71,0q5.25,7.59,5.25,22.22T279.8,339.19Zm-23.07-22.26q0,21.09,8.72,21.08t8.72-21.08q0-21.07-8.72-21.08T256.73,316.93Z"/><path class="cls-4" d="M67.1,173.59a1.62,1.62,0,0,1-1.84,1.84H58.44c-1.23,0-1.85.59-1.85,1.78v.93A1.63,1.63,0,0,1,54.75,180H52.17a1.63,1.63,0,0,1-1.85-1.84V162.89q0-1.84-1.29-.06c-.78.94-1.27.8-1.47-.43a6.93,6.93,0,0,0-.74-2.58c-.53-1.89-.82-2.75-.86-2.58A3.32,3.32,0,0,1,46.2,154a36.06,36.06,0,0,0,6.89-17.4c.2-1.19-.29-1.78-1.48-1.78h-3A1.62,1.62,0,0,1,46.82,133v-3a1.63,1.63,0,0,1,1.84-1.84H66.37A1.63,1.63,0,0,1,68.21,130v3a1.62,1.62,0,0,1-1.84,1.84h-4a2,2,0,0,0-2.21,1.78,56.07,56.07,0,0,1-2.46,8.92c-.41,1.14,0,1.72,1.23,1.72h6.33a1.62,1.62,0,0,1,1.84,1.84ZM59,169a1.63,1.63,0,0,0,1.84-1.85v-11.8c0-1.19-.79-1.78-2.39-1.78a1.63,1.63,0,0,0-1.85,1.84v11.81C56.59,168.44,57.39,169,59,169Zm38-20.1,2.46.86a1.83,1.83,0,0,1,1.29,2.4q-2.52,12.11-7.44,17a1.63,1.63,0,0,0,.49,2.52q5.16,4.19,7.81,4.73c1.19.33,1.41,1,.67,1.91l-2.39,3a2.11,2.11,0,0,1-2.77.68q-5.89-2.58-8-5a1.8,1.8,0,0,0-2.7-.13q-4.68,4.31-7.63,5.29a2.12,2.12,0,0,1-2.76-.8l-1.79-2.58c-.69-1-.49-1.72.62-2.21,3.77-1.52,6.17-3,7.19-4.37a1.94,1.94,0,0,0,.25-2.76,30,30,0,0,1-4.92-8.06c-.45-1.14-.74-1.12-.86.07q-1.17,15.3-5.23,19.85a1.54,1.54,0,0,1-2.45.55l-2.4-1.59a1.72,1.72,0,0,1-.62-2.59L67,175.43q3.75-8.85,3.75-24.53V136.21a1.63,1.63,0,0,1,1.84-1.84h8.36a1.63,1.63,0,0,0,1.85-1.84V127.3a1.62,1.62,0,0,1,1.84-1.84h2.77a1.62,1.62,0,0,1,1.84,1.84v5.23a1.67,1.67,0,0,0,1.79,1.9l9.52.62c1.23,0,1.74.65,1.54,1.84a55.24,55.24,0,0,1-2.4,9.65,1.8,1.8,0,0,1-2.33,1.35l-2-.49A1.66,1.66,0,0,1,94,145.13a10.44,10.44,0,0,0,.67-2.52c.21-1.23-.31-1.85-1.53-1.85h-2a1.64,1.64,0,0,0-1.85,1.85v4.79c0,1.19.62,1.78,1.85,1.78Zm-14.2-6.4a1.61,1.61,0,0,0-1.85-1.78H78.84A1.61,1.61,0,0,0,77,142.54v4.8a1.63,1.63,0,0,0,1.84,1.84h2.09a1.63,1.63,0,0,0,1.85-1.84Zm10,14.63c.32-1.14-.13-1.72-1.36-1.72h-8c-1.23,0-1.62.56-1.17,1.66a26.89,26.89,0,0,0,4.43,7.38c.74,1,1.45,1,2.15,0C91.16,161.33,92.49,158.9,92.74,157.17Z"/><path class="cls-4" d="M165.27,153.67c0,1.23-.59,1.84-1.78,1.84H145.66c-1.23,0-1.56.54-1,1.6q6.88,15.55,21.57,17.89c1.15.41,1.29,1.05.43,1.91l-1.47,1.84c-.94,1.35-1.42,2.05-1.42,2.09a1.8,1.8,0,0,1-2.52.92q-16.1-5.1-21.63-18.62c-.58-1.07-1.15-1.07-1.72,0Q132,177.39,116.28,182a2.24,2.24,0,0,1-2.77-.8l-2.58-3.44c-.74-1-.55-1.72.55-2.22q18.13-6.45,20.47-18.31c.41-1.15,0-1.73-1.23-1.73h-16.9a1.62,1.62,0,0,1-1.84-1.84v-3.81a1.62,1.62,0,0,1,1.84-1.84h18.44a1.7,1.7,0,0,0,1.91-1.85,20.35,20.35,0,0,0,.12-2.89v-4.36a1.63,1.63,0,0,0-1.84-1.85H116a1.62,1.62,0,0,1-1.84-1.84v-3.81a1.63,1.63,0,0,1,1.84-1.85h45a1.63,1.63,0,0,1,1.84,1.85v3.81a1.62,1.62,0,0,1-1.84,1.84H143.82a1.61,1.61,0,0,0-1.85,1.79v4.55q0,1.41-.06,2.76a1.57,1.57,0,0,0,1.78,1.85h19.74a1.62,1.62,0,0,1,1.84,1.84Z"/><path class="cls-4" d="M184.32,165.53V163a1.6,1.6,0,0,1,1.79-1.84h3.62a1.63,1.63,0,0,1,1.85,1.84v2.83q0,12.16-11.31,16.41a2.26,2.26,0,0,1-2.89-.37l-2.52-2.46c-.86-.82-.74-1.49.37-2Q186,173.4,184.32,165.53Zm5.54-26.12c-1.19,0-1.79-.8-1.79-2.4a1.62,1.62,0,0,0-1.84-1.84h-9a1.63,1.63,0,0,1-1.84-1.85v-2.58a1.62,1.62,0,0,1,1.84-1.84h9a1.63,1.63,0,0,0,1.84-1.85,1.41,1.41,0,0,1,1.6-1.59h3.75a1.63,1.63,0,0,1,1.85,1.84,1.41,1.41,0,0,0,1.59,1.6h3.08a1.62,1.62,0,0,1,1.84,1.84v2.58a1.63,1.63,0,0,1-1.84,1.85h-2.83c-1.23,0-1.84.8-1.84,2.4a1.61,1.61,0,0,1-1.79,1.84Zm4.24,13.77h19.05q8,0,9.53-.43a1.59,1.59,0,0,1,2,1.6l.37,2.33a1.59,1.59,0,0,1-1.6,2,45.4,45.4,0,0,1-9.28.37h-20c-4.34,0-7.36-.61-9-1.84s-2.45-3.45-2.45-6.52V150a1.63,1.63,0,0,0-1.85-1.84h-3.26a1.63,1.63,0,0,1-1.84-1.84V143.9a1.63,1.63,0,0,1,1.84-1.85h20.23c1.18,0,1.43-.75.73-2.27-.49-1.15-.14-1.87,1-2.15l3.26-.8a2.05,2.05,0,0,1,2.58,1.17,13,13,0,0,1,1.29,2.39,2.45,2.45,0,0,0,2.46,1.66h18.38a1.63,1.63,0,0,1,1.84,1.85v2.46a1.63,1.63,0,0,1-1.84,1.84H192A1.63,1.63,0,0,0,190.1,150v.74a2.15,2.15,0,0,0,.74,1.91A7.06,7.06,0,0,0,194.1,153.18Zm6.33,28.64a1.62,1.62,0,0,1-1.84-1.84V163.32a1.62,1.62,0,0,1,1.84-1.84h3.32a1.62,1.62,0,0,1,1.84,1.84V180a1.62,1.62,0,0,1-1.84,1.84Zm11.06-42.23a1.62,1.62,0,0,1-1.84-1.84V137a1.62,1.62,0,0,0-1.84-1.84h-2.34a1.63,1.63,0,0,1-1.84-1.85v-2.58a1.62,1.62,0,0,1,1.84-1.84h2.34a1.63,1.63,0,0,0,1.84-1.85,1.41,1.41,0,0,1,1.6-1.59h3.87A1.62,1.62,0,0,1,217,127.3a1.42,1.42,0,0,0,1.6,1.6H228a1.62,1.62,0,0,1,1.84,1.84v2.58a1.63,1.63,0,0,1-1.84,1.85h-9.22A1.63,1.63,0,0,0,217,137v.74a1.62,1.62,0,0,1-1.84,1.84ZM221,176.17h5.29l2.46-.06c1.22-.25,1.88.24,2,1.47l.25,2.21a1.78,1.78,0,0,1-1.66,2.16,5.58,5.58,0,0,1-2.83.12h-6.08q-4.62,0-6.21-1.91t-1.6-6.64V163a1.62,1.62,0,0,1,1.84-1.84h3.32c1.23,0,1.85.59,1.85,1.78v10.82a5.56,5.56,0,0,0,.24,2A1.3,1.3,0,0,0,221,176.17Z"/><path class="cls-4" d="M270.07,154.1c.62.9,1.29,1,2,.19a17.35,17.35,0,0,0,6.21-11.93,1.71,1.71,0,0,1,2.21-1.41l3.57.67c1.19.21,1.62.88,1.29,2a18.12,18.12,0,0,1-.92,3.14,2.28,2.28,0,0,0,.8,2.82q6.45,5,7.19,5.78a1.46,1.46,0,0,1,.12,2.46l-2.52,2.52a1.61,1.61,0,0,1-2.58,0,43,43,0,0,0-5.23-4.73,1.5,1.5,0,0,0-2.45.37,7,7,0,0,1-1.85,2.46,1.9,1.9,0,0,1-2.76.3l-1.6-1.23c-1.11-.57-1.29-.39-.56.56a34.76,34.76,0,0,0,9.22,8.66,46.89,46.89,0,0,0,11.44,6.4c1.14.45,1.35,1.14.61,2.09l-3.13,3.87a2,2,0,0,1-2.77.55q-11.19-5.16-17.15-13.28c-.78-.94-1.17-.79-1.17.43V181a1.63,1.63,0,0,1-1.84,1.85h-4a1.63,1.63,0,0,1-1.84-1.85V167.19c0-1.23-.41-1.41-1.23-.55q-8.61,10-16.84,13.15a2.19,2.19,0,0,1-2.83-.67l-2.83-3.44c-.78-1-.61-1.66.5-2.16A39.23,39.23,0,0,0,251.69,166a48.46,48.46,0,0,0,10.7-11.56V142.05c0-1.19-.61-1.78-1.84-1.78H241.86c-1.23,0-1.84-.59-1.84-1.78v-3.63c0-1.19.61-1.78,1.84-1.78h18.69a1.63,1.63,0,0,0,1.84-1.85v-3.87a1.62,1.62,0,0,1,1.84-1.84h4a1.62,1.62,0,0,1,1.84,1.84v3.87a1.64,1.64,0,0,0,1.85,1.85H291.4c1.23,0,1.85.59,1.85,1.78v3.63c0,1.19-.62,1.78-1.85,1.78H271.92a1.63,1.63,0,0,0-1.85,1.84ZM249.6,142.42a1.67,1.67,0,0,1,2.16-1.47l3.56.73q1.79.31,1.35,2.16a19,19,0,0,1-1.16,3.07,2.39,2.39,0,0,0,.8,2.89c1.72,1.51,2.8,2.52,3.25,3a1.58,1.58,0,0,1,.06,2.52l-2.45,2.52a1.48,1.48,0,0,1-2.46-.06l-1.54-1.66c-.9-.86-1.68-.78-2.34.25a20,20,0,0,1-4.73,5.71,1.93,1.93,0,0,1-2.77,0l-2.82-2.46c-.95-.78-1-1.55-.06-2.33Q248.57,151.45,249.6,142.42Z"/><path class="cls-4" d="M352.93,167.26c-1.23,0-1.37.39-.43,1.16l.8.68c.9.78.82,1.47-.24,2.09-1.4.78-2.83,1.52-4.31,2.21q-1.71.67,0,1.23a28.13,28.13,0,0,0,8.92,2.09c1.23,0,1.51.58.86,1.6l-1.85,2.7a2.44,2.44,0,0,1-2.76,1.11q-17.64-2.82-22.25-12.17a1.9,1.9,0,0,0-2.65-.68,23.62,23.62,0,0,1-5.1,2.4c-1.19.37-1.78,1.33-1.78,2.89,0,1.23.59,1.78,1.78,1.66l9.22-1c1.19-.13,1.74.43,1.66,1.66l-.12,1.47a1.62,1.62,0,0,1-1.6,2q-15.56,2-15.43,2.52c-1.23.25-2.17-.55-2.83-2.4a2,2,0,0,1,.37-2.82l.68-2.28c0-.86-.41-1.21-1.23-1a63.92,63.92,0,0,1-7.75,1.66,3,3,0,0,1-2.89-1.3L302.78,173c-.66-1-.39-1.53.79-1.66q12.24-1.29,16.91-4.05H304.56a1.64,1.64,0,0,1-1.85-1.85V164a1.61,1.61,0,0,1,1.85-1.79H326c1.23,0,1.58-.57,1-1.72-.2-.61,0-1,.56-1l3.93-.62a2.5,2.5,0,0,1,2.71,1.66,2.6,2.6,0,0,0,2.58,1.72h19.48a1.64,1.64,0,0,1,1.85,1.85v1.41a1.61,1.61,0,0,1-1.85,1.79Zm-23.85-31.6c1.23,0,1.85.8,1.85,2.4a1.63,1.63,0,0,1-1.85,1.84H304.56c-1.23,0-1.85-.8-1.85-2.4a1.63,1.63,0,0,1,1.85-1.84H307c1.23,0,1.66-.59,1.29-1.78-.21-.58,0-.9.55-1l1-.49H306c-1.23,0-1.84-.76-1.84-2.27a1.63,1.63,0,0,1,1.84-1.85h5.41l.55-.49a2.2,2.2,0,0,1,2-2.09l3.2-.43a2.35,2.35,0,0,1,2.64,1.35,2.41,2.41,0,0,0,2.4,1.66h6.09c1.22,0,1.84.76,1.84,2.28a1.63,1.63,0,0,1-1.84,1.84l-3.26.31c1.1.21,1.37.8.8,1.78-.37.78-.13,1.17.73,1.17Zm-2,5.84a1.62,1.62,0,0,1,1.84,1.84v11.81a5.24,5.24,0,0,1-.49,2.64,3.79,3.79,0,0,1-2,1.35,21.85,21.85,0,0,1-5.28.86,3.51,3.51,0,0,1-2.71-2.4q-.79-1.65,1.05-1.53h1.84c.7-.08,1.05-.37,1.05-.86,0-1.15-.54-1.54-1.6-1.17q-2,.74-6.27,2.15-1.72.56-2.46-1.35c-.41-1.15-.74-1.13-1,.06a6.51,6.51,0,0,1-2,4.43,1.44,1.44,0,0,1-2.46.18l-.92-.61-1-.74a1.39,1.39,0,0,1-.43-2.34q3-3,1.91-7.74v-4.8c0-1.19.61-1.78,1.84-1.78Zm-13.4,3.32c-1.23,0-1.85.59-1.85,1.78v1.6l-.12,2.34c-.08,1.23.47,1.74,1.66,1.53q3.69-.67,7.25-1.53a2,2,0,0,0,1.79-2.22v-1.66a1.63,1.63,0,0,0-1.85-1.84Zm.37,3.81c-1.19-.29-1.48-1-.86-2a2.13,2.13,0,0,1,2.52-1.17l4.42,1c1.19.24,1.5,1,.92,2.15a2,2,0,0,1-2.58,1.23Zm6.27-14.69c.4-1,.08-1.54-1-1.54h-4.49c-1.06,0-1.41.52-1,1.54a2.29,2.29,0,0,0,2.4,1.72h1.66A2.39,2.39,0,0,0,320.36,133.94Zm31.34,25.69H341.5q-5,0-6.88-1.1t-1.85-4.61V140.33a1.63,1.63,0,0,1,1.85-1.84l13.52-.25c.74-1,.49-1.47-.74-1.47H334.62a1.64,1.64,0,0,1-1.85-1.85v-7.68a1.63,1.63,0,0,1,1.85-1.84h2.82a1.63,1.63,0,0,1,1.85,1.84.82.82,0,0,0,.92.92H355a1.63,1.63,0,0,1,1.85,1.84,1.47,1.47,0,0,1-1.66,1.66H341.07l-.74.31c-.69,1-.43,1.48.8,1.48h12.6a1.6,1.6,0,0,1,1.79,1.84V140a1.64,1.64,0,0,1-1.85,1.85l-13.15.18c-.82.94-.64,1.42.55,1.42h10.82a1.57,1.57,0,0,1,1.78,1.78c0,.61-.29.92-.86.92l-12.29.06c-.82.9-.62,1.35.61,1.35h10.64a1.63,1.63,0,0,1,1.84,1.85.66.66,0,0,1-.74.74l-12.35.12c-.82.9-.62,1.35.61,1.35l12.79.25a12.62,12.62,0,0,0,2.95,1.35,2,2,0,0,1,1.78,2.21,4.72,4.72,0,0,1-1.78,3Q355.39,159.63,351.7,159.63Zm-4.24,8.61c1-.66,1-1-.24-1h-8.73c-1.23,0-1.48.49-.74,1.47a8.43,8.43,0,0,0,2.21,1.6,3,3,0,0,0,3.14.31A32.86,32.86,0,0,0,347.46,168.24Zm-5.22-12.17H351l1.16-.37c.87-.9.68-1.35-.55-1.35H340.82c-1,0-1.31.47-.86,1.41A5.62,5.62,0,0,0,342.24,156.07Z"/><path class="cls-4" d="M374.94,178.38a5.32,5.32,0,0,1-4-1.66,6,6,0,0,1-1.59-4.24,5.81,5.81,0,0,1,1.59-4.18,5.51,5.51,0,0,1,8,0,5.69,5.69,0,0,1,1.65,4.18,5.9,5.9,0,0,1-1.65,4.24A5.32,5.32,0,0,1,374.94,178.38ZM373.83,162a1.68,1.68,0,0,1-1.9-1.84l-1.48-27.54a1.58,1.58,0,0,1,1.78-1.85h5.41a1.58,1.58,0,0,1,1.79,1.85L378,160.19a1.68,1.68,0,0,1-1.9,1.84Z"/><path class="cls-4" d="M400.14,178.38a5.28,5.28,0,0,1-4-1.66,6,6,0,0,1-1.6-4.24,5.77,5.77,0,0,1,1.6-4.18,5.5,5.5,0,0,1,8,0,5.7,5.7,0,0,1,1.66,4.18,5.9,5.9,0,0,1-1.66,4.24A5.32,5.32,0,0,1,400.14,178.38ZM399,162a1.69,1.69,0,0,1-1.91-1.84l-1.48-27.54a1.58,1.58,0,0,1,1.79-1.85h5.41a1.57,1.57,0,0,1,1.78,1.85l-1.48,27.54a1.68,1.68,0,0,1-1.9,1.84Z"/><path class="cls-4" d="M425.34,178.38a5.3,5.3,0,0,1-4-1.66,6,6,0,0,1-1.6-4.24,5.77,5.77,0,0,1,1.6-4.18,5.5,5.5,0,0,1,8,0,5.66,5.66,0,0,1,1.66,4.18,5.86,5.86,0,0,1-1.66,4.24A5.32,5.32,0,0,1,425.34,178.38ZM424.24,162a1.69,1.69,0,0,1-1.91-1.84l-1.47-27.54a1.57,1.57,0,0,1,1.78-1.85h5.41a1.57,1.57,0,0,1,1.78,1.85l-1.47,27.54a1.7,1.7,0,0,1-1.91,1.84Z"/><rect class="cls-6" x="48.42" y="355.89" width="426.58" height="3.95"/></g><g id="圖層_3" data-name="圖層 3"><circle class="cls-7" cx="706.6" cy="147.55" r="40.42" transform="translate(2.7 307.49) rotate(-24.6)"/><path class="cls-8" d="M736.33,149.61a36,36,0,0,1-46,21.78c-.72-.26-1.44-.54-2.13-.84a36,36,0,0,0,24.14-67.62c.73.21,1.46.45,2.19.7A36,36,0,0,1,736.33,149.61Z"/><circle class="cls-9" cx="698.13" cy="135.97" r="35.97" transform="translate(-11.15 83.03) rotate(-6.75)"/><circle class="cls-10" cx="698.13" cy="135.97" r="34.03" transform="translate(238.78 678.99) rotate(-60.79)"/><circle class="cls-11" cx="698.13" cy="135.97" r="29.03" transform="translate(-6.93 229.62) rotate(-18.59)"/><circle class="cls-12" cx="698.13" cy="135.97" r="27.07" transform="translate(84.09 494.9) rotate(-41.33)"/><path class="cls-13" d="M674.52,127.54a27.07,27.07,0,0,1,33.64-16.7l-.93-.36a27.07,27.07,0,0,0-18.21,51l1,.31A27.07,27.07,0,0,1,674.52,127.54Z"/><path class="cls-14" d="M733,127.31l4.32,1.54a35.94,35.94,0,0,0-22.81-25.22c-.73-.25-1.46-.49-2.19-.7A35.93,35.93,0,0,1,733,127.31Z"/><path class="cls-14" d="M724.55,160.38a36,36,0,0,1-36.33,10.17c.69.3,1.41.58,2.13.84a36,36,0,0,0,38.53-9.46Z"/><path class="cls-15" d="M692.84,147.73a23.24,23.24,0,0,1-7.14-4.58l2.19-6.11a27.86,27.86,0,0,0,4,3.47,17,17,0,0,0,4.15,2.3,5.6,5.6,0,0,0,2.43.45,1.4,1.4,0,0,0,1.18-1,1.38,1.38,0,0,0-.16-1.22,8.65,8.65,0,0,0-1.41-1.59c-.69-.64-1.64-1.47-2.85-2.47a15.65,15.65,0,0,1-3.09-3.29,7.1,7.1,0,0,1-1.23-3.16,7.84,7.84,0,0,1,.53-3.55,6.32,6.32,0,0,1,3.65-4,10.92,10.92,0,0,1,6.62,0l.9-2.53,3.82,1.37-.89,2.48a23.07,23.07,0,0,1,6.76,4.45l-4.07,4.46a18.19,18.19,0,0,0-6.34-4.21,4.58,4.58,0,0,0-2.2-.39,1.24,1.24,0,0,0-1,.85,1.36,1.36,0,0,0,.07,1.15A6.81,6.81,0,0,0,700,132c.6.58,1.45,1.31,2.57,2.19a15.33,15.33,0,0,1,4.43,5.08,6.56,6.56,0,0,1,.07,5.08,7.13,7.13,0,0,1-3.76,4.32,10.16,10.16,0,0,1-6.58.35l-1.27,3.55-3.82-1.36Z"/><circle class="cls-16" cx="848.1" cy="189.22" r="85.17"/><path class="cls-17" d="M828.16,129.32S811.63,49.6,783.42,59.76c-28.87,10.4-23.89,55.2-1.74,63.54S828.16,129.32,828.16,129.32Z"/><path class="cls-18" d="M826.75,124.92s-36.92-38.35-44.18-18.7S826.75,124.92,826.75,124.92Z"/><path class="cls-19" d="M827.56,128.94s78.86-20.23,82.15,9.57c3.37,30.5-39.05,45.74-56.29,29.52S827.56,128.94,827.56,128.94Z"/><path class="cls-20" d="M833.55,127.79s49,17.13,34.52,32.3S833.55,127.79,833.55,127.79Z"/><path class="cls-21" d="M843.17,133.79c4.53-7.27.48-13.9-6.78-18.43s-15-5.24-19.53,2a15.5,15.5,0,1,0,26.31,16.41Z"/><ellipse class="cls-22" cx="819.24" cy="147.62" rx="42.48" ry="86.34" transform="translate(277.41 779.58) rotate(-59.61)"/><polygon class="cls-23" points="790.37 188.71 890.43 223.31 902.62 203.75 727.46 94.53 715.27 114.08 790.37 188.71"/><polygon class="cls-24" points="790.37 188.71 890.43 223.31 903.14 202.93 803.08 168.33 727.98 93.7 715.27 114.08 790.37 188.71"/><polygon class="cls-25" points="815.04 149.15 715.24 114.13 730.86 89.08 830.66 124.1 815.04 149.15"/><polygon class="cls-26" points="792.2 110.6 764.35 100.82 748.72 125.88 776.58 135.65 792.2 110.6"/><polygon class="cls-27" points="815.04 149.15 890.4 223.35 906.02 198.3 830.66 124.1 815.04 149.15"/><polygon class="cls-28" points="883.04 175.67 862 154.96 846.38 180.01 867.42 200.72 883.04 175.67"/><circle class="cls-29" cx="622.12" cy="177.84" r="40.42" transform="translate(101.81 562.47) rotate(-52.43)"/><path class="cls-30" d="M644.61,158.27a36,36,0,0,1-17.12,47.91c-.69.33-1.4.64-2.1.92a36,36,0,0,0-30.74-64.89c.66-.37,1.35-.72,2-1.05A36,36,0,0,1,644.61,158.27Z"/><circle class="cls-9" cx="607.95" cy="175.64" r="35.97" transform="translate(374.45 763.79) rotate(-84.46)"/><circle class="cls-31" cx="607.95" cy="175.64" r="34.03" transform="translate(53.87 481.33) rotate(-45)"/><circle class="cls-32" cx="607.95" cy="175.64" r="29.03" transform="translate(-14.11 291.8) rotate(-26.69)"/><circle class="cls-33" cx="607.95" cy="175.64" r="27.07" transform="translate(226.95 680.9) rotate(-69.1)"/><path class="cls-13" d="M585.3,186.37a27.06,27.06,0,0,1,12-35.6l-.91.41a27.06,27.06,0,0,0,23.17,48.92c.31-.14.6-.3.9-.45A27.06,27.06,0,0,1,585.3,186.37Z"/><path class="cls-14" d="M626.51,144.83l4.15-2a36,36,0,0,0-34-1.7c-.69.33-1.38.68-2,1.05A35.93,35.93,0,0,1,626.51,144.83Z"/><path class="cls-14" d="M643.89,174.22a36,36,0,0,1-18.5,32.88c.7-.28,1.41-.59,2.1-.92a36,36,0,0,0,20.56-33.93Z"/><path class="cls-34" d="M612.53,187.69a23.27,23.27,0,0,1-8.29,1.81l-2.78-5.86a28.48,28.48,0,0,0,5.29-.38,17.25,17.25,0,0,0,4.56-1.3,5.66,5.66,0,0,0,2-1.41,1.41,1.41,0,0,0,.13-1.54,1.37,1.37,0,0,0-1-.75,8.7,8.7,0,0,0-2.11-.12c-1,0-2.2.12-3.77.27a16.26,16.26,0,0,1-4.51-.15,7.05,7.05,0,0,1-3.1-1.36,7.93,7.93,0,0,1-2.14-2.89,6.37,6.37,0,0,1-.29-5.45,11.09,11.09,0,0,1,4.67-4.69l-1.14-2.42,3.66-1.74,1.13,2.38a23.23,23.23,0,0,1,7.92-1.63l.28,6a18.42,18.42,0,0,0-7.46,1.51,4.46,4.46,0,0,0-1.83,1.28,1.23,1.23,0,0,0-.1,1.29,1.4,1.4,0,0,0,.88.77,6.61,6.61,0,0,0,1.84.16c.83,0,2-.1,3.36-.26a15.17,15.17,0,0,1,6.73.46,6.53,6.53,0,0,1,3.64,3.54,7.13,7.13,0,0,1,.4,5.71,10.14,10.14,0,0,1-4.41,4.9l1.62,3.41L614.09,191Z"/><circle class="cls-35" cx="682.72" cy="252.79" r="40.42"/><path class="cls-36" d="M705.2,233.22a36,36,0,0,1-17.11,47.91c-.7.33-1.4.64-2.11.92a36,36,0,0,0-30.73-64.89q1-.56,2-1A36,36,0,0,1,705.2,233.22Z"/><circle class="cls-9" cx="668.54" cy="250.59" r="35.97" transform="translate(396.71 910.78) rotate(-88.17)"/><circle class="cls-37" cx="668.54" cy="250.59" r="34.03" transform="translate(3.44 510.17) rotate(-41.87)"/><circle class="cls-38" cx="668.54" cy="250.59" r="29.03" transform="translate(-37.08 141.75) rotate(-11.78)"/><circle class="cls-39" cx="668.54" cy="250.59" r="27.07" transform="translate(-39.58 341.71) rotate(-27.88)"/><path class="cls-13" d="M645.89,261.32a27.07,27.07,0,0,1,12-35.6l-.92.41a27.07,27.07,0,0,0,23.18,48.92c.3-.14.6-.3.89-.45A27.07,27.07,0,0,1,645.89,261.32Z"/><path class="cls-14" d="M687.1,219.78l4.15-2a36,36,0,0,0-34-1.7q-1,.49-2,1A35.91,35.91,0,0,1,687.1,219.78Z"/><path class="cls-14" d="M704.48,249.17A36,36,0,0,1,686,282.05c.71-.28,1.41-.59,2.11-.92a36,36,0,0,0,20.55-33.93Z"/><path class="cls-40" d="M673.12,262.64a23.27,23.27,0,0,1-8.29,1.81l-2.77-5.86a28.37,28.37,0,0,0,5.28-.38,17,17,0,0,0,4.56-1.3,5.72,5.72,0,0,0,2-1.41,1.39,1.39,0,0,0,.12-1.54,1.35,1.35,0,0,0-1-.75,8.79,8.79,0,0,0-2.12-.12c-1,0-2.2.12-3.76.27a16.24,16.24,0,0,1-4.51-.15,7.09,7.09,0,0,1-3.11-1.36,8,8,0,0,1-2.14-2.89,6.37,6.37,0,0,1-.28-5.45,11,11,0,0,1,4.67-4.69l-1.15-2.42,3.67-1.74,1.13,2.38a23.17,23.17,0,0,1,7.91-1.63l.28,6a18.42,18.42,0,0,0-7.46,1.51,4.61,4.61,0,0,0-1.83,1.28,1.25,1.25,0,0,0-.09,1.29,1.36,1.36,0,0,0,.87.77,6.69,6.69,0,0,0,1.85.16c.83,0,2-.1,3.36-.26a15.11,15.11,0,0,1,6.72.46,6.54,6.54,0,0,1,3.65,3.54,7.13,7.13,0,0,1,.4,5.71,10.14,10.14,0,0,1-4.41,4.9l1.61,3.41-3.66,1.73Z"/><circle class="cls-41" cx="778.99" cy="238.25" r="40.42" transform="translate(-35 270.09) rotate(-19.25)"/><path class="cls-42" d="M808.72,240.31a36,36,0,0,1-46,21.77c-.72-.26-1.44-.54-2.13-.84a36,36,0,0,0,24.14-67.61c.73.21,1.47.44,2.19.7A36,36,0,0,1,808.72,240.31Z"/><circle class="cls-9" cx="770.52" cy="226.67" r="35.97" transform="translate(-2.64 9.18) rotate(-0.68)"/><circle class="cls-43" cx="770.52" cy="226.67" r="34.03" transform="matrix(1, -0.08, 0.08, 1, -15.16, 59.99)"/><circle class="cls-44" cx="770.52" cy="226.67" r="29.03" transform="matrix(0.01, -1, 1, 0.01, 539.8, 995.98)"/><circle class="cls-45" cx="770.52" cy="226.67" r="27.07" transform="matrix(1, -0.02, 0.02, 1, -4.88, 17.32)"/><path class="cls-13" d="M746.92,218.24a27,27,0,0,1,33.63-16.7q-.45-.19-.93-.36a27.06,27.06,0,1,0-18.2,51c.31.12.63.22,1,.32A27,27,0,0,1,746.92,218.24Z"/><path class="cls-14" d="M805.43,218l4.33,1.55a36,36,0,0,0-22.82-25.22c-.72-.26-1.46-.49-2.19-.7A35.94,35.94,0,0,1,805.43,218Z"/><path class="cls-14" d="M796.94,251.08a36,36,0,0,1-36.33,10.16c.69.3,1.41.58,2.13.84a36,36,0,0,0,38.53-9.46Z"/><path class="cls-46" d="M765.24,238.43a23.24,23.24,0,0,1-7.14-4.58l2.18-6.11a28.41,28.41,0,0,0,4,3.47,17,17,0,0,0,4.15,2.3,5.56,5.56,0,0,0,2.43.44,1.45,1.45,0,0,0,1-2.22,9,9,0,0,0-1.41-1.58c-.69-.65-1.64-1.47-2.85-2.47a15.65,15.65,0,0,1-3.09-3.29,7.27,7.27,0,0,1-1.23-3.16,8,8,0,0,1,.53-3.56,6.36,6.36,0,0,1,3.65-4,11.08,11.08,0,0,1,6.62,0l.9-2.52,3.82,1.36-.89,2.49a23.24,23.24,0,0,1,6.76,4.44l-4.07,4.46a18.33,18.33,0,0,0-6.34-4.21,4.54,4.54,0,0,0-2.2-.38,1.24,1.24,0,0,0-1,.84,1.38,1.38,0,0,0,.08,1.16,6.23,6.23,0,0,0,1.19,1.42c.59.58,1.45,1.31,2.56,2.19a15.31,15.31,0,0,1,4.43,5.08,6.6,6.6,0,0,1,.08,5.08,7.21,7.21,0,0,1-3.76,4.33,10.2,10.2,0,0,1-6.59.34l-1.26,3.55L764,241.87Z"/><circle class="cls-47" cx="941.53" cy="293.52" r="40.42" transform="translate(628 1228.58) rotate(-88.78)"/><path class="cls-48" d="M968.66,305.85A36,36,0,0,1,918,310.17c-.59-.49-1.16-1-1.7-1.53a36,36,0,0,0,46.26-54.9c.61.45,1.21.92,1.8,1.42A36,36,0,0,1,968.66,305.85Z"/><circle class="cls-9" cx="937.64" cy="279.71" r="35.97" transform="translate(357.04 1067.31) rotate(-70.21)"/><circle class="cls-49" cx="937.64" cy="279.71" r="34.03" transform="translate(409.56 1103.45) rotate(-73.95)"/><circle class="cls-50" cx="937.64" cy="279.71" r="29.03" transform="translate(343.61 1057.23) rotate(-69.23)"/><circle class="cls-51" cx="937.64" cy="279.71" r="27.07" transform="translate(365.35 1073.36) rotate(-70.82)"/><path class="cls-13" d="M918.47,263.56a27.07,27.07,0,0,1,37.36-3.88c-.25-.23-.49-.45-.75-.67a27.07,27.07,0,0,0-34.88,41.4l.78.62A27.07,27.07,0,0,1,918.47,263.56Z"/><path class="cls-14" d="M973.37,283.8l3.52,3a35.93,35.93,0,0,0-12.56-31.6c-.59-.5-1.19-1-1.8-1.42A35.88,35.88,0,0,1,973.37,283.8Z"/><path class="cls-14" d="M953.86,311.82a36,36,0,0,1-37.59-3.18c.54.52,1.11,1,1.7,1.53a36,36,0,0,0,39.41,4.61Z"/><path class="cls-52" d="M928.58,288.88a23.14,23.14,0,0,1-5.09-6.79l4.18-5a27.27,27.27,0,0,0,2.54,4.65,16.94,16.94,0,0,0,3.08,3.61,5.61,5.61,0,0,0,2.12,1.27,1.42,1.42,0,0,0,1.46-.53,1.36,1.36,0,0,0,.27-1.2,8.64,8.64,0,0,0-.76-2c-.42-.85-1-1.95-1.81-3.31a16.18,16.18,0,0,1-1.74-4.17,7.09,7.09,0,0,1-.05-3.39,7.83,7.83,0,0,1,1.74-3.14,6.32,6.32,0,0,1,4.84-2.52,11.05,11.05,0,0,1,6.21,2.29l1.72-2,3.1,2.61-1.7,2a23,23,0,0,1,4.78,6.52l-5.38,2.76a18.16,18.16,0,0,0-4.46-6.16,4.52,4.52,0,0,0-1.93-1.13,1.22,1.22,0,0,0-1.21.45,1.39,1.39,0,0,0-.34,1.11,6.59,6.59,0,0,0,.62,1.74c.36.76.9,1.74,1.64,3a15.33,15.33,0,0,1,2.37,6.3,6.6,6.6,0,0,1-1.7,4.79,7.16,7.16,0,0,1-5,2.73,10.16,10.16,0,0,1-6.29-2l-2.43,2.88-3.1-2.61Z"/><ellipse class="cls-53" cx="862.92" cy="341.15" rx="29.71" ry="40.92" transform="translate(340.47 1108) rotate(-77.3)"/><path class="cls-54" d="M846.39,351.38c-20.53-7.14-34.53-20.48-31.27-29.77.12-.36,1.85-5.25,2-5.59-1.87,9.22,11.83,21.81,31.57,28.68s38.33,5.52,42.64-2.85c-.07.37-1.75,5.27-1.88,5.63C886.22,356.78,866.93,358.53,846.39,351.38Z"/><path class="cls-14" d="M833.74,337.77l-2.32,6.68c-11.85-7.11-18.67-16.05-16.3-22.85.13-.36,1.85-5.25,2-5.58C815.8,322.65,822.52,331,833.74,337.77Z"/><path class="cls-14" d="M889.48,347.49c-2.25,6.44-12.2,9.25-24.92,8l2.32-6.68c12,1.18,21.55-1.27,24.48-7C891.29,342.22,889.61,347.13,889.48,347.49Z"/><ellipse class="cls-9" cx="854.63" cy="327.86" rx="17.84" ry="39.37" transform="translate(264.51 1027.6) rotate(-70.85)"/><ellipse class="cls-55" cx="854.63" cy="327.86" rx="16.88" ry="37.25" transform="translate(264.51 1027.6) rotate(-70.85)"/><ellipse class="cls-56" cx="854.63" cy="327.86" rx="14.4" ry="31.77" transform="translate(264.51 1027.6) rotate(-70.85)"/><ellipse class="cls-57" cx="854.63" cy="327.86" rx="13.43" ry="29.62" transform="translate(264.51 1027.6) rotate(-70.85)"/><path class="cls-13" d="M828.72,318.84c2.4-6.84,16.32-8.24,31.38-3.28l-1-.37c-15.45-5.38-30-4.07-32.42,2.93s8.08,17,23.54,22.41l1,.35C836.34,335.42,826.32,325.68,828.72,318.84Z"/><path class="cls-58" d="M850.2,333.48a52.31,52.31,0,0,1-8.23-3.87l1.06-3c1.44.9,3,1.8,4.79,2.68a39.05,39.05,0,0,0,4.71,2,12.79,12.79,0,0,0,2.59.69c.57.06.92-.05,1-.35s-.06-.44-.4-.71a15.9,15.9,0,0,0-1.76-1.15c-.83-.48-2-1.12-3.41-1.9a29.36,29.36,0,0,1-3.81-2.41,6.89,6.89,0,0,1-1.88-2,2.29,2.29,0,0,1-.14-1.9c.36-1,1.35-1.54,3-1.61a22.18,22.18,0,0,1,6.81,1.19l.43-1.26,4.2,1.46-.44,1.24a51.52,51.52,0,0,1,7.81,3.72l-3.33,1.77a40.58,40.58,0,0,0-7.33-3.52,10,10,0,0,0-2.34-.61c-.48,0-.76.06-.84.29s0,.43.3.67a10.55,10.55,0,0,0,1.5,1c.72.43,1.74,1,3.06,1.7a26.1,26.1,0,0,1,5.53,3.65c1,1,1.38,2,1.06,2.87s-1.37,1.61-3,1.75a19.62,19.62,0,0,1-6.7-1l-.62,1.77-4.19-1.46Z"/><ellipse class="cls-59" cx="517.84" cy="165.54" rx="29.71" ry="40.92" transform="translate(10.83 361.76) rotate(-38.89)"/><path class="cls-60" d="M498.53,163.29c-11.65-18.36-14.33-37.51-6-42.77.32-.2,4.71-3,5.06-3.11-7.19,6.07-4.28,24.44,6.92,42.09s26.6,28.15,35.18,24.26c-.29.25-4.66,3.05-5,3.25C526.38,192.27,510.18,181.65,498.53,163.29Z"/><path class="cls-14" d="M497.08,144.77l-6,3.79c-4.87-12.95-4.66-24.18,1.42-28,.33-.2,4.72-3,5.06-3.11C492.42,121.77,492.47,132.51,497.08,144.77Z"/><path class="cls-14" d="M534.71,187c-5.76,3.65-15.31-.33-24.5-9.22l6-3.79c8.69,8.4,17.67,12.4,23.5,9.76C539.4,184,535,186.81,534.71,187Z"/><ellipse class="cls-9" cx="519.6" cy="149.97" rx="17.84" ry="39.37" transform="translate(0.6 302) rotate(-32.43)"/><ellipse class="cls-61" cx="519.6" cy="149.97" rx="16.88" ry="37.25" transform="translate(0.6 302) rotate(-32.43)"/><ellipse class="cls-62" cx="519.6" cy="149.97" rx="14.4" ry="31.77" transform="translate(0.6 302) rotate(-32.43)"/><ellipse class="cls-63" cx="519.6" cy="149.97" rx="13.43" ry="29.62" transform="matrix(0.84, -0.54, 0.54, 0.84, 0.6, 302)"/><path class="cls-13" d="M504.91,126.81c6.12-3.87,17.91,3.68,26.62,16.93-.19-.31-.38-.62-.58-.93C522.19,129,510,121,503.73,125s-4.25,18.37,4.52,32.18c.19.31.39.61.59.92C500.57,144.53,498.78,130.68,504.91,126.81Z"/><path class="cls-64" d="M512.64,151.62a53.17,53.17,0,0,1-4.05-8.14l2.73-1.72c.56,1.6,1.26,3.29,2.08,5.07a40,40,0,0,0,2.42,4.53,13.08,13.08,0,0,0,1.6,2.15c.42.41.75.53,1,.36s.22-.38.13-.8a14.72,14.72,0,0,0-.67-2c-.35-.91-.84-2.11-1.48-3.62a27.56,27.56,0,0,1-1.49-4.25,6.73,6.73,0,0,1-.23-2.73,2.26,2.26,0,0,1,1.07-1.58c.9-.57,2-.38,3.33.58a22.66,22.66,0,0,1,4.6,5.16l1.12-.7,2.38,3.74-1.11.7a51.81,51.81,0,0,1,3.8,7.77l-3.7-.68a40.52,40.52,0,0,0-3.56-7.31,10.74,10.74,0,0,0-1.45-1.94c-.36-.32-.64-.42-.85-.29s-.24.35-.17.71a10.4,10.4,0,0,0,.54,1.72c.3.79.75,1.87,1.34,3.23a26,26,0,0,1,2.07,6.31c.18,1.42-.14,2.39-1,2.9s-2.07.41-3.46-.51a19.62,19.62,0,0,1-4.64-4.95l-1.58,1-2.38-3.75Z"/><ellipse class="cls-65" cx="677.15" cy="47.89" rx="39.06" ry="28.36" transform="translate(79.22 369.3) rotate(-32.3)"/><path class="cls-66" d="M676.5,65.28c-19.58,9.47-38.9,9.94-43.17,1.06-.17-.35-2.4-5-2.52-5.39,5.2,7.84,23.79,7,42.61-2.05s31-23.19,28.13-32.16c.21.32,2.49,5,2.66,5.31C708.48,40.94,696.07,55.81,676.5,65.28Z"/><path class="cls-14" d="M657.93,64.6,661,71c-13.41,3.36-24.56,1.86-27.68-4.63-.17-.34-2.41-5-2.52-5.37C634.55,66.59,645.23,67.77,657.93,64.6Z"/><path class="cls-14" d="M704.21,32.06c3,6.14-2.09,15.17-12,23.28L689.16,49c9.33-7.66,14.35-16.13,12.39-22.22C701.76,27.05,704,31.71,704.21,32.06Z"/><ellipse class="cls-9" cx="665.68" cy="42.82" rx="39.37" ry="17.84" transform="translate(47.92 294.49) rotate(-25.85)"/><ellipse class="cls-67" cx="665.68" cy="42.82" rx="37.25" ry="16.88" transform="translate(47.92 294.49) rotate(-25.85)"/><ellipse class="cls-68" cx="665.68" cy="42.82" rx="31.77" ry="14.4" transform="translate(47.92 294.49) rotate(-25.85)"/><ellipse class="cls-69" cx="665.68" cy="42.82" rx="29.62" ry="13.43" transform="translate(47.92 294.49) rotate(-25.85)"/><path class="cls-13" d="M641,54.77c-3.14-6.54,5.71-17.38,19.87-24.51l-1,.46C645.14,37.85,635.8,49,639,55.72s17.75,6.32,32.48-.8l1-.49C658.1,61.1,644.13,61.3,641,54.77Z"/><path class="cls-70" d="M666.53,49.93A53,53,0,0,1,658,53l-1.4-2.9q2.49-.57,5.28-1.49a41.09,41.09,0,0,0,4.78-1.89A12.8,12.8,0,0,0,669,45.39c.45-.36.61-.69.47-1s-.35-.26-.78-.22a15.22,15.22,0,0,0-2.06.43c-.93.25-2.19.6-3.75,1.07a30.85,30.85,0,0,1-4.4,1,6.77,6.77,0,0,1-2.74-.09,2.27,2.27,0,0,1-1.45-1.24c-.46-1-.14-2,1-3.25a22.64,22.64,0,0,1,5.66-4l-.58-1.2,4-1.93.56,1.18A52.2,52.2,0,0,1,673,33.3l-1.1,3.61a40.85,40.85,0,0,0-7.67,2.69,10.78,10.78,0,0,0-2.09,1.22q-.55.48-.39.81c.09.19.32.28.68.26a11.41,11.41,0,0,0,1.78-.34c.82-.21,1.94-.53,3.36-1a26.47,26.47,0,0,1,6.5-1.33c1.44,0,2.36.41,2.78,1.28s.17,2.1-.91,3.38a19.56,19.56,0,0,1-5.45,4l.82,1.69-4,1.93Z"/><ellipse class="cls-71" cx="573.61" cy="285.63" rx="39.06" ry="28.36" transform="translate(-26.21 60.17) rotate(-5.87)"/><path class="cls-72" d="M563.27,299.77c-21.75-.24-39.26-8.42-39.13-18.27,0-.38.08-5.57.14-5.94,1.17,9.33,18.17,16.9,39.07,17.13s38.09-7,39.5-16.28c0,.38,0,5.56,0,5.94C602.74,292.21,585,300,563.27,299.77Z"/><path class="cls-14" d="M546.94,290.89l-.07,7.07c-13.51-3-22.82-9.26-22.73-16.47,0-.38.08-5.56.14-5.93C525.12,282.27,534.16,288.08,546.94,290.89Z"/><path class="cls-14" d="M602.87,282.35c-.08,6.82-8.62,12.66-21.08,15.52l.07-7.07c11.78-2.71,20-8.06,21-14.38C602.9,276.79,602.88,282,602.87,282.35Z"/><ellipse class="cls-9" cx="563.58" cy="274.84" rx="17.84" ry="39.37" transform="translate(282.97 835.58) rotate(-89.41)"/><path class="cls-73" d="M563.36,291.73c-20.57-.23-37.15-8-37-17.29s16.9-16.7,37.47-16.48,37.15,8,37,17.29S583.93,292,563.36,291.73Z"/><ellipse class="cls-74" cx="563.58" cy="274.84" rx="14.4" ry="31.77" transform="translate(282.97 835.58) rotate(-89.41)"/><ellipse class="cls-75" cx="563.58" cy="274.84" rx="13.43" ry="29.62" transform="translate(282.97 835.58) rotate(-89.41)"/><path class="cls-13" d="M536.15,274.55c.1-7.25,12.85-13,28.7-13.11l-1.09,0c-16.36-.18-29.7,5.69-29.8,13.1S547,288.09,563.4,288.27h1.1C548.65,287.83,536.06,281.79,536.15,274.55Z"/><path class="cls-76" d="M561.17,281.58a52.62,52.62,0,0,1-9-1.05l0-3.21c1.65.4,3.45.73,5.39,1a40.07,40.07,0,0,0,5.12.44,13.6,13.6,0,0,0,2.67-.17c.57-.13.85-.35.85-.66s-.19-.39-.6-.55a16,16,0,0,0-2-.52q-1.43-.3-3.84-.72a29.87,29.87,0,0,1-4.38-1.07,7,7,0,0,1-2.42-1.3,2.27,2.27,0,0,1-.73-1.76c0-1.06.78-1.89,2.3-2.47a22,22,0,0,1,6.83-1l0-1.33,4.44.05,0,1.3a51.68,51.68,0,0,1,8.58,1.05l-2.58,2.73a41.23,41.23,0,0,0-8.07-1,10.63,10.63,0,0,0-2.42.17c-.46.12-.7.3-.7.55s.16.39.5.53a11,11,0,0,0,1.74.48c.82.18,2,.4,3.44.64a26.38,26.38,0,0,1,6.41,1.7c1.29.63,1.93,1.42,1.92,2.38s-.79,2-2.32,2.62a19.48,19.48,0,0,1-6.67,1.19l0,1.87-4.43-.05Z"/><ellipse class="cls-77" cx="736.23" cy="415.64" rx="115.35" ry="35.33" transform="translate(-23.03 43.73) rotate(-3.35)"/><polygon class="cls-78" points="724.69 288.84 640.52 326.65 644.05 395.44 816.46 392 812.69 316.57 724.69 288.84"/><polygon class="cls-24" points="724.69 288.84 640.52 326.65 641.81 348.66 725.97 310.85 813.98 338.58 812.69 316.57 724.69 288.84"/><ellipse class="cls-79" cx="700.25" cy="333.19" rx="38.51" ry="34.82" transform="translate(-75.1 347.03) rotate(-26.47)"/><path class="cls-80" d="M724.29,316c7.63,15.31.07,34.56-16.86,43-.66.32-1.32.63-2,.91,15.57-8.89,22.26-27.24,14.93-42s-26-20.45-42.48-13.38c.63-.36,1.27-.7,1.93-1C696.75,295.09,716.67,300.67,724.29,316Z"/><ellipse class="cls-9" cx="689.71" cy="333.2" rx="34.26" ry="30.97" transform="translate(-76.21 342.34) rotate(-26.47)"/><ellipse class="cls-81" cx="689.71" cy="333.2" rx="32.41" ry="29.3" transform="translate(-76.21 342.34) rotate(-26.47)"/><path class="cls-82" d="M714.46,320.88c6.15,12.36.06,27.89-13.61,34.7s-29.74,2.3-35.89-10.06-.06-27.89,13.61-34.7S708.3,308.52,714.46,320.88Z"/><ellipse class="cls-83" cx="689.71" cy="333.2" rx="25.78" ry="23.3" transform="translate(-76.21 342.34) rotate(-26.47)"/><path class="cls-13" d="M668.34,343.84c-5.6-11.27-.3-25.35,11.85-31.91-.29.13-.58.26-.87.41-12.74,6.34-18.42,20.83-12.68,32.35s20.71,15.72,33.46,9.37l.84-.44C688.39,359.36,674,355.1,668.34,343.84Z"/><path class="cls-14" d="M707.62,305.14l3.91-1.95c-9.21-4.73-21-5-31.71.33-.66.33-1.3.67-1.93,1A35.08,35.08,0,0,1,707.62,305.14Z"/><path class="cls-14" d="M723.33,330c.25,11.6-6.4,23.31-17.89,29.87.67-.28,1.33-.59,2-.91,12.67-6.31,20.08-18.67,19.82-30.91Z"/><path class="cls-84" d="M693.77,343.54a24.18,24.18,0,0,1-7.78,2l-2.49-5a28.34,28.34,0,0,0,5-.61,18.16,18.16,0,0,0,4.29-1.39,5.78,5.78,0,0,0,1.92-1.35,1.18,1.18,0,0,0,.15-1.36,1.15,1.15,0,0,0-.9-.6,8.4,8.4,0,0,0-2,0c-.89.08-2.06.23-3.53.44a16.1,16.1,0,0,1-4.21.12,6.52,6.52,0,0,1-2.88-1,6.34,6.34,0,0,1-2-2.43,5.23,5.23,0,0,1-.16-4.77,11.13,11.13,0,0,1,4.45-4.37l-1-2.07,3.46-1.72,1,2a23.79,23.79,0,0,1,7.43-1.86l.15,5.28a19.07,19.07,0,0,0-7,1.72,4.64,4.64,0,0,0-1.73,1.23,1,1,0,0,0-.11,1.14,1.11,1.11,0,0,0,.8.62,6.33,6.33,0,0,0,1.72,0q1.17-.09,3.15-.42a14.93,14.93,0,0,1,6.27,0,5.34,5.34,0,0,1,3.35,2.91,5.87,5.87,0,0,1,.27,5,10.27,10.27,0,0,1-4.21,4.54l1.44,2.91-3.45,1.72Z"/><path class="cls-85" d="M776.47,344.21c-16.92,11.88-35,15.28-40.35,7.6-.2-.29-3-4.34-3.18-4.66,6.08,6.56,23.4,3,39.66-8.45s25.55-26.51,21.48-34.48c.25.26,3.1,4.28,3.31,4.58C802.76,316.48,793.39,332.34,776.47,344.21Z"/><path class="cls-14" d="M758.94,346.42l3.87,5.5c-12.08,5.2-22.76,5.5-26.69-.11-.2-.3-3-4.35-3.18-4.66C737.31,351.86,747.51,351.33,758.94,346.42Z"/><path class="cls-14" d="M797.39,308.8c3.72,5.31.37,14.55-7.67,23.68l-3.86-5.5c7.58-8.63,11-17.34,8.22-22.76C794.33,304.48,797.18,308.5,797.39,308.8Z"/><ellipse class="cls-9" cx="762.89" cy="324.8" rx="37.43" ry="16.96" transform="translate(-48 497.84) rotate(-35.11)"/><ellipse class="cls-86" cx="762.89" cy="324.8" rx="35.41" ry="16.05" transform="translate(-48 497.84) rotate(-35.11)"/><path class="cls-87" d="M770.73,336c-13.65,9.59-28.23,12.33-32.57,6.13s3.23-19,16.89-28.58,28.23-12.33,32.56-6.13S784.38,326.43,770.73,336Z"/><ellipse class="cls-88" cx="762.89" cy="324.8" rx="28.16" ry="12.76" transform="translate(-48 497.84) rotate(-35.11)"/><path class="cls-13" d="M741.54,339.78c-3.94-5.65,2.71-17.17,14.9-26l-.86.59c-12.73,8.94-19.78,20.87-15.74,26.65s17.63,3.22,30.36-5.72l.84-.61C758.57,343.11,745.49,345.43,741.54,339.78Z"/><path class="cls-89" d="M764.77,331.33a50.19,50.19,0,0,1-7.56,4.21L755.46,333c1.49-.61,3.07-1.35,4.72-2.21a37.67,37.67,0,0,0,4.19-2.5,11.64,11.64,0,0,0,2-1.61c.37-.41.47-.74.3-1s-.37-.2-.77-.09a12.51,12.51,0,0,0-1.86.72c-.84.37-2,.9-3.36,1.57a26.69,26.69,0,0,1-4,1.6,6.39,6.39,0,0,1-2.58.34,2.15,2.15,0,0,1-1.55-.94c-.58-.83-.45-1.9.41-3.19a21.22,21.22,0,0,1,4.69-4.6l-.72-1,3.45-2.43.72,1a49,49,0,0,1,7.2-3.95l-.48,3.54A39.31,39.31,0,0,0,761,322a10.27,10.27,0,0,0-1.78,1.46c-.29.36-.37.63-.23.82s.34.21.67.14a11.11,11.11,0,0,0,1.62-.6c.74-.32,1.74-.79,3-1.42a25.08,25.08,0,0,1,5.89-2.24c1.35-.23,2.28,0,2.81.78s.47,1.95-.34,3.31a18.5,18.5,0,0,1-4.49,4.61l1,1.46-3.46,2.43Z"/><path class="cls-90" d="M719.18,364.56c-20.64-1.2-36.91-9.75-36.35-19.1,0-.36.33-5.28.41-5.63.69,8.91,16.49,16.86,36.33,18s36.49-4.92,38.25-13.7c0,.36-.23,5.28-.25,5.64C757,359.14,739.82,365.75,719.18,364.56Z"/><path class="cls-14" d="M704.07,355.4l-.38,6.71c-12.7-3.42-21.26-9.82-20.85-16.65,0-.36.32-5.29.39-5.63C683.73,346.24,692.06,352.15,704.07,355.4Z"/><path class="cls-14" d="M757.57,349.79c-.38,6.47-8.75,11.63-20.71,13.79l.38-6.71c11.3-2.05,19.38-6.76,20.58-12.72C757.85,344.5,757.59,349.42,757.57,349.79Z"/><ellipse class="cls-9" cx="720.59" cy="340.9" rx="16.96" ry="37.43" transform="translate(339.06 1040.83) rotate(-86.72)"/><ellipse class="cls-91" cx="720.59" cy="340.9" rx="16.05" ry="35.41" transform="translate(339.06 1040.83) rotate(-86.72)"/><ellipse class="cls-92" cx="720.59" cy="340.9" rx="13.69" ry="30.21" transform="translate(339.06 1040.83) rotate(-86.72)"/><ellipse class="cls-93" cx="720.59" cy="340.9" rx="12.76" ry="28.16" transform="translate(339.06 1040.83) rotate(-86.72)"/><path class="cls-13" d="M694.55,339.39c.42-6.87,12.79-11.78,27.85-11.16l-1-.07c-15.53-.9-28.46,4.08-28.89,11.11s11.82,13.47,27.35,14.37l1,.05C705.83,352.57,694.14,346.27,694.55,339.39Z"/><path class="cls-94" d="M718,347.19a49.47,49.47,0,0,1-8.53-1.4l.18-3.05q2.33.67,5.07,1.2a38,38,0,0,0,4.85.65,13.08,13.08,0,0,0,2.54,0c.54-.1.83-.29.84-.59s-.17-.38-.55-.55a14.55,14.55,0,0,0-1.9-.59c-.89-.23-2.1-.51-3.61-.85a29.22,29.22,0,0,1-4.12-1.21,6.71,6.71,0,0,1-2.23-1.34,2.17,2.17,0,0,1-.63-1.71c.06-1,.83-1.76,2.3-2.25a21.63,21.63,0,0,1,6.54-.68l.07-1.26,4.22.24L723,335a48.92,48.92,0,0,1,8.11,1.37l-2.58,2.48a39.55,39.55,0,0,0-7.62-1.31,10.34,10.34,0,0,0-2.3.05c-.45.09-.68.26-.7.49s.14.38.45.53a10.78,10.78,0,0,0,1.63.54c.78.21,1.86.46,3.25.75a25.09,25.09,0,0,1,6,1.91q1.8,1,1.71,2.34c-.06,1-.83,1.83-2.31,2.39a18.73,18.73,0,0,1-6.39.83l-.11,1.78-4.21-.25Z"/><circle class="cls-95" cx="736.23" cy="308.22" r="37.38" transform="translate(-2.31 610.87) rotate(-45)"/><path class="cls-96" d="M763.73,316.67A33.25,33.25,0,0,1,719,331.09c-.63-.32-1.25-.67-1.85-1A33.24,33.24,0,0,0,747.39,271c.64.27,1.28.58,1.91.9A33.25,33.25,0,0,1,763.73,316.67Z"/><circle class="cls-9" cx="730.37" cy="299.57" r="33.25" transform="translate(-3.6 8.92) rotate(-0.7)"/><circle class="cls-97" cx="730.37" cy="299.57" r="31.46" transform="translate(-54.5 214.98) rotate(-16.15)"/><circle class="cls-98" cx="730.37" cy="299.57" r="26.83" transform="translate(-57.36 247.99) rotate(-18.56)"/><circle class="cls-99" cx="730.37" cy="299.57" r="25.02" transform="translate(-56.27 233.33) rotate(-17.49)"/><path class="cls-13" d="M709.75,289a25,25,0,0,1,32.84-11.26c-.27-.15-.54-.3-.82-.44A25,25,0,1,0,719,321.83l.83.4A25,25,0,0,1,709.75,289Z"/><path class="cls-14" d="M763.4,295.83l3.78,1.94a33.22,33.22,0,0,0-17.88-25.86c-.63-.32-1.27-.63-1.91-.9A33.19,33.19,0,0,1,763.4,295.83Z"/><path class="cls-14" d="M751.64,325.12a33.24,33.24,0,0,1-34.51,4.94c.6.36,1.22.71,1.85,1a33.26,33.26,0,0,0,36.45-4Z"/><path class="cls-100" d="M724.11,309.71a21.53,21.53,0,0,1-6-5.06l2.73-5.33A26.17,26.17,0,0,0,724.1,303a16.06,16.06,0,0,0,3.53,2.61,5.16,5.16,0,0,0,2.17.7,1.36,1.36,0,0,0,1.21-1.91,7.55,7.55,0,0,0-1.11-1.62q-.82-1-2.31-2.61a14.62,14.62,0,0,1-2.44-3.39,6.84,6.84,0,0,1-.75-3,7.51,7.51,0,0,1,.92-3.2,5.83,5.83,0,0,1,3.83-3.27,10.23,10.23,0,0,1,6.07.78l1.13-2.2,3.34,1.7-1.12,2.17a21.45,21.45,0,0,1,5.66,4.89l-4.27,3.6a16.77,16.77,0,0,0-5.3-4.62,4.24,4.24,0,0,0-2-.62,1.14,1.14,0,0,0-1,.66,1.29,1.29,0,0,0-.07,1.07,6,6,0,0,0,.92,1.44c.48.6,1.17,1.38,2.09,2.32a14.06,14.06,0,0,1,3.44,5.18,6.07,6.07,0,0,1-.54,4.67,6.6,6.6,0,0,1-4,3.51,9.41,9.41,0,0,1-6.07-.47l-1.59,3.1-3.34-1.71Z"/><polygon class="cls-101" points="728.52 354.33 640.52 326.6 644.05 395.44 731.62 442.92 728.52 354.33"/><polygon class="cls-102" points="695.17 343.89 671.21 336.35 675.34 412.41 699.61 425.56 695.17 343.89"/><polygon class="cls-103" points="703.16 346.63 695.3 344.15 699.61 425.56 708.06 430.15 703.16 346.63"/><polygon class="cls-104" points="728.52 354.33 812.69 316.52 816.46 392 731.62 442.92 728.52 354.33"/><polygon class="cls-105" points="763.21 338.76 786.13 328.46 790.75 407.43 768.03 421.07 763.21 338.76"/><polygon class="cls-103" points="792.01 326 786.13 328.46 790.75 407.43 796.04 404.26 792.01 326"/></g></g></svg>