<?xml version="1.0" encoding="utf-8"?>
<!-- Generator: Adobe Illustrator 23.0.3, SVG Export Plug-In . SVG Version: 6.00 Build 0)  -->
<svg version="1.1" id="圖層_1" xmlns="http://www.w3.org/2000/svg" xmlns:xlink="http://www.w3.org/1999/xlink" x="0px" y="0px"
	 viewBox="0 0 50 50" style="enable-background:new 0 0 50 50;" xml:space="preserve">
<style type="text/css">
	.st0{fill:url(#SVGID_1_);}
	.st1{fill:url(#SVGID_2_);}
	.st2{fill:url(#SVGID_3_);}
	.st3{fill:url(#SVGID_4_);}
	.st4{fill:#65E9B9;}
	.st5{fill:#323644;}
	.st6{fill:url(#SVGID_5_);}
	.st7{fill:url(#SVGID_6_);}
	.st8{fill:url(#SVGID_7_);}
	.st9{fill:url(#SVGID_8_);}
	.st10{fill:url(#SVGID_9_);}
	.st11{fill:url(#SVGID_10_);}
	.st12{fill:url(#SVGID_11_);}
	.st13{fill:url(#SVGID_12_);}
	.st14{fill:url(#SVGID_13_);}
	.st15{fill:url(#SVGID_14_);}
	.st16{fill:url(#SVGID_15_);}
	.st17{fill:url(#SVGID_16_);}
	.st18{fill:#E66600;}
	.st19{fill:#FFBA00;}
	.st20{fill:#FDE09C;}
	.st21{fill:#04A586;}
	.st22{fill:url(#SVGID_17_);}
	.st23{fill:#424242;}
	.st24{fill:#707070;}
	.st25{fill:url(#SVGID_18_);}
	.st26{fill:url(#SVGID_19_);}
	.st27{fill:url(#SVGID_20_);}
	.st28{fill:url(#SVGID_21_);}
	.st29{fill:url(#SVGID_22_);}
	.st30{fill:url(#SVGID_23_);}
	.st31{fill:url(#SVGID_24_);}
	.st32{fill:url(#SVGID_25_);}
	.st33{fill:url(#SVGID_28_);}
	.st34{fill:url(#SVGID_29_);}
	.st35{fill:url(#SVGID_30_);}
	.st36{fill:url(#SVGID_31_);}
	.st37{fill:url(#SVGID_32_);}
	.st38{fill:#FFFFFF;}
	.st39{fill:url(#SVGID_33_);}
	.st40{fill:none;stroke:#444444;stroke-width:5;stroke-linecap:round;stroke-linejoin:round;stroke-miterlimit:10;}
	.st41{fill:url(#SVGID_34_);}
	.st42{opacity:0.58;fill:url(#SVGID_35_);}
	.st43{fill:none;stroke:#FFFFFF;stroke-width:1.2361;stroke-linecap:round;stroke-miterlimit:10;}
	.st44{fill:url(#SVGID_36_);}
	.st45{opacity:0.58;fill:url(#SVGID_37_);}
	.st46{fill:none;stroke:#FFFFFF;stroke-miterlimit:10;}
	.st47{fill:url(#SVGID_38_);}
	.st48{opacity:0.58;fill:url(#SVGID_39_);}
	.st49{fill:none;}
</style>
<g>
	<circle class="st38" cx="25.25" cy="25.19" r="23.22"/>
	<g>
		<path d="M19.84,39.33c-0.19,0-0.37-0.1-0.46-0.28c-0.13-0.25-0.03-0.57,0.22-0.7l1.31-0.67c-1.96-0.58-3.75-1.64-5.22-3.11
			c-0.01-0.01-0.04-0.05-0.05-0.06c-0.01-0.01-0.05-0.05-0.06-0.06c-2.79-2.79-4.06-6.64-3.49-10.57c0.04-0.28,0.31-0.48,0.59-0.44
			c0.28,0.04,0.48,0.3,0.44,0.59c-0.53,3.6,0.64,7.13,3.2,9.69l0.06,0.05c0.01,0.01,0.05,0.05,0.05,0.06
			c1.66,1.66,3.76,2.75,6.07,3.15c0.22,0.04,0.39,0.21,0.42,0.43c0.03,0.22-0.08,0.44-0.28,0.54l-2.57,1.32
			C20,39.31,19.92,39.33,19.84,39.33z"/>
		<path class="st21" d="M20.61,24.03l-3.23,0c-0.29,0-0.52-0.23-0.52-0.52V22c-0.1-0.04-0.2-0.08-0.3-0.12l-1.07,1.07
			c-0.19,0.19-0.54,0.19-0.73,0l-2.28-2.28c-0.2-0.2-0.2-0.53,0-0.73l1.07-1.07c-0.04-0.1-0.08-0.2-0.12-0.3h-1.52
			c-0.29,0-0.52-0.23-0.52-0.52v-3.23c0-0.29,0.23-0.52,0.52-0.52h1.52c0.04-0.1,0.08-0.2,0.12-0.3l-1.07-1.07
			c-0.1-0.1-0.15-0.23-0.15-0.37c0-0.14,0.05-0.27,0.15-0.37l2.28-2.28c0.19-0.19,0.54-0.19,0.73,0l1.07,1.07
			c0.1-0.04,0.2-0.08,0.3-0.12V9.35c0-0.29,0.23-0.52,0.52-0.52h3.23c0.29,0,0.52,0.23,0.52,0.52v1.52c0.1,0.04,0.2,0.08,0.3,0.12
			l1.07-1.07c0.19-0.19,0.54-0.19,0.73,0l2.28,2.28c0.1,0.1,0.15,0.23,0.15,0.37c0,0.14-0.05,0.27-0.15,0.37L24.44,14
			c0.04,0.1,0.08,0.2,0.12,0.3h1.52c0.29,0,0.52,0.23,0.52,0.52v3.23c0,0.29-0.23,0.52-0.52,0.52h-1.52c-0.04,0.1-0.08,0.2-0.12,0.3
			l1.07,1.07c0.2,0.2,0.2,0.53,0,0.73l-2.28,2.28c-0.1,0.1-0.23,0.15-0.37,0.15c-0.14,0-0.27-0.05-0.37-0.15l-1.07-1.07
			c-0.1,0.04-0.2,0.08-0.3,0.12v1.52c0,0.14-0.05,0.27-0.15,0.37S20.75,24.03,20.61,24.03z M17.9,23l2.19,0v-1.37
			c0-0.23,0.15-0.43,0.37-0.5c0.29-0.09,0.57-0.21,0.83-0.34c0.2-0.11,0.45-0.07,0.61,0.09l0.97,0.97l1.55-1.55l-0.97-0.97
			c-0.16-0.16-0.2-0.41-0.09-0.61c0.13-0.26,0.25-0.54,0.34-0.83c0.07-0.22,0.27-0.36,0.49-0.36h1.37v-2.19h-1.37
			c-0.23,0-0.43-0.15-0.49-0.36c-0.09-0.3-0.21-0.58-0.34-0.83c-0.11-0.2-0.07-0.45,0.09-0.61l0.97-0.96l-1.55-1.55l-0.97,0.97
			c-0.16,0.16-0.41,0.2-0.61,0.09c-0.26-0.13-0.54-0.25-0.83-0.34c-0.22-0.07-0.36-0.27-0.36-0.49V9.87H17.9v1.37
			c0,0.23-0.15,0.43-0.36,0.49c-0.3,0.09-0.58,0.21-0.83,0.34c-0.2,0.11-0.45,0.07-0.61-0.09l-0.97-0.97l-1.55,1.55l0.97,0.96
			c0.16,0.16,0.2,0.41,0.09,0.61c-0.14,0.26-0.25,0.54-0.34,0.83c-0.07,0.22-0.27,0.36-0.49,0.36h-1.37v2.19h1.37
			c0.23,0,0.43,0.15,0.49,0.36c0.09,0.3,0.21,0.58,0.34,0.83c0.11,0.2,0.07,0.45-0.09,0.61l-0.97,0.97l1.55,1.55l0.97-0.97
			c0.16-0.16,0.41-0.2,0.61-0.09c0.26,0.14,0.54,0.25,0.83,0.34c0.22,0.07,0.37,0.27,0.37,0.5V23z"/>
		<path class="st21" d="M18.99,20.65c-1.08,0-2.16-0.41-2.98-1.23c-0.8-0.8-1.24-1.86-1.24-2.98c0-1.13,0.44-2.19,1.24-2.98
			c0.8-0.8,1.86-1.24,2.98-1.24c1.13,0,2.19,0.44,2.98,1.24c0.8,0.8,1.24,1.85,1.24,2.98c0,1.13-0.44,2.19-1.24,2.98
			C21.15,20.24,20.07,20.65,18.99,20.65z M18.99,13.25c-0.85,0-1.65,0.33-2.25,0.93c-0.6,0.6-0.93,1.4-0.93,2.25
			c0,0.85,0.33,1.65,0.93,2.25c1.24,1.24,3.26,1.24,4.5,0c0.6-0.6,0.93-1.4,0.93-2.25c0-0.85-0.33-1.65-0.93-2.25
			C20.64,13.58,19.84,13.25,18.99,13.25z"/>
		<path class="st21" d="M33.12,41.54h-3.23c-0.29,0-0.52-0.23-0.52-0.52v-1.52c-0.1-0.04-0.2-0.08-0.3-0.12L28,40.46
			c-0.2,0.2-0.53,0.2-0.73,0l-2.28-2.28c-0.1-0.1-0.15-0.23-0.15-0.37c0-0.14,0.05-0.27,0.15-0.37l1.07-1.07
			c-0.04-0.1-0.08-0.2-0.12-0.3h-1.52c-0.29,0-0.52-0.23-0.52-0.52v-3.23c0-0.29,0.23-0.52,0.52-0.52h1.52
			c0.04-0.1,0.08-0.2,0.12-0.3l-1.07-1.07c-0.2-0.2-0.2-0.53,0-0.73l2.28-2.28c0.19-0.19,0.54-0.19,0.73,0l1.07,1.07
			c0.1-0.04,0.2-0.08,0.3-0.12v-1.52c0-0.29,0.23-0.52,0.52-0.52h3.23c0.29,0,0.52,0.23,0.52,0.52v1.52c0.1,0.04,0.2,0.08,0.3,0.12
			L35,27.42c0.19-0.19,0.54-0.19,0.73,0l2.28,2.28c0.2,0.2,0.2,0.53,0,0.73l-1.07,1.07c0.04,0.1,0.08,0.2,0.12,0.3h1.52
			c0.29,0,0.52,0.23,0.52,0.52v3.23c0,0.29-0.23,0.52-0.52,0.52h-1.52c-0.04,0.1-0.08,0.2-0.12,0.3l1.07,1.07
			c0.1,0.1,0.15,0.23,0.15,0.37c0,0.14-0.05,0.27-0.15,0.37l-2.28,2.28c-0.2,0.2-0.53,0.2-0.73,0l-1.07-1.07
			c-0.1,0.04-0.2,0.08-0.3,0.12v1.52C33.63,41.31,33.4,41.54,33.12,41.54z M30.4,40.51h2.19v-1.37c0-0.23,0.15-0.43,0.36-0.49
			c0.3-0.09,0.58-0.21,0.83-0.34c0.2-0.11,0.45-0.07,0.61,0.09l0.97,0.97l1.55-1.55l-0.97-0.97c-0.16-0.16-0.2-0.41-0.09-0.61
			c0.14-0.26,0.25-0.54,0.34-0.83c0.07-0.22,0.27-0.36,0.49-0.36h1.37v-2.19H36.7c-0.23,0-0.43-0.15-0.49-0.36
			c-0.09-0.3-0.21-0.58-0.34-0.83c-0.11-0.2-0.07-0.45,0.09-0.61l0.97-0.97l-1.55-1.55l-0.97,0.97c-0.16,0.16-0.41,0.2-0.61,0.09
			c-0.26-0.13-0.54-0.25-0.83-0.34c-0.22-0.07-0.36-0.27-0.36-0.49v-1.37H30.4v1.37c0,0.23-0.15,0.43-0.36,0.49
			c-0.3,0.09-0.58,0.21-0.83,0.34c-0.2,0.11-0.45,0.07-0.61-0.09l-0.97-0.97l-1.55,1.55l0.97,0.97c0.16,0.16,0.2,0.41,0.09,0.61
			c-0.14,0.26-0.25,0.54-0.34,0.83c-0.07,0.22-0.27,0.36-0.49,0.36h-1.37v2.19h1.37c0.23,0,0.43,0.15,0.49,0.36
			c0.09,0.3,0.21,0.58,0.34,0.83c0.11,0.2,0.07,0.45-0.09,0.61l-0.97,0.97l1.55,1.55l0.97-0.97c0.16-0.16,0.41-0.2,0.61-0.09
			c0.26,0.14,0.54,0.25,0.83,0.34c0.22,0.07,0.36,0.27,0.36,0.49V40.51z"/>
		<path class="st21" d="M31.5,38.15c-1.08,0-2.16-0.41-2.98-1.23c-1.64-1.64-1.64-4.32,0-5.96c1.64-1.64,4.32-1.64,5.96,0
			c1.64,1.64,1.64,4.32,0,5.96C33.66,37.74,32.58,38.15,31.5,38.15z M29.25,31.69c-1.24,1.24-1.24,3.26,0,4.5
			c1.24,1.24,3.26,1.24,4.5,0c1.24-1.24,1.24-3.26,0-4.5c-0.6-0.6-1.4-0.93-2.25-0.93C30.65,30.76,29.85,31.09,29.25,31.69
			L29.25,31.69z"/>
		<path d="M37.33,26.93c-0.03,0-0.05,0-0.08-0.01c-0.28-0.04-0.48-0.3-0.44-0.59c0.53-3.6-0.64-7.13-3.2-9.69
			c-0.02-0.02-0.04-0.03-0.06-0.05c-0.01-0.01-0.04-0.05-0.05-0.06c-1.66-1.66-3.76-2.75-6.06-3.15c-0.22-0.04-0.39-0.21-0.42-0.43
			c-0.03-0.22,0.08-0.44,0.28-0.54l2.57-1.32c0.25-0.13,0.57-0.03,0.7,0.22c0.13,0.25,0.03,0.57-0.22,0.7l-1.31,0.67
			c1.96,0.58,3.75,1.64,5.21,3.11c0.01,0.01,0.05,0.05,0.05,0.06c0.01,0.01,0.05,0.04,0.05,0.05c2.8,2.8,4.07,6.65,3.49,10.58
			C37.8,26.75,37.58,26.93,37.33,26.93z"/>
		<path d="M29.38,15.83c-0.16,0-0.31-0.07-0.41-0.2l-1.85-2.43c-0.17-0.23-0.13-0.55,0.1-0.73c0.23-0.17,0.55-0.13,0.73,0.1
			L29.79,15c0.17,0.23,0.13,0.55-0.1,0.73C29.6,15.79,29.49,15.83,29.38,15.83z"/>
		<path d="M22.41,38.01c-0.16,0-0.31-0.07-0.41-0.21l-1.85-2.43c-0.17-0.23-0.13-0.55,0.1-0.73c0.23-0.17,0.55-0.13,0.73,0.1
			l1.85,2.43c0.17,0.23,0.13,0.55-0.1,0.73C22.63,37.98,22.52,38.01,22.41,38.01z"/>
	</g>
</g>
</svg>
